SplineFontDB: 3.0
FontName: NewShape-Bold
FullName: New Shape Bold
FamilyName: New Shape
Weight: Bold
Copyright: Copyright (c) 2020-2024 by Wojciech Kalinowski "wmk69" with Reserved Font Name "NewShape-Bold".\nThis Font Software is licensed under the SIL Open Font License, Version 1.1.
Version: 2.1.1; 2021-05-14
ItalicAngle: 0
UnderlinePosition: -80
UnderlineWidth: 320
Ascent: 1638
Descent: 410
InvalidEm: 0
LayerCount: 2
Layer: 0 1 "Warstwa t+AUIA-a" 1
Layer: 1 1 "Plan pierwszy" 0
XUID: [1021 783 23647091 2952791]
StyleMap: 0x0020
FSType: 0
OS2Version: 3
OS2_WeightWidthSlopeOnly: 0
OS2_UseTypoMetrics: 1
CreationTime: 1260698820
ModificationTime: 1621014828
PfmFamily: 33
TTFWeight: 700
TTFWidth: 5
LineGap: 200
VLineGap: 0
Panose: 2 11 8 3 2 2 3 6 2 4
OS2TypoAscent: 2016
OS2TypoAOffset: 0
OS2TypoDescent: -573
OS2TypoDOffset: 0
OS2TypoLinegap: 200
OS2WinAscent: 2016
OS2WinAOffset: 0
OS2WinDescent: 573
OS2WinDOffset: 0
HheadAscent: 2016
HheadAOffset: 0
HheadDescent: -573
HheadDOffset: 0
OS2SubXSize: 1434
OS2SubYSize: 1331
OS2SubXOff: 0
OS2SubYOff: 287
OS2SupXSize: 1434
OS2SupYSize: 1331
OS2SupXOff: 0
OS2SupYOff: 977
OS2StrikeYSize: 102
OS2StrikeYPos: 512
OS2CapHeight: 1510
OS2XHeight: 1100
OS2Vendor: '    '
OS2CodePages: 20000093.00000000
OS2UnicodeRanges: 8000002f.4000204b.00000000.00000000
Lookup: 258 0 0 "'kern' Horizontal Kerning lookup 0" { "'kern' Horizontal Kerning lookup 0-1 subtable" [307,0,6] } ['kern' ('DFLT' <'dflt' > 'grek' <'dflt' > 'latn' <'dflt' > ) ]
MarkAttachClasses: 1
DEI: 91125
KernClass2: 67 49 "'kern' Horizontal Kerning lookup 0-1 subtable"
 84 A Agrave Aacute Acircumflex Atilde Adieresis Aring Amacron Abreve Aogonek Aringacute
 28 B germandbls uni1E02 uni1E9E
 47 C Ccedilla Cacute Ccircumflex Cdotaccent Ccaron
 122 D O Q Eth Ograve Oacute Ocircumflex Otilde Odieresis Oslash Dcaron Dcroat Omacron Obreve Ohungarumlaut Oslashacute uni1E0A
 44 G Gcircumflex Gbreve Gdotaccent Gcommaaccent

StartChar: .notdef
Encoding: 65536 -1 0
Width: 904
Flags: W
HStem: 0 188<308 596> 1237 188<308 596>
VStem: 120 188<188 1237> 596 188<188 1237>
LayerCount: 2
Fore
SplineSet
120 0 m 1,0,-1
 120 1425 l 1,1,-1
 784 1425 l 1,2,-1
 784 0 l 1,3,-1
 120 0 l 1,0,-1
308 188 m 1,4,-1
 596 188 l 1,5,-1
 596 1237 l 1,6,-1
 308 1237 l 1,7,-1
 308 188 l 1,4,-1
EndSplineSet
Validated: 1
EndChar

StartChar: exclam
Encoding: 33 33 4
Width: 752
GlyphClass: 2
Flags: W
HStem: -20 383<254.934 496.782> 1490 20G<220 532>
VStem: 187 377<48.8853 296.279> 220 312<476 1510>
LayerCount: 2
Fore
SplineSet
220 476 m 1,0,-1
 220 1510 l 1,1,-1
 532 1510 l 1,2,-1
 532 476 l 1,3,-1
 220 476 l 1,0,-1
374 -20 m 128,-1,5
 294 -20 294 -20 241 38 c 0,6,7
 187 95 187 95 187 174.5 c 128,-1,8
 187 254 187 254 242.5 308.5 c 128,-1,9
 298 363 298 363 378 363 c 0,10,11
 460 363 460 363 512 309 c 128,-1,12
 564 255 564 255 564 173 c 0,13,14
 564 90 564 90 510 36 c 0,15,4
 454 -20 454 -20 374 -20 c 128,-1,5
EndSplineSet
Validated: 1
EndChar

StartChar: quotedbl
Encoding: 34 34 5
Width: 687
GlyphClass: 2
Flags: W
HStem: 1000 510<20 280 407 667>
VStem: 20 260<1000 1510> 407 260<1000 1510>
LayerCount: 2
Fore
SplineSet
407 1510 m 1,0,-1
 667 1510 l 1,1,-1
 667 1000 l 1,2,-1
 407 1000 l 1,3,-1
 407 1510 l 1,0,-1
20 1510 m 1,4,-1
 280 1510 l 1,5,-1
 280 1000 l 1,6,-1
 20 1000 l 1,7,-1
 20 1510 l 1,4,-1
EndSplineSet
Validated: 1
EndChar

StartChar: numbersign
Encoding: 35 35 6
Width: 1462
GlyphClass: 2
Flags: W
HStem: 433 230<172 417 647 815 1045 1292> 831 230<170 417 647 815 1045 1290>
VStem: 417 230<186 433 663 831 1061 1306> 815 230<188 433 663 831 1061 1308>
LayerCount: 2
Fore
SplineSet
417 1306 m 1,0,-1
 647 1306 l 1,1,-1
 647 1061 l 1,2,-1
 815 1061 l 1,3,-1
 815 1308 l 1,4,-1
 1045 1308 l 1,5,-1
 1045 1061 l 1,6,-1
 1290 1061 l 1,7,-1
 1290 831 l 1,8,-1
 1045 831 l 1,9,-1
 1045 663 l 1,10,-1
 1292 663 l 1,11,-1
 1292 433 l 1,12,-1
 1045 433 l 1,13,-1
 1045 188 l 1,14,-1
 815 188 l 1,15,-1
 815 433 l 1,16,-1
 647 433 l 1,17,-1
 647 186 l 1,18,-1
 417 186 l 1,19,-1
 417 433 l 1,20,-1
 172 433 l 1,21,-1
 172 663 l 1,22,-1
 417 663 l 1,23,-1
 417 831 l 1,24,-1
 170 831 l 1,25,-1
 170 1061 l 1,26,-1
 417 1061 l 1,27,-1
 417 1306 l 1,0,-1
815 831 m 1,28,-1
 647 831 l 1,29,-1
 647 663 l 1,30,-1
 815 663 l 1,31,-1
 815 831 l 1,28,-1
EndSplineSet
Validated: 1
EndChar

StartChar: dollar
Encoding: 36 36 7
Width: 1327
GlyphClass: 2
Flags: W
HStem: -20 300<464.417 662>
VStem: 266 314<1074.81 1219.23> 662 150<-180 -20 319 632 1046 1215 1524.39 1690> 917 320<370.386 587.756>
LayerCount: 2
Fore
SplineSet
610 -20 m 2,0,1
 287 -20 287 -20 70 274 c 1,2,-1
 314 447 l 1,3,4
 452 280 452 280 648 280 c 2,5,6
 662 280 l 1,7,-1
 662 695 l 1,8,-1
 624 711 l 2,9,10
 266 862 266 862 266 1147 c 0,11,12
 266 1332 266 1332 423 1448 c 0,13,14
 518 1519 518 1519 662 1529 c 1,15,-1
 662 1690 l 1,16,-1
 812 1690 l 1,17,-1
 812 1519 l 1,18,19
 985 1483 985 1483 1125 1323 c 1,20,-1
 903 1141 l 1,21,22
 864 1192 864 1192 812 1215 c 1,23,-1
 812 979 l 1,24,-1
 903 941 l 2,25,26
 1237 802 1237 802 1237 484 c 0,27,28
 1237 307 1237 307 1098 156 c 0,29,30
 991 40 991 40 812 0 c 1,31,-1
 812 -180 l 1,32,-1
 662 -180 l 1,33,-1
 662 -20 l 1,34,35
 610 -20 l 2,0,1
812 319 m 1,36,37
 829 330 829 330 844 342 c 0,38,39
 917 404 917 404 917 487 c 0,40,41
 917 576 917 576 812 632 c 1,42,-1
 812 319 l 1,36,37
662 1231 m 1,43,44
 580 1216 580 1216 580 1146 c 0,45,46
 580 1094 580 1094 662 1046 c 1,47,-1
 662 1231 l 1,43,44
EndSplineSet
Validated: 1
EndChar

StartChar: percent
Encoding: 37 37 8
Width: 1721
GlyphClass: 2
Flags: W
HStem: -20 221<1173.9 1351.16> 439 224<1174.84 1352.13> 847 221<367.787 544.301> 1306 224<368.836 545.863>
VStem: 120 216<1100.73 1273.29> 577 217<1100.3 1274.79> 926 216<233.728 406.289> 1384 217<233.302 407.562>
DStem2: 226 130 428 -24 0.601626 0.798778<0 1757.4>
LayerCount: 2
Fore
SplineSet
1263 439 m 128,-1,1
 1212 439 1212 439 1177 404 c 128,-1,2
 1142 369 1142 369 1142 320 c 128,-1,3
 1142 271 1142 271 1177 236 c 128,-1,4
 1212 201 1212 201 1263 201 c 128,-1,5
 1314 201 1314 201 1349 237 c 128,-1,6
 1384 273 1384 273 1384 322 c 128,-1,7
 1384 371 1384 371 1349 405 c 128,-1,0
 1314 439 1314 439 1263 439 c 128,-1,1
1262 -20 m 128,-1,9
 1120 -20 1120 -20 1023 81 c 128,-1,10
 926 182 926 182 926 322 c 128,-1,11
 926 462 926 462 1024 563 c 0,12,13
 1122 663 1122 663 1264 663 c 128,-1,14
 1406 663 1406 663 1503.5 561 c 128,-1,15
 1601 459 1601 459 1601 320 c 0,16,17
 1601 180 1601 180 1502 80 c 0,18,8
 1404 -20 1404 -20 1262 -20 c 128,-1,9
457 1306 m 128,-1,20
 406 1306 406 1306 371 1271 c 128,-1,21
 336 1236 336 1236 336 1187 c 128,-1,22
 336 1138 336 1138 371 1103 c 128,-1,23
 406 1068 406 1068 456.5 1068 c 128,-1,24
 507 1068 507 1068 542 1104 c 128,-1,25
 577 1140 577 1140 577 1189 c 128,-1,26
 577 1238 577 1238 542.5 1272 c 128,-1,19
 508 1306 508 1306 457 1306 c 128,-1,20
458 1530 m 128,-1,28
 600 1530 600 1530 697 1428 c 0,29,30
 794 1327 794 1327 794 1187 c 128,-1,31
 794 1047 794 1047 695.5 947 c 128,-1,32
 597 847 597 847 455.5 847 c 128,-1,33
 314 847 314 847 217 948 c 128,-1,34
 120 1049 120 1049 120 1189 c 128,-1,35
 120 1329 120 1329 218 1430 c 0,36,27
 316 1530 316 1530 458 1530 c 128,-1,28
428 -24 m 1,37,-1
 226 130 l 1,38,-1
 1283 1534 l 1,39,-1
 1493 1390 l 1,40,-1
 428 -24 l 1,37,-1
EndSplineSet
Validated: 1
EndChar

StartChar: ampersand
Encoding: 38 38 9
Width: 1661
GlyphClass: 2
Flags: W
HStem: -20 289<517.028 890.48> 0 21G<1169.73 1541> 1245 285<577.863 891.931>
VStem: 120 301<358.879 601.015> 220 297<992.47 1191.84> 1184 357<0 357> 1200 277<651 928>
DStem2: 841 928 685 668 0.6022 -0.798345<82.566 421.203 587.644 947.419>
LayerCount: 2
Fore
SplineSet
1541 0 m 1,0,-1
 1184 0 l 1,1,-1
 975 293 l 1,2,-1
 980 42 l 1,3,4
 854 -20 854 -20 709 -20 c 0,5,6
 441 -20 441 -20 280.5 116.5 c 128,-1,7
 120 253 120 253 120 459 c 0,8,9
 120 720 120 720 363 834 c 1,10,11
 220 946 220 946 220 1122 c 128,-1,12
 220 1298 220 1298 383 1427 c 0,13,14
 514 1530 514 1530 715 1530 c 0,15,16
 959 1530 959 1530 1109 1350 c 1,17,-1
 888 1160 l 1,18,19
 824 1245 824 1245 714 1245 c 0,20,21
 632 1245 632 1245 580 1207 c 0,22,23
 517 1161 517 1161 517 1094 c 0,24,25
 517 1024 517 1024 578 977 c 0,26,27
 642 928 642 928 765 928 c 2,28,-1
 841 928 l 1,29,-1
 1095 592 l 1,30,31
 1161 744 1161 744 1200 928 c 1,32,-1
 1477 928 l 1,33,34
 1428 698 1428 698 1334 483 c 1,35,-1
 1175 483 l 1,36,-1
 1541 0 l 1,0,-1
685 668 m 1,37,38
 421 668 421 668 421 478 c 0,39,40
 421 387 421 387 496 328 c 0,41,42
 570 269 570 269 705.5 269 c 128,-1,43
 841 269 841 269 937 344 c 1,44,-1
 685 668 l 1,37,38
EndSplineSet
Validated: 1
EndChar

StartChar: quotesingle
Encoding: 39 39 10
Width: 300
GlyphClass: 2
Flags: W
HStem: 1000 510<20 280>
VStem: 20 260<1000 1510>
LayerCount: 2
Fore
SplineSet
20 1510 m 1,0,-1
 280 1510 l 1,1,-1
 280 1000 l 1,2,-1
 20 1000 l 1,3,-1
 20 1510 l 1,0,-1
EndSplineSet
Validated: 1
EndChar

StartChar: parenleft
Encoding: 40 40 11
Width: 963
GlyphClass: 2
Flags: W
VStem: 170 300<395.671 1120.05> 527 316<-309 7 1504 1820>
LayerCount: 2
Fore
SplineSet
843 -309 m 1,0,1
 527 -309 l 1,2,3
 170 194 170 194 170 757 c 0,4,5
 170 1319 170 1319 527 1820 c 1,6,-1
 843 1820 l 1,7,8
 470 1286 470 1286 470 756 c 0,9,10
 470 240 470 240 843 -309 c 1,0,1
EndSplineSet
Validated: 1
EndChar

StartChar: parenright
Encoding: 41 41 12
Width: 963
GlyphClass: 2
Flags: W
VStem: 120 316<-309 7 1504 1820> 493 300<395.671 1120.05>
LayerCount: 2
Fore
SplineSet
120 -309 m 1,0,1
 493 240 493 240 493 756 c 0,2,3
 493 1286 493 1286 120 1820 c 1,4,-1
 436 1820 l 1,5,6
 793 1319 793 1319 793 757 c 0,7,8
 793 194 793 194 436 -309 c 1,9,-1
 120 -309 l 1,0,1
EndSplineSet
Validated: 1
EndChar

StartChar: asterisk
Encoding: 42 42 13
Width: 1136
GlyphClass: 2
Flags: W
HStem: 1490 20G<453 683>
VStem: 453 230<609 860 1259 1510>
DStem2: 235 1384 120 1185 0.866463 -0.499242<0 251 649.778 901.072> 120 934 235 735 0.866463 0.499242<0.293998 251.588 650.366 901.366>
LayerCount: 2
Fore
SplineSet
453 1510 m 1,0,-1
 683 1510 l 1,1,-1
 683 1259 l 1,2,-1
 901 1384 l 1,3,-1
 1016 1185 l 1,4,-1
 798 1060 l 1,5,-1
 1016 934 l 1,6,-1
 901 735 l 1,7,-1
 683 860 l 1,8,-1
 683 609 l 1,9,-1
 453 609 l 1,10,-1
 453 860 l 1,11,-1
 235 735 l 1,12,-1
 120 934 l 1,13,-1
 338 1060 l 1,14,-1
 120 1185 l 1,15,-1
 235 1384 l 1,16,-1
 453 1259 l 1,17,-1
 453 1510 l 1,0,-1
EndSplineSet
Validated: 1
EndChar

StartChar: plus
Encoding: 43 43 14
Width: 1193
GlyphClass: 2
Flags: W
HStem: 593 302<120 446 746 1073>
VStem: 446 300<266 593 895 1222>
LayerCount: 2
Fore
SplineSet
446 1222 m 1,0,-1
 746 1222 l 1,1,-1
 746 895 l 1,2,-1
 1073 895 l 1,3,-1
 1073 593 l 1,4,-1
 746 593 l 1,5,-1
 746 266 l 1,6,-1
 446 266 l 1,7,-1
 446 593 l 1,8,-1
 120 593 l 1,9,-1
 120 895 l 1,10,-1
 446 895 l 1,11,-1
 446 1222 l 1,0,-1
EndSplineSet
Validated: 1
EndChar

StartChar: comma
Encoding: 44 44 15
Width: 434
GlyphClass: 2
Flags: W
VStem: 157 257<-101.439 104.049>
LayerCount: 2
Fore
SplineSet
211 351 m 1,0,1
 414 197 414 197 414 -8 c 128,-1,2
 414 -213 414 -213 169 -374 c 1,3,-1
 20 -155 l 1,4,5
 157 -105 157 -105 157 -2.5 c 128,-1,6
 157 100 157 100 52 144 c 1,7,-1
 211 351 l 1,0,1
EndSplineSet
Validated: 1
EndChar

StartChar: hyphen
Encoding: 45 45 16
Width: 1193
GlyphClass: 2
Flags: W
HStem: 593 302<120 1073>
LayerCount: 2
Fore
SplineSet
120 895 m 1,0,-1
 1073 895 l 1,1,-1
 1073 593 l 1,2,-1
 120 593 l 1,3,-1
 120 895 l 1,0,-1
EndSplineSet
Validated: 1
EndChar

StartChar: period
Encoding: 46 46 17
Width: 417
GlyphClass: 2
Flags: W
HStem: -20 383<87.9337 329.782>
VStem: 20 377<48.8853 296.279>
LayerCount: 2
Fore
SplineSet
207 -20 m 128,-1,1
 127 -20 127 -20 74 38 c 0,2,3
 20 95 20 95 20 174.5 c 128,-1,4
 20 254 20 254 75.5 308.5 c 128,-1,5
 131 363 131 363 211 363 c 0,6,7
 293 363 293 363 345 309 c 128,-1,8
 397 255 397 255 397 173 c 0,9,10
 397 90 397 90 343 36 c 0,11,0
 287 -20 287 -20 207 -20 c 128,-1,1
EndSplineSet
Validated: 1
EndChar

StartChar: slash
Encoding: 47 47 18
Width: 1175
GlyphClass: 2
Flags: W
DStem2: 10 -144 245 -262 0.433037 0.901376<0 2119.93>
LayerCount: 2
Fore
SplineSet
929 1769 m 1,0,-1
 1165 1653 l 1,1,-1
 245 -262 l 1,2,-1
 10 -144 l 1,3,-1
 929 1769 l 1,0,-1
EndSplineSet
Validated: 1
EndChar

StartChar: one
Encoding: 49 49 19
Width: 825
GlyphClass: 2
Flags: W
HStem: 0 21G<285 605> 1210 300<20 271.851>
VStem: 285 320<0 1194.7>
LayerCount: 2
Fore
SplineSet
285 0 m 1,0,-1
 285 1119 l 2,1,2
 285 1210 285 1210 185 1210 c 2,3,-1
 20 1210 l 1,4,-1
 20 1510 l 1,5,-1
 185 1510 l 2,6,7
 605 1510 605 1510 605 1139 c 2,8,-1
 605 0 l 1,9,-1
 285 0 l 1,0,-1
EndSplineSet
Validated: 1
EndChar

StartChar: two
Encoding: 50 50 20
Width: 1256
GlyphClass: 2
Flags: W
HStem: 0 320<465 1136> 1230 300<434.635 744.032>
VStem: 811 320<927.902 1163.99>
LayerCount: 2
Fore
SplineSet
70 0 m 1,0,1
 70 440 70 440 591 772 c 0,2,3
 811 912 811 912 811 1045 c 0,4,5
 811 1129 811 1129 752 1180 c 0,6,7
 693 1230 693 1230 594 1230 c 0,8,9
 420 1230 420 1230 321 1061 c 1,10,-1
 74 1236 l 1,11,12
 284 1530 284 1530 608 1530 c 0,13,14
 838 1530 838 1530 984.5 1390 c 128,-1,15
 1131 1250 1131 1250 1131 1049 c 0,16,17
 1131 744 1131 744 736 522 c 0,18,19
 536 410 536 410 465 320 c 1,20,-1
 1136 320 l 1,21,-1
 1136 0 l 1,22,-1
 70 0 l 1,0,1
EndSplineSet
Validated: 1
EndChar

StartChar: three
Encoding: 51 51 21
Width: 1292
GlyphClass: 2
Flags: W
HStem: -20 300<381.893 761.046> 670 302<459 680.421> 1233 297<438.388 699.955>
VStem: 725 302<1018.55 1207.34> 851 321<359.309 597.997>
LayerCount: 2
Fore
SplineSet
554 -20 m 0,0,1
 263 -20 263 -20 70 174 c 1,2,-1
 290 379 l 1,3,4
 430 280 430 280 572 280 c 0,5,6
 718 280 718 280 794 347 c 0,7,8
 851 397 851 397 851 478 c 0,9,10
 851 670 851 670 560 670 c 2,11,-1
 459 670 l 1,12,-1
 459 972 l 1,13,-1
 560 972 l 2,14,15
 630 972 630 972 677.5 1014 c 128,-1,16
 725 1056 725 1056 725 1110 c 0,17,18
 725 1233 725 1233 582 1233 c 0,19,20
 463 1233 463 1233 401 1152 c 1,21,-1
 185 1340 l 1,22,23
 350 1530 350 1530 572 1530 c 0,24,25
 757 1530 757 1530 892 1419.5 c 128,-1,26
 1027 1309 1027 1309 1027 1148.5 c 128,-1,27
 1027 988 1027 988 886 869 c 1,28,29
 999 833 999 833 1072 756 c 0,30,31
 1172 650 1172 650 1172 464.5 c 128,-1,32
 1172 279 1172 279 1018 142 c 0,33,34
 836 -20 836 -20 554 -20 c 0,0,1
EndSplineSet
Validated: 1
EndChar

StartChar: four
Encoding: 52 52 22
Width: 1268
GlyphClass: 2
Flags: W
HStem: 0 21G<778 1098> 255 302<403.002 658> 1080 20G<778 1098> 1490 20G<451.562 803>
VStem: 70 333<379 662.683> 778 320<0 1100>
DStem2: 460 1510 407 571 0.388583 0.921414<-897.289 0>
LayerCount: 2
Fore
SplineSet
460 1510 m 1,0,-1
 803 1510 l 1,1,-1
 407 571 l 2,2,3
 403 562 403 562 403 560 c 0,4,5
 403 557 403 557 410 557 c 2,6,-1
 658 557 l 1,7,-1
 658 255 l 1,8,-1
 389 255 l 2,9,10
 70 255 70 255 70 503 c 0,11,12
 70 586 70 586 117 697 c 2,13,-1
 460 1510 l 1,0,-1
1098 0 m 1,14,-1
 778 0 l 1,15,-1
 778 1100 l 1,16,-1
 1098 1100 l 1,17,-1
 1098 0 l 1,14,-1
EndSplineSet
Validated: 1
EndChar

StartChar: five
Encoding: 53 53 23
Width: 1320
GlyphClass: 2
Flags: W
HStem: -20 301<432.664 791.344> 669 302<563 795.266> 1210 300<576.149 1057>
VStem: 243 320<971 1198.73> 880 320<362.667 594.373>
LayerCount: 2
Fore
SplineSet
612 -20 m 0,0,1
 313 -20 313 -20 120 174 c 1,2,-1
 340 379 l 1,3,4
 477 281 477 281 613.5 281 c 128,-1,5
 750 281 750 281 826 351 c 0,6,7
 880 401 880 401 880 489 c 0,8,9
 880 575 880 575 802 622 c 128,-1,10
 724 669 724 669 580 669 c 2,11,-1
 243 669 l 1,12,-1
 243 1131 l 2,13,14
 243 1510 243 1510 663 1510 c 2,15,-1
 1057 1510 l 1,16,-1
 1057 1210 l 1,17,-1
 663 1210 l 2,18,19
 563 1210 563 1210 563 1128 c 2,20,-1
 563 971 l 1,21,-1
 602 971 l 2,22,23
 843 971 843 971 992 870 c 0,24,25
 1200 729 1200 729 1200 515 c 128,-1,26
 1200 301 1200 301 1070 159 c 0,27,28
 904 -20 904 -20 612 -20 c 0,0,1
EndSplineSet
Validated: 1
EndChar

StartChar: six
Encoding: 54 54 24
Width: 1456
GlyphClass: 2
Flags: W
HStem: -20 300<564.856 897.791> 1490 20G<575.5 1108>
VStem: 120 320<399.57 758.948> 1016 320<392.475 715.555>
DStem2: 362 1171 666 1044 0.679526 0.733652<-165.548 440.697>
LayerCount: 2
Fore
SplineSet
726 -20 m 128,-1,1
 478 -20 478 -20 310 127 c 0,2,3
 120 293 120 293 120 552 c 0,4,5
 120 853 120 853 362 1171 c 0,6,7
 496 1347 496 1347 655 1510 c 1,8,-1
 1108 1510 l 1,9,10
 860 1278 860 1278 666 1044 c 0,11,12
 440 770 440 770 440 563 c 0,13,14
 440 428 440 428 526 353 c 0,15,16
 610 280 610 280 736 280 c 0,17,18
 861 280 861 280 939 354 c 0,19,20
 1016 426 1016 426 1016 556 c 128,-1,21
 1016 686 1016 686 936 753 c 0,22,23
 869 810 869 810 763 831 c 1,24,-1
 763 1128 l 1,25,26
 1007 1128 1007 1128 1156 981 c 0,27,28
 1336 805 1336 805 1336 549 c 0,29,30
 1336 292 1336 292 1156 137 c 0,31,0
 974 -20 974 -20 726 -20 c 128,-1,1
EndSplineSet
Validated: 1
EndChar

StartChar: seven
Encoding: 55 55 25
Width: 1056
GlyphClass: 2
Flags: W
HStem: 0 21G<10 383.229> 1210 300<17 690>
DStem2: 10 0 372 0 0.489919 0.871768<177.351 1387.98>
LayerCount: 2
Fore
SplineSet
10 0 m 1,0,-1
 690 1210 l 1,1,-1
 17 1210 l 1,2,-1
 17 1510 l 1,3,-1
 698 1510 l 2,4,5
 1036 1510 1036 1510 1036 1262 c 0,6,7
 1036 1183 1036 1183 966 1058 c 2,8,-1
 372 0 l 1,9,-1
 10 0 l 1,0,-1
EndSplineSet
Validated: 1
EndChar

StartChar: eight
Encoding: 56 56 26
Width: 1371
GlyphClass: 2
Flags: W
HStem: -20 300<516.547 860.258> 1238 292<566.537 807.2>
VStem: 120 309<360.102 603.399> 217 308<1029.09 1200.94> 848 305<1008.21 1200.98> 942 309<353.327 559.321>
LayerCount: 2
Fore
SplineSet
688 -20 m 0,0,1
 423 -20 423 -20 271.5 123 c 128,-1,2
 120 266 120 266 120 450 c 0,3,4
 120 594 120 594 226 689 c 1,5,-1
 581 689 l 1,6,7
 429 610 429 610 429 477 c 0,8,9
 429 389 429 389 500 334 c 0,10,11
 572 280 572 280 686 280 c 0,12,13
 803 280 803 280 872 331 c 0,14,15
 942 383 942 383 942 464 c 0,16,17
 942 568 942 568 782 634 c 0,18,19
 593 707 l 0,20,21
 392 788 392 788 313 872 c 0,22,23
 217 974 217 974 217 1121 c 0,24,25
 217 1296 217 1296 359 1413 c 0,26,27
 502 1530 502 1530 692 1530 c 128,-1,28
 882 1530 882 1530 1018 1418 c 0,29,30
 1153 1306 1153 1306 1153 1135 c 0,31,32
 1153 1036 1153 1036 1082 964 c 1,33,-1
 749 964 l 1,34,35
 848 1027 848 1027 848 1108 c 0,36,37
 848 1167 848 1167 805 1201 c 0,38,39
 758 1238 758 1238 690 1238 c 0,40,41
 620 1238 620 1238 570 1203 c 0,42,43
 525 1172 525 1172 525 1120 c 0,44,45
 525 1011 525 1011 723 952 c 24,46,47
 1251 795 1251 795 1251 456 c 0,48,49
 1251 277 1251 277 1113 139 c 0,50,51
 952 -20 952 -20 688 -20 c 0,0,1
EndSplineSet
Validated: 1
EndChar

StartChar: nine
Encoding: 57 57 27
Width: 1456
GlyphClass: 2
Flags: W
HStem: 0 21G<348 880.5> 1230 300<558.209 891.144>
VStem: 120 320<794.445 1117.52> 1016 320<751.052 1110.43>
DStem2: 348 0 801 0 0.66092 0.750456<299.397 1000.35>
LayerCount: 2
Fore
SplineSet
348 0 m 1,0,1
 596 232 596 232 790 466 c 0,2,3
 1016 740 1016 740 1016 947 c 0,4,5
 1016 1082 1016 1082 930 1157 c 0,6,7
 846 1230 846 1230 720 1230 c 0,8,9
 595 1230 595 1230 517 1156 c 0,10,11
 440 1084 440 1084 440 954 c 128,-1,12
 440 824 440 824 520 757 c 0,13,14
 587 700 587 700 693 679 c 1,15,-1
 693 382 l 1,16,17
 449 382 449 382 300 529 c 0,18,19
 120 705 120 705 120 961 c 0,20,21
 120 1218 120 1218 300 1373 c 0,22,23
 482 1530 482 1530 730 1530 c 128,-1,24
 978 1530 978 1530 1146 1383 c 0,25,26
 1336 1217 1336 1217 1336 958 c 0,27,28
 1336 657 1336 657 1094 339 c 0,29,30
 960 163 960 163 801 0 c 1,31,-1
 348 0 l 1,0,1
EndSplineSet
Validated: 1
EndChar

StartChar: colon
Encoding: 58 58 28
Width: 417
GlyphClass: 2
Flags: W
HStem: -20 383<87.9337 329.782> 563 383<87.9337 329.782>
VStem: 20 377<48.8853 296.279 631.885 879.279>
LayerCount: 2
Fore
SplineSet
211 946 m 0,0,1
 293 946 293 946 345 892 c 128,-1,2
 397 838 397 838 397 756 c 0,3,4
 397 673 397 673 343 619 c 0,5,6
 287 563 287 563 207 563 c 128,-1,7
 127 563 127 563 74 621 c 0,8,9
 20 678 20 678 20 757.5 c 128,-1,10
 20 837 20 837 75.5 891.5 c 128,-1,11
 131 946 131 946 211 946 c 0,0,1
207 -20 m 128,-1,13
 127 -20 127 -20 74 38 c 0,14,15
 20 95 20 95 20 174.5 c 128,-1,16
 20 254 20 254 75.5 308.5 c 128,-1,17
 131 363 131 363 211 363 c 0,18,19
 293 363 293 363 345 309 c 128,-1,20
 397 255 397 255 397 173 c 0,21,22
 397 90 397 90 343 36 c 0,23,12
 287 -20 287 -20 207 -20 c 128,-1,13
EndSplineSet
Validated: 1
EndChar

StartChar: semicolon
Encoding: 59 59 29
Width: 434
GlyphClass: 2
Flags: W
HStem: 563 383<87.9337 329.782>
VStem: 20 377<631.885 879.279> 157 257<-101.439 104.049>
LayerCount: 2
Fore
SplineSet
211 351 m 1,0,1
 414 197 414 197 414 -8 c 128,-1,2
 414 -213 414 -213 169 -374 c 1,3,-1
 20 -155 l 1,4,5
 157 -105 157 -105 157 -2.5 c 128,-1,6
 157 100 157 100 52 144 c 1,7,-1
 211 351 l 1,0,1
207 563 m 128,-1,9
 127 563 127 563 74 621 c 0,10,11
 20 678 20 678 20 757.5 c 128,-1,12
 20 837 20 837 75.5 891.5 c 128,-1,13
 131 946 131 946 211 946 c 0,14,15
 293 946 293 946 345 892 c 128,-1,16
 397 838 397 838 397 756 c 0,17,18
 397 673 397 673 343 619 c 0,19,8
 287 563 287 563 207 563 c 128,-1,9
EndSplineSet
Validated: 1
EndChar

StartChar: less
Encoding: 60 60 30
Width: 1234
GlyphClass: 2
Flags: W
DStem2: 120 868 477 744 0.855787 0.517328<241.367 927.366> 477 744 120 619 0.865233 -0.50137<0 676.627>
LayerCount: 2
Fore
SplineSet
919 1351 m 1,0,-1
 1064 1099 l 1,1,-1
 477 744 l 1,2,-1
 1062 404 l 1,3,-1
 938 145 l 1,4,-1
 120 619 l 1,5,-1
 120 868 l 1,6,-1
 919 1351 l 1,0,-1
EndSplineSet
Validated: 1
EndChar

StartChar: equal
Encoding: 61 61 31
Width: 1193
GlyphClass: 2
Flags: W
HStem: 370 271<120 1073> 838 271<120 1073>
LayerCount: 2
Fore
SplineSet
120 641 m 1,0,-1
 1073 641 l 1,1,-1
 1073 370 l 1,2,-1
 120 370 l 1,3,-1
 120 641 l 1,0,-1
120 1109 m 1,4,-1
 1073 1109 l 1,5,-1
 1073 838 l 1,6,-1
 120 838 l 1,7,-1
 120 1109 l 1,4,-1
EndSplineSet
Validated: 1
EndChar

StartChar: greater
Encoding: 62 62 32
Width: 1233
GlyphClass: 2
Flags: W
DStem2: 170 424 297 146 0.86516 0.501496<0 677.492>
LayerCount: 2
Fore
SplineSet
315 1371 m 1,0,-1
 1113 887 l 1,1,-1
 1113 619 l 1,2,-1
 297 146 l 1,3,-1
 170 424 l 1,4,-1
 756 764 l 1,5,-1
 170 1103 l 1,6,-1
 315 1371 l 1,0,-1
EndSplineSet
Validated: 1
EndChar

StartChar: question
Encoding: 63 63 33
Width: 1273
GlyphClass: 2
Flags: W
HStem: -20 383<489.934 731.782> 1230 300<458.463 758.891>
VStem: 422 377<48.8853 296.279> 831 322<920.275 1160.48>
LayerCount: 2
Fore
SplineSet
609 -20 m 128,-1,1
 529 -20 529 -20 476 38 c 0,2,3
 422 95 422 95 422 174.5 c 128,-1,4
 422 254 422 254 477.5 308.5 c 128,-1,5
 533 363 533 363 613 363 c 0,6,7
 695 363 695 363 747 309 c 128,-1,8
 799 255 799 255 799 173 c 0,9,10
 799 90 799 90 745 36 c 0,11,0
 689 -20 689 -20 609 -20 c 128,-1,1
602 1530 m 0,12,13
 855 1530 855 1530 1004 1392 c 0,14,15
 1153 1253 1153 1253 1153 1060 c 0,16,17
 1153 840 1153 840 921 674 c 0,18,19
 758 558 758 558 757 476 c 1,20,-1
 477 476 l 1,21,22
 480 670 480 670 723 857 c 0,23,24
 831 940 831 940 831 1042 c 0,25,26
 831 1127 831 1127 771 1177 c 0,27,28
 708 1230 708 1230 611 1230 c 0,29,30
 446 1230 446 1230 338 1063 c 1,31,-1
 90 1236 l 1,32,33
 333 1530 333 1530 602 1530 c 0,12,13
EndSplineSet
Validated: 1
EndChar

StartChar: at
Encoding: 64 64 34
Width: 1556
GlyphClass: 2
Flags: W
HStem: -430 270<627.28 788> -20 270<884.203 1082.12> 990 269<613.156 949.718>
VStem: 170 290<10.5234 835.999> 548 291<291.16 487.603> 1096 290<262.117 846.052>
LayerCount: 2
Fore
SplineSet
788 -430 m 1,0,1
 528 -430 528 -430 360 -272 c 0,2,3
 170 -94 170 -94 170 180 c 2,4,-1
 170 651 l 2,5,6
 170 930 170 930 350 1095 c 0,7,8
 530 1259 530 1259 778.5 1259 c 128,-1,9
 1027 1259 1027 1259 1206 1100 c 0,10,11
 1386 939 1386 939 1386 679 c 2,12,-1
 1386 362 l 2,13,14
 1386 -20 1386 -20 1016 -20 c 0,15,16
 796 -20 796 -20 672 106 c 128,-1,17
 548 232 548 232 548 383 c 0,18,19
 548 564 548 564 678 675.5 c 128,-1,20
 808 787 808 787 996 787 c 1,21,-1
 996 521 l 1,22,23
 921 521 921 521 881 487 c 0,24,25
 839 451 839 451 839 387 c 0,26,27
 839 330 839 330 885 290 c 128,-1,28
 931 250 931 250 1005 250 c 0,29,30
 1096 250 1096 250 1096 370 c 2,31,-1
 1096 676 l 2,32,33
 1096 826 1096 826 1003 909 c 0,34,35
 911 990 911 990 779 990 c 0,36,37
 640 990 640 990 549 896 c 0,38,39
 460 804 460 804 460 651 c 2,40,-1
 460 180 l 2,41,42
 460 40 460 40 557 -62 c 0,43,44
 650 -160 650 -160 788 -160 c 1,45,-1
 788 -430 l 1,0,1
EndSplineSet
Validated: 1
EndChar

StartChar: A
Encoding: 65 65 35
Width: 1822
GlyphClass: 2
Flags: W
HStem: 0 21G<5 327.077 1473.92 1817> 458 302<532.969 1062> 1490 20G<755.942 1066.08>
DStem2: 5 0 317 0 0.45005 0.893003<140.416 664.431 1059 1436.45> 1056 1510 901 1157 0.45005 -0.893003<245.472 1541.06>
LayerCount: 2
Fore
SplineSet
5 0 m 1,0,-1
 226 438 l 2,1,2
 388 760 388 760 678 760 c 2,3,-1
 1062 760 l 1,4,-1
 1062 458 l 1,5,-1
 671 458 l 2,6,7
 548 458 548 458 514 391 c 2,8,-1
 317 0 l 1,9,-1
 5 0 l 1,0,-1
1817 0 m 1,10,-1
 1484 0 l 1,11,-1
 901 1157 l 1,12,-1
 731 820 l 1,13,-1
 419 820 l 1,14,-1
 766 1510 l 1,15,-1
 1056 1510 l 1,16,-1
 1817 0 l 1,10,-1
EndSplineSet
Validated: 1
EndChar

StartChar: B
Encoding: 66 66 36
Width: 1298
GlyphClass: 2
Flags: W
HStem: -20 300<610 823.751> 0 21G<170 490> 684 275<616 739.278> 1246 284<502.288 753.858>
VStem: 170 320<0 1225.3> 789 294<1006.28 1207.81> 920 308<366.529 606.576>
LayerCount: 2
Fore
SplineSet
170 0 m 1,0,-1
 170 1159 l 2,1,2
 170 1530 170 1530 590 1530 c 0,3,4
 818 1530 818 1530 950.5 1418 c 128,-1,5
 1083 1306 1083 1306 1083 1143 c 128,-1,6
 1083 980 1083 980 926 858 c 1,7,8
 1036 833 1036 833 1118 753 c 0,9,10
 1228 644 1228 644 1228 462 c 0,11,12
 1228 277 1228 277 1075 141 c 0,13,14
 894 -20 894 -20 610 -20 c 9,15,-1
 610 280 l 1,16,17
 784 280 784 280 852 342 c 128,-1,18
 920 404 920 404 920 484 c 0,19,20
 920 684 920 684 616 684 c 1,21,-1
 616 959 l 1,22,23
 686 959 686 959 741 1002 c 0,24,25
 789 1039 789 1039 789 1105 c 0,26,27
 789 1246 789 1246 607 1246 c 0,28,29
 490 1246 490 1246 490 1151 c 2,30,-1
 490 0 l 1,31,-1
 170 0 l 1,0,-1
EndSplineSet
Validated: 1
EndChar

StartChar: C
Encoding: 67 67 37
Width: 1474
GlyphClass: 2
Flags: W
HStem: -20 300<654.317 1064.98> 1230 300<654.908 1065.82>
VStem: 70 320<540.457 966.13>
LayerCount: 2
Fore
SplineSet
859 -20 m 0,0,1
 514 -20 514 -20 292 208 c 128,-1,2
 70 436 70 436 70 757 c 0,3,4
 70 1080 70 1080 284 1294 c 0,5,6
 521 1530 521 1530 862 1530 c 0,7,8
 1205 1530 1205 1530 1434 1293 c 1,9,-1
 1192 1097 l 1,10,11
 1056 1230 1056 1230 859 1230 c 0,12,13
 661 1230 661 1230 525 1097 c 0,14,15
 390 964 390 964 390 755 c 0,16,17
 390 544 390 544 526 412 c 0,18,19
 665 280 665 280 860 280 c 0,20,21
 1058 280 1058 280 1193 413 c 1,22,-1
 1425 208 l 1,23,24
 1203 -20 1203 -20 859 -20 c 0,0,1
EndSplineSet
Validated: 1
EndChar

StartChar: D
Encoding: 68 68 38
Width: 1675
GlyphClass: 2
Flags: W
HStem: -20 300<610 1019.13> 0 21G<170 490> 1230 300<503.149 1019.54>
VStem: 170 320<0 1214.7> 1285 320<545.857 968.986>
LayerCount: 2
Fore
SplineSet
170 0 m 1,0,-1
 170 1159 l 2,1,2
 170 1530 170 1530 590 1530 c 2,3,-1
 816 1530 l 2,4,5
 1159 1530 1159 1530 1391 1293 c 0,6,7
 1605 1074 1605 1074 1605 754 c 0,8,9
 1605 437 1605 437 1382.5 208.5 c 128,-1,10
 1160 -20 1160 -20 816 -20 c 2,11,-1
 610 -20 l 1,12,-1
 610 280 l 1,13,-1
 816 280 l 2,14,15
 1017 280 1017 280 1150 413 c 0,16,17
 1285 548 1285 548 1285 756.5 c 128,-1,18
 1285 965 1285 965 1149 1097.5 c 128,-1,19
 1013 1230 1013 1230 816 1230 c 2,20,-1
 590 1230 l 2,21,22
 490 1230 490 1230 490 1139 c 2,23,-1
 490 0 l 1,24,-1
 170 0 l 1,0,-1
EndSplineSet
Validated: 1
EndChar

StartChar: E
Encoding: 69 69 39
Width: 1238
GlyphClass: 2
Flags: W
HStem: 0 300<490 1168> 599 302<503.149 981> 1209 301<503.149 981>
VStem: 170 320<300 580.605 961 1191.3>
LayerCount: 2
Fore
SplineSet
981 1510 m 1,0,-1
 981 1209 l 1,1,-1
 590 1209 l 2,2,3
 490 1209 490 1209 490 1113 c 2,4,-1
 490 961 l 1,5,-1
 170 961 l 1,6,-1
 170 1135 l 2,7,8
 170 1510 170 1510 590 1510 c 2,9,-1
 981 1510 l 1,0,-1
170 0 m 1,10,-1
 170 524 l 2,11,12
 170 901 170 901 590 901 c 2,13,-1
 981 901 l 1,14,-1
 981 599 l 1,15,-1
 590 599 l 2,16,17
 490 599 490 599 490 504 c 2,18,-1
 490 300 l 1,19,-1
 1168 300 l 1,20,-1
 1168 0 l 1,21,-1
 170 0 l 1,10,-1
EndSplineSet
Validated: 1
EndChar

StartChar: F
Encoding: 70 70 40
Width: 1151
GlyphClass: 2
Flags: W
HStem: 0 21G<170 490> 599 302<503.149 981> 1209 301<503.149 981>
VStem: 170 320<0 579.755 961 1190.46>
LayerCount: 2
Fore
SplineSet
981 1510 m 1,0,-1
 981 1209 l 1,1,-1
 590 1209 l 2,2,3
 490 1209 490 1209 490 1112 c 2,4,-1
 490 961 l 1,5,-1
 170 961 l 1,6,-1
 170 1134 l 2,7,8
 170 1510 170 1510 590 1510 c 2,9,-1
 981 1510 l 1,0,-1
170 0 m 1,10,-1
 170 523 l 2,11,12
 170 901 170 901 590 901 c 2,13,-1
 981 901 l 1,14,-1
 981 599 l 1,15,-1
 590 599 l 2,16,17
 490 599 490 599 490 500 c 2,18,-1
 490 0 l 1,19,-1
 170 0 l 1,10,-1
EndSplineSet
Validated: 1
EndChar

StartChar: G
Encoding: 71 71 41
Width: 1676
GlyphClass: 2
Flags: W
HStem: -20 300<655.859 1172.85> 599 302<900 1186> 1230 300<654.908 1065.82>
VStem: 70 320<539.718 966.13> 1186 320<299.545 599>
LayerCount: 2
Fore
SplineSet
1086 -20 m 2,0,1
 860 -20 l 2,2,3
 514 -20 514 -20 292 208 c 128,-1,4
 70 436 70 436 70 757 c 0,5,6
 70 1080 70 1080 284 1294 c 0,7,8
 521 1530 521 1530 862 1530 c 0,9,10
 1205 1530 1205 1530 1434 1293 c 1,11,-1
 1192 1097 l 1,12,13
 1056 1230 1056 1230 859 1230 c 0,14,15
 661 1230 661 1230 525 1097 c 0,16,17
 390 964 390 964 390 755 c 0,18,19
 390 541 390 541 526 412 c 0,20,21
 665 280 665 280 860 280 c 2,22,-1
 1086 280 l 2,23,24
 1186 280 1186 280 1186 363 c 2,25,-1
 1186 599 l 1,26,-1
 900 599 l 1,27,-1
 900 901 l 1,28,-1
 1506 901 l 1,29,-1
 1506 356 l 2,30,31
 1506 -20 1506 -20 1086 -20 c 2,0,1
EndSplineSet
Validated: 1
EndChar

StartChar: H
Encoding: 72 72 42
Width: 1631
GlyphClass: 2
Flags: W
HStem: 0 21G<170 490 1141 1461> 599 302<503.149 1021> 1490 20G<170 490 1141 1461>
VStem: 170 320<0 580.605 961 1510> 1141 320<0 1510>
LayerCount: 2
Fore
SplineSet
1461 0 m 1,0,-1
 1141 0 l 1,1,-1
 1141 1510 l 1,2,-1
 1461 1510 l 1,3,-1
 1461 0 l 1,0,-1
170 961 m 1,4,-1
 170 1510 l 1,5,-1
 490 1510 l 1,6,-1
 490 961 l 1,7,-1
 170 961 l 1,4,-1
170 0 m 1,8,-1
 170 524 l 2,9,10
 170 901 170 901 590 901 c 2,11,-1
 1021 901 l 1,12,-1
 1021 599 l 1,13,-1
 590 599 l 2,14,15
 490 599 490 599 490 502 c 2,16,-1
 490 0 l 1,17,-1
 170 0 l 1,8,-1
EndSplineSet
Validated: 1
EndChar

StartChar: I
Encoding: 73 73 43
Width: 660
GlyphClass: 2
Flags: W
HStem: 0 21G<170 490> 1490 20G<170 490>
VStem: 170 320<0 1510>
LayerCount: 2
Fore
SplineSet
170 0 m 1,0,-1
 170 1510 l 1,1,-1
 490 1510 l 1,2,-1
 490 0 l 1,3,-1
 170 0 l 1,0,-1
EndSplineSet
Validated: 1
EndChar

StartChar: J
Encoding: 74 74 44
Width: 1228
GlyphClass: 2
Flags: W
HStem: -20 300<323.1 638.68> 1210 300<298 738>
VStem: 738 320<382.3 1210>
LayerCount: 2
Fore
SplineSet
481 -20 m 0,0,1
 218 -20 218 -20 5 193 c 1,2,-1
 209 415 l 1,3,4
 341 280 341 280 474 280 c 0,5,6
 610 280 610 280 681 361 c 0,7,8
 738 426 738 426 738 570 c 2,9,10
 738 1210 l 1,11,-1
 298 1210 l 1,12,-1
 298 1510 l 1,13,-1
 1058 1510 l 1,14,-1
 1058 560 l 2,15,16
 1058 293 1058 293 897 136 c 0,17,18
 737 -20 737 -20 481 -20 c 0,0,1
EndSplineSet
Validated: 1
EndChar

StartChar: K
Encoding: 75 75 45
Width: 1561
GlyphClass: 2
Flags: W
HStem: 0 21G<170 490 1049.3 1556> 1490 20G<170 490 1102.85 1450>
VStem: 170 320<0 1510> 1076 480<0 480> 1115 335<1175 1510>
DStem2: 610 679 851 539 0.525026 0.851086<7.37929 972.391> 851 539 610 349 0.794422 -0.607366<0 506.115>
LayerCount: 2
Fore
SplineSet
1556 0 m 1,0,-1
 1076 0 l 1,1,-1
 610 349 l 1,2,-1
 610 679 l 1,3,-1
 1115 1510 l 1,4,-1
 1450 1510 l 1,5,-1
 851 539 l 1,6,-1
 1556 0 l 1,0,-1
170 0 m 1,7,-1
 170 1510 l 1,8,-1
 490 1510 l 1,9,-1
 490 0 l 1,10,-1
 170 0 l 1,7,-1
EndSplineSet
Validated: 1
EndChar

StartChar: L
Encoding: 76 76 46
Width: 1078
GlyphClass: 2
Flags: W
HStem: 0 300<490 1068> 1490 20G<170 490>
VStem: 170 320<300 1510>
LayerCount: 2
Fore
SplineSet
170 0 m 1,0,-1
 170 1510 l 1,1,-1
 490 1510 l 1,2,-1
 490 300 l 1,3,-1
 1068 300 l 1,4,-1
 1068 0 l 1,5,-1
 170 0 l 1,0,-1
EndSplineSet
Validated: 1
EndChar

StartChar: M
Encoding: 77 77 47
Width: 1959
GlyphClass: 2
Flags: W
HStem: 0 21G<150 451.347 816.995 1141.14 1507.45 1809> 1490 20G<215 532.084 1391 1692.56>
VStem: 150 300<0 300> 1391 300<1210 1510> 1509 300<0 300>
DStem2: 150 0 450 0 0.0713174 0.997454<21.3952 825.204> 524 1510 215 1510 0.374565 -0.927201<0 426.678 648.967 1227.45> 984 372 1133 0 0.377145 0.926154<0 549.539> 1691 1510 1391 1510 0.0779082 -0.996961<0 481.215 712.915 1491.23>
LayerCount: 2
Fore
SplineSet
150 0 m 1,0,-1
 222 1007 l 1,1,-1
 418 1007 l 1,2,-1
 215 1510 l 1,3,-1
 524 1510 l 1,4,-1
 984 372 l 1,5,-1
 1242 1007 l 1,6,-1
 1431 1007 l 1,7,-1
 1391 1510 l 1,8,-1
 1691 1510 l 1,9,-1
 1809 0 l 1,10,-1
 1509 0 l 1,11,-1
 1449 776 l 1,12,-1
 1133 0 l 1,13,-1
 825 0 l 1,14,-1
 504 802 l 1,15,-1
 450 0 l 1,16,-1
 150 0 l 1,0,-1
EndSplineSet
Validated: 1
EndChar

StartChar: N
Encoding: 78 78 48
Width: 1718
GlyphClass: 2
Flags: W
HStem: 0 21G<169 490 1238.58 1548> 1490 20G<160 568.145 1228 1548>
VStem: 160 394<1116 1510> 169 321<0 1058> 1228 320<557 1510>
DStem2: 554 1510 160 1510 0.586352 -0.810056<0 292.004 328.619 1167.18>
LayerCount: 2
Fore
SplineSet
169 0 m 1,0,-1
 169 1088 l 1,1,-1
 469 1088 l 1,2,-1
 160 1510 l 1,3,-1
 554 1510 l 1,4,-1
 1228 557 l 1,5,-1
 1228 1510 l 1,6,-1
 1548 1510 l 1,7,-1
 1548 0 l 1,8,-1
 1253 0 l 1,9,-1
 490 1058 l 1,10,-1
 490 0 l 1,11,-1
 169 0 l 1,0,-1
EndSplineSet
Validated: 1
EndChar

StartChar: O
Encoding: 79 79 49
Width: 1718
GlyphClass: 2
Flags: W
HStem: -20 300<654.317 1064.98> 1230 300<654.908 1065.82>
VStem: 70 320<540.457 966.13> 1328 320<545.593 968.207>
LayerCount: 2
Fore
SplineSet
860 280 m 0,0,1
 1058 280 1058 280 1193 413 c 0,2,3
 1328 547 1328 547 1328 755.5 c 128,-1,4
 1328 964 1328 964 1192 1097 c 128,-1,5
 1056 1230 1056 1230 859 1230 c 0,6,7
 661 1230 661 1230 525 1097 c 0,8,9
 390 964 390 964 390 755 c 0,10,11
 390 544 390 544 526 412 c 0,12,13
 665 280 665 280 860 280 c 0,0,1
859 -20 m 0,14,15
 514 -20 514 -20 292 208 c 128,-1,16
 70 436 70 436 70 757 c 0,17,18
 70 1080 70 1080 284 1294 c 0,19,20
 521 1530 521 1530 862 1530 c 0,21,22
 1205 1530 1205 1530 1434 1293 c 0,23,24
 1648 1072 1648 1072 1648 754.5 c 128,-1,25
 1648 437 1648 437 1425 208 c 0,26,27
 1203 -20 1203 -20 859 -20 c 0,14,15
EndSplineSet
Validated: 1
EndChar

StartChar: P
Encoding: 80 80 50
Width: 1384
GlyphClass: 2
Flags: W
HStem: 0 21G<170 490> 332 303<610 829.506> 1230 300<500.981 837.492>
VStem: 170 320<0 1214.7> 994 320<785.824 1095.74>
LayerCount: 2
Fore
SplineSet
170 0 m 1,0,-1
 170 1159 l 2,1,2
 170 1530 170 1530 590 1530 c 0,3,4
 899 1529 899 1529 1085 1394 c 0,5,6
 1314 1225 1314 1225 1314 949 c 0,7,8
 1314 721 1314 721 1158 552 c 0,9,10
 953 332 953 332 610 332 c 9,11,-1
 610 635 l 1,12,13
 805 635 805 635 899 725 c 0,14,15
 994 815 994 815 994 947 c 128,-1,16
 994 1079 994 1079 891.5 1154 c 128,-1,17
 789 1229 789 1229 590 1230 c 0,18,19
 490 1230 490 1230 490 1139 c 2,20,-1
 490 0 l 1,21,-1
 170 0 l 1,0,-1
EndSplineSet
Validated: 1
EndChar

StartChar: Q
Encoding: 81 81 51
Width: 1718
GlyphClass: 2
Flags: W
HStem: -20 300<660.543 869> 0 21G<1112.63 1507> 1230 300<650.321 1065.73>
VStem: 70 320<539.718 966.13> 1327 321<544.198 968.057>
LayerCount: 2
Fore
SplineSet
1507 0 m 1,0,-1
 1128 0 l 1,1,-1
 703 553 l 1,2,-1
 1082 553 l 1,3,-1
 1191 411 l 17,4,5
 1327 546 1327 546 1327 755 c 128,-1,6
 1327 964 1327 964 1191.5 1097 c 128,-1,7
 1056 1230 1056 1230 859 1230 c 0,8,9
 661 1230 661 1230 525 1097 c 0,10,11
 390 964 390 964 390 755 c 0,12,13
 390 541 390 541 526 412 c 0,14,15
 665 280 665 280 869 280 c 1,16,-1
 869 -20 l 1,17,18
 515 -20 515 -20 292 208 c 0,19,20
 70 436 70 436 70 757 c 0,21,22
 70 1080 70 1080 284 1294 c 0,23,24
 522 1530 522 1530 862 1530 c 0,25,26
 1205 1530 1205 1530 1434 1293 c 0,27,28
 1648 1072 1648 1072 1648 754 c 0,29,30
 1648 434 1648 434 1425 208 c 0,31,32
 1403 186 1403 186 1380 165 c 1,33,-1
 1507 0 l 1,0,-1
EndSplineSet
Validated: 1
EndChar

StartChar: R
Encoding: 82 82 52
Width: 1527
GlyphClass: 2
Flags: W
HStem: 0 21G<170 490 1025.37 1522> 1230 300<500.981 837.984>
VStem: 170 320<0 1214.7> 994 320<785.824 1095.74>
LayerCount: 2
Fore
SplineSet
170 0 m 1,0,-1
 170 1159 l 2,1,2
 170 1530 170 1530 590 1530 c 0,3,4
 901 1530 901 1530 1085 1394 c 0,5,6
 1314 1225 1314 1225 1314 949 c 0,7,8
 1314 721 1314 721 1158 552 c 0,9,10
 1092 481 1092 481 963 420 c 1,11,-1
 1522 0 l 1,12,-1
 1052 0 l 1,13,-1
 610 332 l 1,14,-1
 610 635 l 1,15,16
 805 635 805 635 899 725 c 0,17,18
 994 815 994 815 994 947 c 128,-1,19
 994 1079 994 1079 891.5 1154 c 128,-1,20
 789 1229 789 1229 590 1230 c 0,21,22
 490 1230 490 1230 490 1139 c 2,23,-1
 490 0 l 1,24,-1
 170 0 l 1,0,-1
EndSplineSet
Validated: 1
EndChar

StartChar: S
Encoding: 83 83 53
Width: 1327
GlyphClass: 2
Flags: W
HStem: -20 300<462.856 817.356> 1235 295<593.418 851.68>
VStem: 266 314<1074 1215.96> 917 320<370.063 588.331>
DStem2: 730 1013 624 711 0.923235 -0.384236<-167.947 334.194>
LayerCount: 2
Fore
SplineSet
610 -20 m 0,0,1
 287 -20 287 -20 70 274 c 1,2,-1
 314 447 l 1,3,4
 452 280 452 280 648 280 c 0,5,6
 771 280 771 280 844 341.5 c 128,-1,7
 917 403 917 403 917 487 c 0,8,9
 917 590 917 590 777 648 c 2,10,-1
 624 711 l 2,11,12
 266 858 266 858 266 1147 c 0,13,14
 266 1332 266 1332 423 1448 c 0,15,16
 533 1530 533 1530 707 1530 c 0,17,18
 944 1530 944 1530 1125 1323 c 1,19,-1
 903 1141 l 1,20,21
 831 1235 831 1235 715 1235 c 0,22,23
 580 1235 580 1235 580 1146 c 0,24,25
 580 1075 580 1075 730 1013 c 2,26,-1
 903 941 l 2,27,28
 1237 802 1237 802 1237 484 c 0,29,30
 1237 307 1237 307 1098 156 c 0,31,32
 936 -20 936 -20 610 -20 c 0,0,1
EndSplineSet
Validated: 1
EndChar

StartChar: T
Encoding: 84 84 54
Width: 1210
GlyphClass: 2
Flags: W
HStem: 0 21G<446 766> 1210 300<10 386 779.149 1200>
VStem: 10 376<1210 1510> 446 320<0 1190.46>
LayerCount: 2
Fore
SplineSet
446 0 m 1,0,-1
 446 1134 l 2,1,2
 446 1510 446 1510 866 1510 c 2,3,-1
 1200 1510 l 1,4,-1
 1200 1209 l 1,5,-1
 866 1209 l 2,6,7
 766 1209 766 1209 766 1112 c 2,8,-1
 766 0 l 1,9,-1
 446 0 l 1,0,-1
10 1510 m 1,10,-1
 386 1510 l 1,11,-1
 386 1210 l 1,12,-1
 10 1210 l 1,13,-1
 10 1510 l 1,10,-1
EndSplineSet
Validated: 1
EndChar

StartChar: U
Encoding: 85 85 55
Width: 1634
GlyphClass: 2
Flags: W
HStem: -20 301<642.297 997.139> 1490 20G<170 490 1144 1464>
VStem: 170 320<425.151 1510> 1144 320<424.101 1510>
LayerCount: 2
Fore
SplineSet
817 -20 m 0,0,1
 522 -20 522 -20 347 158 c 0,2,3
 170 338 170 338 170 607 c 2,4,-1
 170 1510 l 1,5,-1
 490 1510 l 1,6,-1
 490 623 l 2,7,8
 490 465 490 465 557 391 c 0,9,10
 656 281 656 281 819 281 c 0,11,12
 985 281 985 281 1077 391 c 0,13,14
 1144 471 1144 471 1144 623 c 2,15,-1
 1144 1510 l 1,16,-1
 1464 1510 l 1,17,-1
 1464 607 l 2,18,19
 1464 336 1464 336 1286 157 c 0,20,21
 1110 -20 1110 -20 817 -20 c 0,0,1
EndSplineSet
Validated: 1
EndChar

StartChar: V
Encoding: 86 86 56
Width: 1716
GlyphClass: 2
Flags: W
HStem: 0 21G<745.066 1337> 1490 20G<5 358.941 951 1525.5>
VStem: 1326 320<799.505 1201.22>
DStem2: 349 1510 5 1510 0.44484 -0.89561<0 1332.25>
LayerCount: 2
Fore
SplineSet
755 0 m 1,0,-1
 5 1510 l 1,1,-1
 349 1510 l 1,2,-1
 942 317 l 1,3,4
 1326 709 1326 709 1326 1008 c 0,5,6
 1326 1308 1326 1308 951 1510 c 1,7,-1
 1405 1510 l 1,8,9
 1646 1284 1646 1284 1646 987 c 0,10,11
 1646 570 1646 570 1028 0 c 1,12,-1
 755 0 l 1,0,-1
EndSplineSet
Validated: 1
EndChar

StartChar: W
Encoding: 87 87 57
Width: 2262
GlyphClass: 2
Flags: W
HStem: 0 21G<745.066 1100 1291.07 1883> 1490 20G<5 359.934 551 904.941 1497 2071.5>
VStem: 1872 320<799.505 1201.22>
DStem2: 350 1510 5 1510 0.44484 -0.89561<0 1532.53> 895 1510 551 1510 0.44484 -0.89561<0 1332.25>
LayerCount: 2
Fore
SplineSet
1301 0 m 1,0,-1
 551 1510 l 1,1,-1
 895 1510 l 1,2,-1
 1488 317 l 1,3,4
 1872 709 1872 709 1872 1008 c 0,5,6
 1872 1308 1872 1308 1497 1510 c 1,7,-1
 1951 1510 l 1,8,9
 2192 1284 2192 1284 2192 987 c 0,10,11
 2192 570 2192 570 1574 0 c 1,12,-1
 1301 0 l 1,0,-1
755 0 m 1,13,-1
 5 1510 l 1,14,-1
 350 1510 l 1,15,-1
 1100 0 l 1,16,-1
 755 0 l 1,13,-1
EndSplineSet
Validated: 1
EndChar

StartChar: X
Encoding: 88 88 58
Width: 1687
GlyphClass: 2
Flags: W
HStem: 0 21G<135 517.185 1139.95 1553> 1490 20G<5 418.15 1299.85 1682>
VStem: 5 398<1112 1510> 135 367<0 367> 1155 398<0 398> 1315 367<1143 1510>
DStem2: 403 1510 5 1510 0.605884 -0.795553<0 755.206 846.795 1024.92 1116.32 1656.91> 135 0 502 0 0.615745 0.787945<225.979 634.974 1292.6 1916.38>
LayerCount: 2
Fore
SplineSet
135 0 m 1,0,-1
 520 505 l 1,1,-1
 775 505 l 1,2,-1
 5 1510 l 1,3,-1
 403 1510 l 1,4,-1
 859 908 l 1,5,-1
 1315 1510 l 1,6,-1
 1682 1510 l 1,7,-1
 1167 834 l 1,8,-1
 913 834 l 1,9,-1
 1553 0 l 1,10,-1
 1155 0 l 1,11,-1
 830 432 l 1,12,-1
 502 0 l 1,13,-1
 135 0 l 1,0,-1
EndSplineSet
Validated: 1
EndChar

StartChar: Y
Encoding: 89 89 59
Width: 1603
GlyphClass: 2
Flags: W
HStem: 0 21G<640 960> 1490 20G<5 373.141 1252.75 1598>
VStem: 5 355<1155 1510> 640 320<0 464.73> 1266 332<1178 1510>
DStem2: 360 1510 5 1510 0.548763 -0.835978<0 822.449> 807 817 1102 761 0.552129 0.833759<116.187 831.222>
LayerCount: 2
Fore
SplineSet
640 0 m 1,0,1
 640 543 640 543 454 826 c 2,2,-1
 5 1510 l 1,3,-1
 360 1510 l 1,4,-1
 747 921 l 2,5,6
 774 879 774 879 807 817 c 1,7,-1
 1266 1510 l 1,8,-1
 1598 1510 l 1,9,-1
 1102 761 l 1,10,-1
 828 761 l 1,11,12
 960 455 960 455 960 0 c 1,13,-1
 640 0 l 1,0,1
EndSplineSet
Validated: 1
EndChar

StartChar: Z
Encoding: 90 90 60
Width: 1226
GlyphClass: 2
Flags: W
HStem: 0 300<427 1176> 1210 300<120 888>
LayerCount: 2
Fore
SplineSet
50 0 m 1,0,-1
 50 300 l 1,1,-1
 888 1210 l 1,2,-1
 120 1210 l 1,3,-1
 120 1510 l 1,4,-1
 905 1510 l 1,5,-1
 905 1229 l 1,6,-1
 1156 1510 l 1,7,-1
 1156 1072 l 1,8,-1
 427 300 l 1,9,-1
 1176 300 l 1,10,-1
 1176 0 l 1,11,-1
 50 0 l 1,0,-1
EndSplineSet
Validated: 1
EndChar

StartChar: bracketleft
Encoding: 91 91 61
Width: 843
GlyphClass: 2
Flags: W
HStem: -312 262<460 823> 1558 262<460 823>
VStem: 170 653<-312 -50 1558 1820> 170 290<-50 1558>
LayerCount: 2
Fore
SplineSet
170 -312 m 1,0,-1
 170 1820 l 1,1,-1
 823 1820 l 1,2,-1
 823 1558 l 1,3,-1
 460 1558 l 1,4,-1
 460 -50 l 1,5,-1
 823 -50 l 1,6,-1
 823 -312 l 1,7,-1
 170 -312 l 1,0,-1
EndSplineSet
Validated: 1
EndChar

StartChar: backslash
Encoding: 92 92 62
Width: 1175
GlyphClass: 2
Flags: W
DStem2: 246 1769 10 1653 0.433037 -0.901376<2.36288 2122.29>
LayerCount: 2
Fore
SplineSet
246 1769 m 1,0,-1
 1165 -144 l 1,1,-1
 930 -262 l 1,2,-1
 10 1653 l 1,3,-1
 246 1769 l 1,0,-1
EndSplineSet
Validated: 1
EndChar

StartChar: bracketright
Encoding: 93 93 63
Width: 843
GlyphClass: 2
Flags: W
HStem: -312 262<20 383> 1558 262<20 383>
VStem: 20 653<-312 -50 1558 1820> 383 290<-50 1558>
LayerCount: 2
Fore
SplineSet
673 -312 m 1,0,-1
 20 -312 l 1,1,-1
 20 -50 l 1,2,-1
 383 -50 l 1,3,-1
 383 1558 l 1,4,-1
 20 1558 l 1,5,-1
 20 1820 l 1,6,-1
 673 1820 l 1,7,-1
 673 -312 l 1,0,-1
EndSplineSet
Validated: 1
EndChar

StartChar: asciicircum
Encoding: 94 94 64
Width: 963
GlyphClass: 2
Flags: W
HStem: 939 676
LayerCount: 2
Fore
SplineSet
482 1615 m 1,0,-1
 943 1151 l 1,1,-1
 732 939 l 1,2,-1
 482 1189 l 1,3,-1
 232 939 l 1,4,-1
 20 1151 l 1,5,-1
 482 1615 l 1,0,-1
EndSplineSet
Validated: 1
EndChar

StartChar: underscore
Encoding: 95 95 65
Width: 1193
GlyphClass: 2
Flags: W
HStem: -302 262<120 1073>
LayerCount: 2
Fore
SplineSet
120 -40 m 1,0,-1
 1073 -40 l 1,1,-1
 1073 -302 l 1,2,-1
 120 -302 l 1,3,-1
 120 -40 l 1,0,-1
EndSplineSet
Validated: 1
EndChar

StartChar: grave
Encoding: 96 96 66
Width: 504
GlyphClass: 2
Flags: W
HStem: 1216 450
VStem: 20 464
DStem2: 162 1666 20 1507 0.742951 -0.669346<0.926964 433.341>
LayerCount: 2
Fore
SplineSet
162 1666 m 1,0,-1
 484 1376 l 1,1,-1
 343 1216 l 1,2,-1
 20 1507 l 1,3,-1
 162 1666 l 1,0,-1
EndSplineSet
Validated: 1
EndChar

StartChar: a
Encoding: 97 97 67
Width: 1295
GlyphClass: 2
Flags: W
HStem: -20 280<509.169 705> 0 21G<825 1125> 840 280<508.944 807.129>
VStem: 70 300<390.299 705.415> 825 300<0 822.693>
LayerCount: 2
Fore
SplineSet
1125 0 m 1,0,-1
 825 0 l 1,1,-1
 825 736 l 2,2,3
 825 840 825 840 705 840 c 0,4,5
 545 840 545 840 458 759 c 0,6,7
 370 678 370 678 370 549 c 0,8,9
 370 418 370 418 459 340 c 0,10,11
 551 260 551 260 705 260 c 1,12,-1
 705 -20 l 1,13,14
 435 -20 435 -20 264 125 c 0,15,16
 70 289 70 289 70 551 c 128,-1,17
 70 813 70 813 253.5 966.5 c 128,-1,18
 437 1120 437 1120 705 1120 c 0,19,20
 1125 1120 1125 1120 1125 758 c 2,21,-1
 1125 0 l 1,0,-1
EndSplineSet
Validated: 1
EndChar

StartChar: b
Encoding: 98 98 68
Width: 1295
GlyphClass: 2
Flags: W
HStem: -20 280<487.871 786.056> 840 280<590 785.831> 1490 20G<170 470>
VStem: 170 300<277.307 1510> 925 300<394.585 709.701>
LayerCount: 2
Fore
SplineSet
590 -20 m 0,0,1
 170 -20 170 -20 170 342 c 2,2,-1
 170 1510 l 1,3,-1
 470 1510 l 1,4,-1
 470 364 l 2,5,6
 470 260 470 260 590 260 c 0,7,8
 750 260 750 260 837 341 c 0,9,10
 925 422 925 422 925 551 c 0,11,12
 925 682 925 682 836 760 c 0,13,14
 744 840 744 840 590 840 c 1,15,-1
 590 1120 l 1,16,17
 860 1120 860 1120 1031 975 c 0,18,19
 1225 811 1225 811 1225 549 c 128,-1,20
 1225 287 1225 287 1041.5 133.5 c 128,-1,21
 858 -20 858 -20 590 -20 c 0,0,1
EndSplineSet
Validated: 1
EndChar

StartChar: c
Encoding: 99 99 69
Width: 1112
GlyphClass: 2
Flags: W
HStem: -20 280<500.551 820.048> 840 280<501.526 821.356>
VStem: 70 300<385.982 712.111>
LayerCount: 2
Fore
SplineSet
661 -20 m 0,0,1
 432 -20 432 -20 250 141 c 0,2,3
 70 299 70 299 70 550 c 0,4,5
 70 799 70 799 251 960 c 0,6,7
 432 1120 432 1120 661 1120 c 128,-1,8
 890 1120 890 1120 1072 959 c 1,9,-1
 868 761 l 1,10,11
 783 840 783 840 661 840 c 0,12,13
 537 840 537 840 453 759 c 0,14,15
 370 680 370 680 370 550 c 0,16,17
 370 415 370 415 453 339 c 0,18,19
 540 260 540 260 661 260 c 0,20,21
 784 260 784 260 869 341 c 1,22,-1
 1071 140 l 1,23,24
 889 -20 889 -20 661 -20 c 0,0,1
EndSplineSet
Validated: 1
EndChar

StartChar: d
Encoding: 100 100 70
Width: 1295
GlyphClass: 2
Flags: W
HStem: -20 280<508.944 807.129> 840 280<509.645 705> 1490 20G<825 1125>
VStem: 70 300<394.585 709.701> 825 300<277.307 1510>
LayerCount: 2
Fore
SplineSet
705 -20 m 0,0,1
 437 -20 437 -20 253.5 133.5 c 128,-1,2
 70 287 70 287 70 549 c 128,-1,3
 70 811 70 811 264 975 c 0,4,5
 436 1120 436 1120 705 1120 c 1,6,-1
 705 840 l 1,7,8
 551 840 551 840 459 760 c 0,9,10
 370 682 370 682 370 551 c 0,11,12
 370 422 370 422 458 341 c 0,13,14
 545 260 545 260 705 260 c 0,15,16
 825 260 825 260 825 364 c 2,17,-1
 825 1510 l 1,18,-1
 1125 1510 l 1,19,-1
 1125 342 l 2,20,21
 1125 -20 1125 -20 705 -20 c 0,0,1
EndSplineSet
Validated: 1
EndChar

StartChar: e
Encoding: 101 101 71
Width: 1241
GlyphClass: 2
Flags: W
HStem: -20 280<500.551 820.048> 368 262<532 806.141> 840 280<501.732 820.524>
VStem: 70 300<385.982 712.337> 851 300<675.422 804.845>
LayerCount: 2
Fore
SplineSet
1071 140 m 1,0,1
 889 -20 889 -20 661 -20 c 0,2,3
 432 -20 432 -20 250 141 c 0,4,5
 70 299 70 299 70 550 c 0,6,7
 70 800 70 800 251 960 c 128,-1,8
 432 1120 432 1120 662 1120 c 0,9,10
 870 1120 870 1120 1011 1014 c 0,11,12
 1151 909 1151 909 1151 736 c 0,13,14
 1151 493 1151 493 807 393 c 0,15,16
 721 368 721 368 532 368 c 9,17,-1
 532 630 l 1,18,19
 851 630 851 630 851 741 c 0,20,21
 851 780 851 780 800 810 c 0,22,23
 748 840 748 840 661 840 c 0,24,25
 537 840 537 840 453 759 c 0,26,27
 370 680 370 680 370 550 c 0,28,29
 370 415 370 415 453 339 c 0,30,31
 540 260 540 260 661 260 c 0,32,33
 784 260 784 260 869 341 c 1,34,-1
 1071 140 l 1,0,1
EndSplineSet
Validated: 1
EndChar

StartChar: f
Encoding: 102 102 72
Width: 850
GlyphClass: 2
Flags: W
HStem: 0 21G<170 470> 820 280<491.562 840> 1250 280<502.61 840>
VStem: 170 300<0 803.515 1160 1204.8>
LayerCount: 2
Fore
SplineSet
170 0 m 1,0,-1
 170 739 l 2,1,2
 170 1100 170 1100 590 1100 c 2,3,-1
 840 1100 l 1,4,-1
 840 820 l 1,5,-1
 590 820 l 2,6,7
 470 820 470 820 470 717 c 2,8,-1
 470 0 l 1,9,-1
 170 0 l 1,0,-1
840 1530 m 1,10,11
 840 1250 l 1,12,13
 470 1250 470 1250 470 1160 c 1,14,-1
 170 1160 l 1,15,16
 172 1530 172 1530 840 1530 c 1,10,11
EndSplineSet
Validated: 1
EndChar

StartChar: g
Encoding: 103 103 73
Width: 1295
GlyphClass: 2
Flags: W
HStem: -430 280<485 699.868> -20 280<509.645 705> 840 280<508.944 807.129>
VStem: 70 300<390.299 705.415> 825 300<-34.4565 822.693>
LayerCount: 2
Fore
SplineSet
705 -20 m 1,0,1
 436 -20 436 -20 264 125 c 0,2,3
 70 289 70 289 70 551 c 128,-1,4
 70 813 70 813 253.5 966.5 c 128,-1,5
 437 1120 437 1120 705 1120 c 0,6,7
 1125 1120 1125 1120 1125 758 c 2,8,-1
 1125 158 l 2,9,10
 1125 -136 1125 -136 948 -284 c 0,11,12
 772 -430 772 -430 485 -430 c 1,13,-1
 485 -150 l 1,14,15
 659 -150 659 -150 742 -79.5 c 128,-1,16
 825 -9 825 -9 825 165 c 2,17,-1
 825 736 l 2,18,19
 825 840 825 840 705 840 c 0,20,21
 545 840 545 840 458 759 c 0,22,23
 370 678 370 678 370 549 c 0,24,25
 370 418 370 418 459 340 c 0,26,27
 550 260 550 260 705 260 c 1,28,-1
 705 -20 l 1,0,1
EndSplineSet
Validated: 1
EndChar

StartChar: h
Encoding: 104 104 74
Width: 1300
GlyphClass: 2
Flags: W
HStem: 0 21G<170 470 880 1180> 840 280<590 754.844> 1490 20G<170 470>
VStem: 170 300<0 1510> 880 300<0 719.312>
LayerCount: 2
Fore
SplineSet
1180 0 m 1,0,-1
 880 0 l 1,1,-1
 880 552 l 2,2,3
 880 698 880 698 794 769 c 128,-1,4
 708 840 708 840 590 840 c 9,5,-1
 590 1120 l 1,6,7
 834 1120 834 1120 1006 973 c 0,8,9
 1180 827 1180 827 1180 569 c 2,10,-1
 1180 0 l 1,0,-1
170 0 m 1,11,-1
 170 1510 l 1,12,-1
 470 1510 l 1,13,-1
 470 0 l 1,14,-1
 170 0 l 1,11,-1
EndSplineSet
Validated: 1
EndChar

StartChar: i
Encoding: 105 105 75
Width: 640
GlyphClass: 2
Flags: W
HStem: 0 21G<170 470> 1080 20G<170 470> 1167 383<198.934 440.782>
VStem: 131 377<1235.47 1483.28> 170 300<0 1100>
LayerCount: 2
Fore
SplineSet
170 0 m 1,0,-1
 170 1100 l 1,1,-1
 470 1100 l 1,2,-1
 470 0 l 1,3,-1
 170 0 l 1,0,-1
322 1550 m 0,4,5
 404 1550 404 1550 456 1496 c 128,-1,6
 508 1442 508 1442 508 1360 c 0,7,8
 508 1277 508 1277 454 1223 c 0,9,10
 398 1167 398 1167 318 1167 c 128,-1,11
 238 1167 238 1167 184.5 1224.5 c 128,-1,12
 131 1282 131 1282 131 1361.5 c 128,-1,13
 131 1441 131 1441 186.5 1495.5 c 128,-1,14
 242 1550 242 1550 322 1550 c 0,4,5
EndSplineSet
Validated: 1
EndChar

StartChar: j
Encoding: 106 106 76
Width: 640
GlyphClass: 2
Flags: W
HStem: -430 21G<-10 70.5> 1080 20G<170 470> 1167 383<198.934 440.782>
VStem: 131 377<1235.47 1483.28> 170 300<-26.834 1100>
LayerCount: 2
Fore
SplineSet
322 1550 m 0,0,1
 404 1550 404 1550 456 1496 c 128,-1,2
 508 1442 508 1442 508 1360 c 0,3,4
 508 1277 508 1277 454 1223 c 0,5,6
 398 1167 398 1167 318 1167 c 128,-1,7
 238 1167 238 1167 184.5 1224.5 c 128,-1,8
 131 1282 131 1282 131 1361.5 c 128,-1,9
 131 1441 131 1441 186.5 1495.5 c 128,-1,10
 242 1550 242 1550 322 1550 c 0,0,1
-10 -139 m 1,11,12
 170 -79 170 -79 170 175 c 2,13,-1
 170 1100 l 1,14,-1
 470 1100 l 1,15,-1
 470 175 l 2,16,17
 470 -136 470 -136 299 -279 c 0,18,19
 151 -403 151 -403 -10 -430 c 1,20,-1
 -10 -139 l 1,11,12
EndSplineSet
Validated: 1
EndChar

StartChar: k
Encoding: 107 107 77
Width: 1409
GlyphClass: 2
Flags: W
HStem: 0 21G<170 470 909.86 1404> 1080 20G<905.707 1249> 1490 20G<170 470>
VStem: 170 300<0 1510> 919 330<770 1100>
DStem2: 590 605 830 483 0.561796 0.827275<33.9035 594.332>
LayerCount: 2
Fore
SplineSet
170 0 m 1,0,-1
 170 1510 l 1,1,-1
 470 1510 l 1,2,-1
 470 0 l 1,3,-1
 170 0 l 1,0,-1
1404 0 m 1,4,-1
 934 0 l 1,5,-1
 590 285 l 1,6,-1
 590 605 l 1,7,-1
 919 1100 l 1,8,-1
 1249 1100 l 1,9,-1
 830 483 l 1,10,-1
 1404 0 l 1,4,-1
EndSplineSet
Validated: 1
EndChar

StartChar: l
Encoding: 108 108 78
Width: 640
GlyphClass: 2
Flags: W
HStem: 0 21G<170 470> 1490 20G<170 470>
VStem: 170 300<0 1510>
LayerCount: 2
Fore
SplineSet
170 0 m 1,0,-1
 170 1510 l 1,1,-1
 470 1510 l 1,2,-1
 470 0 l 1,3,-1
 170 0 l 1,0,-1
EndSplineSet
Validated: 1
EndChar

StartChar: m
Encoding: 109 109 79
Width: 1758
GlyphClass: 2
Flags: W
HStem: 0 21G<170 470 754 1054 1338 1638> 840 280<491.562 1214.14>
VStem: 170 300<0 822.693> 754 300<0 720> 1338 300<0 720.27>
CounterMasks: 1 38
LayerCount: 2
Fore
SplineSet
170 0 m 1,0,-1
 170 758 l 2,1,2
 170 1120 170 1120 590 1120 c 2,3,-1
 1048 1120 l 2,4,5
 1292 1119 1292 1119 1464.5 974 c 128,-1,6
 1637 829 1637 829 1638 569 c 2,7,-1
 1638 0 l 1,8,-1
 1338 0 l 1,9,-1
 1338 552 l 2,10,11
 1337 700 1337 700 1251.5 770 c 128,-1,12
 1166 840 1166 840 1048 840 c 2,13,-1
 590 840 l 2,14,15
 470 840 470 840 470 736 c 2,16,-1
 470 0 l 1,17,-1
 170 0 l 1,0,-1
1054 0 m 1,18,-1
 754 0 l 1,19,-1
 754 720 l 1,20,-1
 1054 720 l 1,21,-1
 1054 0 l 1,18,-1
EndSplineSet
Validated: 1
EndChar

StartChar: n
Encoding: 110 110 80
Width: 1300
GlyphClass: 2
Flags: W
HStem: 0 21G<170 470 880 1180> 840 280<487.812 756.762>
VStem: 170 300<0 822.693> 880 300<0 720.27>
LayerCount: 2
Fore
SplineSet
170 0 m 1,0,-1
 170 758 l 2,1,2
 170 1120 170 1120 590 1120 c 0,3,4
 834 1119 834 1119 1006.5 974 c 128,-1,5
 1179 829 1179 829 1180 569 c 2,6,-1
 1180 0 l 1,7,-1
 880 0 l 1,8,-1
 880 552 l 2,9,10
 879 700 879 700 793.5 770 c 128,-1,11
 708 840 708 840 589 840 c 128,-1,12
 470 840 470 840 470 736 c 2,13,-1
 470 0 l 1,14,-1
 170 0 l 1,0,-1
EndSplineSet
Validated: 1
EndChar

StartChar: o
Encoding: 111 111 81
Width: 1322
GlyphClass: 2
Flags: W
HStem: -20 280<500.551 820.048> 840 280<501.526 821.356>
VStem: 70 300<385.982 712.111> 951 301<387.694 714.018>
LayerCount: 2
Fore
SplineSet
661 -20 m 0,0,1
 432 -20 432 -20 250 141 c 0,2,3
 70 299 70 299 70 550 c 0,4,5
 70 799 70 799 251 960 c 0,6,7
 432 1120 432 1120 661 1120 c 128,-1,8
 890 1120 890 1120 1072 959 c 0,9,10
 1252 801 1252 801 1252 550 c 0,11,12
 1252 301 1252 301 1071 140 c 0,13,14
 889 -20 889 -20 661 -20 c 0,0,1
661 260 m 0,15,16
 784 260 784 260 869 341 c 0,17,18
 951 419 951 419 951 550 c 0,19,20
 951 685 951 685 868 761 c 0,21,22
 783 840 783 840 661 840 c 0,23,24
 537 840 537 840 453 759 c 0,25,26
 370 680 370 680 370 550 c 0,27,28
 370 415 370 415 453 339 c 0,29,30
 540 260 540 260 661 260 c 0,15,16
EndSplineSet
Validated: 1
EndChar

StartChar: p
Encoding: 112 112 82
Width: 1295
GlyphClass: 2
Flags: W
HStem: -20 280<590 785.355> 840 280<487.871 786.056>
VStem: 170 300<-410 822.693> 925 300<390.299 705.415>
LayerCount: 2
Fore
SplineSet
590 -20 m 1,0,-1
 590 260 l 1,1,2
 744 260 744 260 836 340 c 0,3,4
 925 418 925 418 925 549 c 0,5,6
 925 678 925 678 837 759 c 0,7,8
 750 840 750 840 590 840 c 0,9,10
 470 840 470 840 470 736 c 2,11,-1
 470 -410 l 1,12,-1
 170 -410 l 1,13,-1
 170 758 l 2,14,15
 170 1120 170 1120 590 1120 c 0,16,17
 858 1120 858 1120 1041.5 966.5 c 128,-1,18
 1225 813 1225 813 1225 551 c 128,-1,19
 1225 289 1225 289 1031 125 c 0,20,21
 859 -20 859 -20 590 -20 c 1,0,-1
EndSplineSet
Validated: 1
EndChar

StartChar: q
Encoding: 113 113 83
Width: 1295
GlyphClass: 2
Flags: W
HStem: -430 280<1167.23 1305> -20 280<509.645 705> 840 280<508.944 807.129>
VStem: 70 300<390.299 705.415> 825 300<-105.049 822.693>
LayerCount: 2
Fore
SplineSet
705 -20 m 1,0,1
 436 -20 436 -20 264 125 c 0,2,3
 70 289 70 289 70 551 c 128,-1,4
 70 813 70 813 253.5 966.5 c 128,-1,5
 437 1120 437 1120 705 1120 c 0,6,7
 1125 1120 1125 1120 1125 758 c 2,8,-1
 1125 10 l 2,9,10
 1125 -150 1125 -150 1305 -150 c 1,11,-1
 1305 -430 l 1,12,13
 825 -430 825 -430 825 10 c 2,14,-1
 825 736 l 2,15,16
 825 840 825 840 705 840 c 0,17,18
 545 840 545 840 458 759 c 0,19,20
 370 678 370 678 370 549 c 0,21,22
 370 418 370 418 459 340 c 0,23,24
 551 260 551 260 705 260 c 1,25,-1
 705 -20 l 1,0,1
EndSplineSet
Validated: 1
EndChar

StartChar: r
Encoding: 114 114 84
Width: 850
GlyphClass: 2
Flags: W
HStem: 0 21G<170 470> 820 280<491.562 840>
VStem: 170 300<0 803.515>
LayerCount: 2
Fore
SplineSet
170 0 m 1,0,-1
 170 739 l 2,1,2
 170 1100 170 1100 590 1100 c 2,3,-1
 840 1100 l 1,4,-1
 840 820 l 1,5,-1
 590 820 l 2,6,7
 470 820 470 820 470 717 c 2,8,-1
 470 0 l 1,9,-1
 170 0 l 1,0,-1
EndSplineSet
Validated: 1
EndChar

StartChar: s
Encoding: 115 115 85
Width: 1053
GlyphClass: 2
Flags: W
HStem: -20 260<348.131 660.985> 866 254<457.816 671.4>
VStem: 696 287<272.705 415.578>
DStem2: 709 683 476 485 0.948683 -0.316228<-276.413 84.6273>
LayerCount: 2
Fore
SplineSet
494 -20 m 0,0,1
 222 -20 222 -20 50 177 c 1,2,-1
 261 368 l 1,3,4
 349 240 349 240 505 240 c 0,5,6
 614 240 614 240 655 272 c 0,7,8
 696 303 696 303 696 344 c 0,9,10
 696 412 696 412 584 449 c 10,11,-1
 476 485 l 2,12,13
 177 585 177 585 177 808 c 0,14,15
 177 947 177 947 296 1042 c 0,16,17
 394 1120 394 1120 550 1120 c 0,18,19
 776 1120 776 1120 920 933 c 1,20,-1
 720 748 l 1,21,22
 674 866 674 866 550 866 c 0,23,24
 456 866 456 866 456 809 c 0,25,26
 456 767 456 767 571 729 c 2,27,-1
 709 683 l 2,28,29
 983 592 983 592 983 358 c 0,30,31
 983 209 983 209 851 93 c 0,32,33
 721 -20 721 -20 494 -20 c 0,0,1
EndSplineSet
Validated: 1
EndChar

StartChar: t
Encoding: 116 116 86
Width: 850
GlyphClass: 2
Flags: W
HStem: 0 21G<170 470> 820 280<491.562 840> 1160 350<170 470>
VStem: 170 300<0 803.515 1160 1510>
LayerCount: 2
Fore
SplineSet
170 0 m 1,0,-1
 170 739 l 2,1,2
 170 1100 170 1100 590 1100 c 2,3,-1
 840 1100 l 1,4,-1
 840 820 l 1,5,-1
 590 820 l 2,6,7
 470 820 470 820 470 717 c 2,8,-1
 470 0 l 1,9,-1
 170 0 l 1,0,-1
170 1510 m 1,10,-1
 470 1510 l 1,11,-1
 470 1160 l 1,12,-1
 170 1160 l 1,13,-1
 170 1510 l 1,10,-1
EndSplineSet
Validated: 1
EndChar

StartChar: u
Encoding: 117 117 87
Width: 1300
GlyphClass: 2
Flags: W
HStem: -20 280<543.238 812.188> 1080 20G<120 420 830 1130>
VStem: 120 300<379.73 1100> 830 300<277.307 1100>
LayerCount: 2
Fore
SplineSet
710 -20 m 0,0,1
 466 -19 466 -19 293.5 126 c 128,-1,2
 121 271 121 271 120 531 c 2,3,-1
 120 1100 l 1,4,-1
 420 1100 l 1,5,-1
 420 548 l 2,6,7
 421 400 421 400 506.5 330 c 128,-1,8
 592 260 592 260 711 260 c 128,-1,9
 830 260 830 260 830 364 c 2,10,-1
 830 1100 l 1,11,-1
 1130 1100 l 1,12,-1
 1130 342 l 2,13,14
 1130 -20 1130 -20 710 -20 c 0,0,1
EndSplineSet
Validated: 1
EndChar

StartChar: v
Encoding: 118 118 88
Width: 1376
GlyphClass: 2
Flags: W
HStem: 0 21G<555.8 1062.5> 1080 20G<5 345.222 687 1213.5>
VStem: 1006 300<538.837 882.326>
DStem2: 335 1100 5 1100 0.454326 -0.890835<0 909.668>
LayerCount: 2
Fore
SplineSet
566 0 m 1,0,-1
 5 1100 l 1,1,-1
 335 1100 l 1,2,-1
 749 290 l 1,3,4
 1006 504 1006 504 1006 703 c 0,5,6
 1006 968 1006 968 687 1100 c 1,7,-1
 1121 1100 l 1,8,9
 1306 940 1306 940 1306 717 c 0,10,11
 1306 390 1306 390 819 0 c 1,12,-1
 566 0 l 1,0,-1
EndSplineSet
Validated: 1
EndChar

StartChar: w
Encoding: 119 119 89
Width: 1865
GlyphClass: 2
Flags: W
HStem: 0 21G<555.8 898 1044.8 1551.5> 1080 20G<5 346.218 494 834.222 1176 1702.5>
VStem: 1495 300<538.837 882.326>
DStem2: 336 1100 5 1100 0.454968 -0.890508<0 1084.2> 824 1100 494 1100 0.454326 -0.890835<0 909.668>
LayerCount: 2
Fore
SplineSet
1055 0 m 1,0,-1
 494 1100 l 1,1,-1
 824 1100 l 1,2,-1
 1238 290 l 1,3,4
 1495 504 1495 504 1495 703 c 0,5,6
 1495 968 1495 968 1176 1100 c 1,7,-1
 1610 1100 l 1,8,9
 1795 940 1795 940 1795 717 c 0,10,11
 1795 390 1795 390 1308 0 c 1,12,-1
 1055 0 l 1,0,-1
566 0 m 1,13,-1
 5 1100 l 1,14,-1
 336 1100 l 1,15,-1
 898 0 l 1,16,-1
 566 0 l 1,13,-1
EndSplineSet
Validated: 1
EndChar

StartChar: x
Encoding: 120 120 90
Width: 1292
GlyphClass: 2
Flags: W
HStem: 0 21G<90 448.265 813.294 1195> 1080 20G<5 386.756 928.398 1287>
VStem: 5 367<733 1100> 943 344<756 1100>
DStem2: 372 1100 5 1100 0.599068 -0.800698<0 483.404 553.404 756.939 816.34 1153.94> 90 0 434 0 0.612796 0.790241<210.802 399.948 1047.06 1391.98>
LayerCount: 2
Fore
SplineSet
90 0 m 1,0,-1
 330 320 l 1,1,-1
 593 320 l 1,2,-1
 5 1100 l 1,3,-1
 372 1100 l 1,4,-1
 659 711 l 1,5,-1
 943 1100 l 1,6,-1
 1287 1100 l 1,7,-1
 954 655 l 1,8,-1
 701 655 l 1,9,-1
 1195 0 l 1,10,-1
 828 0 l 1,11,-1
 628 272 l 1,12,-1
 434 0 l 1,13,-1
 90 0 l 1,0,-1
EndSplineSet
Validated: 1
EndChar

StartChar: y
Encoding: 121 121 91
Width: 1300
VWidth: 1638
GlyphClass: 2
Flags: W
HStem: -430 280<490 704.703> -20 280<544.384 710> 1080 20G<120 420 830 1130>
VStem: 120 300<381.02 1100> 830 300<-34.7443 1100>
LayerCount: 2
Fore
SplineSet
710 -20 m 1,0,1
 467 -20 467 -20 294 126 c 0,2,3
 120 274 120 274 120 531 c 2,4,-1
 120 1100 l 1,5,-1
 420 1100 l 1,6,-1
 420 548 l 2,7,8
 420 401 420 401 506 330.5 c 128,-1,9
 592 260 592 260 710 260 c 9,10,-1
 710 -20 l 1,0,1
490 -430 m 9,11,-1
 490 -150 l 1,12,13
 664 -150 664 -150 747 -79.5 c 128,-1,14
 830 -9 830 -9 830 165 c 2,15,-1
 830 1100 l 1,16,-1
 1130 1100 l 1,17,-1
 1130 158 l 2,18,19
 1130 -137 1130 -137 952 -284 c 0,20,21
 777 -430 777 -430 490 -430 c 9,11,-1
EndSplineSet
Validated: 1
EndChar

StartChar: z
Encoding: 122 122 92
Width: 1042
GlyphClass: 2
Flags: W
HStem: 0 280<452 992> 820 280<110 661>
DStem2: 50 280 452 280 0.74723 0.664565<300.387 815.423 892.655 985.342>
LayerCount: 2
Fore
SplineSet
50 0 m 1,0,-1
 50 280 l 1,1,-1
 661 820 l 1,2,-1
 110 820 l 1,3,-1
 110 1100 l 1,4,-1
 719 1100 l 1,5,-1
 719 871 l 1,6,-1
 972 1100 l 1,7,-1
 972 726 l 1,8,-1
 452 280 l 1,9,-1
 992 280 l 1,10,-1
 992 0 l 1,11,-1
 50 0 l 1,0,-1
EndSplineSet
Validated: 1
EndChar

StartChar: braceleft
Encoding: 123 123 93
Width: 908
GlyphClass: 2
Flags: W
HStem: -312 262<673.219 888> 615 282<20 256> 1558 262<657.326 888>
VStem: 256 285<64.6025 615 897 1457.22>
LayerCount: 2
Fore
SplineSet
888 -312 m 1,0,1
 256 -312 256 -312 256 217 c 2,2,-1
 256 615 l 1,3,-1
 20 615 l 1,4,-1
 20 897 l 1,5,-1
 256 897 l 1,6,-1
 256 1291 l 2,7,8
 256 1820 256 1820 888 1820 c 1,9,-1
 888 1558 l 1,10,11
 541 1558 541 1558 541 1319 c 2,12,-1
 541 205 l 2,13,14
 541 -50 541 -50 888 -50 c 1,15,-1
 888 -312 l 1,0,1
EndSplineSet
Validated: 1
EndChar

StartChar: bar
Encoding: 124 124 94
Width: 720
GlyphClass: 2
Flags: W
VStem: 220 280<-240 1750>
LayerCount: 2
Fore
SplineSet
220 -240 m 1,0,-1
 220 1750 l 1,1,-1
 500 1750 l 1,2,-1
 500 -240 l 1,3,-1
 220 -240 l 1,0,-1
EndSplineSet
Validated: 1
EndChar

StartChar: braceright
Encoding: 125 125 95
Width: 908
GlyphClass: 2
Flags: W
HStem: -312 262<20 234.781> 615 282<652 888> 1558 262<20 250.674>
VStem: 367 285<64.6025 615 897 1457.22>
LayerCount: 2
Fore
SplineSet
20 -312 m 1,0,1
 20 -50 l 1,2,3
 367 -50 367 -50 367 205 c 2,4,-1
 367 1319 l 2,5,6
 367 1558 367 1558 20 1558 c 1,7,-1
 20 1820 l 1,8,9
 652 1820 652 1820 652 1291 c 2,10,-1
 652 897 l 1,11,-1
 888 897 l 1,12,-1
 888 615 l 1,13,-1
 652 615 l 1,14,-1
 652 217 l 2,15,16
 652 -312 652 -312 20 -312 c 1,0,1
EndSplineSet
Validated: 1
EndChar

StartChar: asciitilde
Encoding: 126 126 96
Width: 1445
GlyphClass: 2
Flags: W
HStem: 468 310<876.208 1019.05> 735 310<425.612 568.792>
LayerCount: 2
Fore
SplineSet
1083 999 m 1,0,-1
 1325 873 l 1,1,2
 1246 468 1246 468 936 468 c 0,3,4
 810 468 810 468 691 578 c 2,5,-1
 566 694 l 2,6,7
 522 735 522 735 499 735 c 0,8,9
 402 735 402 735 361 514 c 1,10,-1
 120 640 l 1,11,12
 199 1045 199 1045 509 1045 c 0,13,14
 635 1045 635 1045 754 935 c 2,15,-1
 879 819 l 2,16,17
 923 778 923 778 946 778 c 0,18,19
 1042 778 1042 778 1083 999 c 1,0,-1
EndSplineSet
Validated: 1
EndChar

StartChar: exclamdown
Encoding: 161 161 98
Width: 752
GlyphClass: 2
Flags: W
HStem: 737 383<254.218 496.066>
VStem: 187 377<803.721 1051.11> 219 312<-410 624>
LayerCount: 2
Fore
SplineSet
531 624 m 1,0,-1
 531 -410 l 1,1,-1
 219 -410 l 1,2,-1
 219 624 l 1,3,-1
 531 624 l 1,0,-1
377 1120 m 128,-1,5
 457 1120 457 1120 510 1062 c 0,6,7
 564 1005 564 1005 564 925.5 c 128,-1,8
 564 846 564 846 508.5 791.5 c 128,-1,9
 453 737 453 737 373 737 c 0,10,11
 291 737 291 737 239 791 c 128,-1,12
 187 845 187 845 187 927 c 0,13,14
 187 1010 187 1010 241 1064 c 0,15,4
 297 1120 297 1120 377 1120 c 128,-1,5
EndSplineSet
Validated: 1
EndChar

StartChar: cent
Encoding: 162 162 99
Width: 1112
GlyphClass: 2
Flags: W
VStem: 70 300<385.982 712.111> 582 150<-180 -10.0425 269 831 1110.03 1280>
LayerCount: 2
Fore
SplineSet
582 1280 m 1,0,-1
 732 1280 l 1,1,-1
 732 1116 l 1,2,3
 919 1095 919 1095 1072 959 c 1,4,-1
 868 761 l 1,5,6
 809 816 809 816 732 833 c 1,7,-1
 732 267 l 1,8,9
 810 284 810 284 869 341 c 1,10,-1
 1071 140 l 1,11,12
 918 5 918 5 732 -16 c 1,13,-1
 732 -180 l 1,14,-1
 582 -180 l 1,15,-1
 582 -15 l 1,16,17
 400 8 400 8 250 141 c 0,18,19
 70 299 70 299 70 550 c 0,20,21
 70 799 70 799 251 960 c 0,22,23
 400 1092 400 1092 582 1115 c 1,24,-1
 582 1280 l 1,0,-1
582 269 m 1,25,-1
 582 831 l 1,26,27
 509 813 509 813 453 759 c 0,28,29
 370 680 370 680 370 550 c 0,30,31
 370 415 370 415 453 339 c 0,32,33
 510 287 510 287 582 269 c 1,25,-1
EndSplineSet
Validated: 1
EndChar

StartChar: sterling
Encoding: 163 163 100
Width: 1242
GlyphClass: 2
Flags: W
HStem: 0 300<490 1122> 664 150<80 170 490 813> 1230 300<548.992 804.389>
VStem: 170 320<300 664 814 1172.14>
LayerCount: 2
Fore
SplineSet
170 0 m 1,0,-1
 170 664 l 1,1,-1
 80 664 l 1,2,-1
 80 814 l 1,3,-1
 170 814 l 1,4,-1
 170 957 l 2,5,6
 170 1230 170 1230 300 1379 c 0,7,8
 432 1530 432 1530 684 1530 c 0,9,10
 933 1530 933 1530 1102 1317 c 1,11,-1
 898 1093 l 1,12,13
 801 1230 801 1230 663 1230 c 0,14,15
 579 1230 579 1230 534.5 1172.5 c 128,-1,16
 490 1115 490 1115 490 948 c 2,17,-1
 490 814 l 1,18,-1
 813 814 l 1,19,-1
 813 664 l 1,20,-1
 490 664 l 1,21,-1
 490 300 l 1,22,-1
 1122 300 l 1,23,-1
 1122 0 l 1,24,-1
 170 0 l 1,0,-1
EndSplineSet
Validated: 1
EndChar

StartChar: currency
Encoding: 164 164 101
Width: 1702
GlyphClass: 2
Flags: W
HStem: 204 280<692.267 1014.99> 1064 280<693.508 1016.02>
VStem: 264 300<608.995 936.061> 1144 302<613.063 940.996>
DStem2: 392 1429 170 1208 0.705215 -0.708993<0.129709 243.193 1351.91 1577.56> 198 312 417 91 0.704895 0.709312<0 227.671 1342.24 1579.42>
LayerCount: 2
Fore
SplineSet
854 484 m 0,0,1
 980 484 980 484 1062 565.5 c 128,-1,2
 1144 647 1144 647 1144 774 c 0,3,4
 1144 912 1144 912 1062 985 c 0,5,6
 975 1064 975 1064 854 1064 c 0,7,8
 728 1064 728 1064 646 983 c 0,9,10
 564 901 564 901 564 774 c 0,11,12
 564 640 564 640 646 563 c 0,13,14
 733 484 733 484 854 484 c 0,0,1
392 1429 m 1,15,-1
 556 1265 l 1,16,17
 693 1344 693 1344 854 1344 c 0,18,19
 1012 1344 1012 1344 1148 1268 c 1,20,-1
 1315 1436 l 1,21,-1
 1532 1213 l 1,22,-1
 1374 1054 l 1,23,24
 1446 932 1446 932 1446 774 c 0,25,26
 1446 600 1446 600 1353 463 c 1,27,-1
 1505 311 l 1,28,-1
 1290 82 l 1,29,-1
 1111 262 l 1,30,31
 991 204 991 204 854 204 c 0,32,33
 713 204 713 204 590 265 c 1,34,-1
 417 91 l 1,35,-1
 198 312 l 1,36,-1
 352 467 l 1,37,38
 264 590 264 590 264 774 c 0,39,40
 264 928 264 928 331 1046 c 1,41,-1
 170 1208 l 1,42,-1
 392 1429 l 1,15,-1
EndSplineSet
Validated: 1
EndChar

StartChar: yen
Encoding: 165 165 102
Width: 1539
GlyphClass: 2
Flags: W
HStem: 0 21G<606 926> 399 150<299 592 942 1237> 655 150<299 440 1097 1237> 1490 20G<20 395.902 1151.01 1519>
VStem: 20 364<1146 1510> 606 320<0 399> 1163 356<1154 1510>
DStem2: 384 1510 20 1510 0.511468 -0.859302<0 634.45> 772 858 1097 805 0.514758 0.857335<121.858 760.253>
LayerCount: 2
Fore
SplineSet
606 0 m 1,0,-1
 606 399 l 1,1,-1
 299 399 l 1,2,-1
 299 549 l 1,3,-1
 592 549 l 1,4,-1
 527 655 l 1,5,-1
 299 655 l 1,6,-1
 299 805 l 1,7,-1
 440 805 l 1,8,-1
 20 1510 l 1,9,-1
 384 1510 l 1,10,-1
 772 858 l 1,11,-1
 1163 1510 l 1,12,-1
 1519 1510 l 1,13,-1
 1097 805 l 1,14,-1
 1237 805 l 1,15,-1
 1237 655 l 1,16,-1
 1006 655 l 1,17,-1
 942 549 l 1,18,-1
 1237 549 l 1,19,-1
 1237 399 l 1,20,-1
 926 399 l 1,21,-1
 926 0 l 1,22,-1
 606 0 l 1,0,-1
EndSplineSet
Validated: 1
EndChar

StartChar: brokenbar
Encoding: 166 166 103
Width: 720
GlyphClass: 2
Flags: W
VStem: 220 280<-240 657 852 1750>
LayerCount: 2
Fore
SplineSet
220 -240 m 1,0,-1
 220 657 l 1,1,-1
 500 657 l 1,2,-1
 500 -240 l 1,3,-1
 220 -240 l 1,0,-1
220 1750 m 1,4,-1
 500 1750 l 1,5,-1
 500 852 l 1,6,-1
 220 852 l 1,7,-1
 220 1750 l 1,4,-1
EndSplineSet
Validated: 1
EndChar

StartChar: section
Encoding: 167 167 104
Width: 1106
GlyphClass: 2
Flags: W
HStem: -20 254<431.6 645.184> 1276 254<460.816 674.4>
VStem: 120 287<684.422 841.634> 699 287<668.366 825.578>
DStem2: 519 651 394 417 0.948683 -0.316228<-129.215 231.825> 712 1093 479 895 0.948683 -0.316228<-276.413 84.6273>
LayerCount: 2
Fore
SplineSet
553 -20 m 0,0,1
 327 -20 327 -20 183 167 c 1,2,-1
 383 352 l 1,3,4
 429 234 429 234 553 234 c 0,5,6
 647 234 647 234 647 291 c 0,7,8
 647 333 647 333 532 371 c 2,9,-1
 394 417 l 2,10,11
 120 508 120 508 120 742 c 0,12,13
 120 840 120 840 177 924 c 1,14,-1
 448 828 l 1,15,16
 407 797 407 797 407 756 c 0,17,18
 407 688 407 688 519 651 c 10,19,-1
 627 615 l 2,20,21
 926 515 926 515 926 292 c 0,22,23
 926 153 926 153 807 58 c 0,24,25
 709 -20 709 -20 553 -20 c 0,0,1
553 1530 m 0,26,27
 779 1530 779 1530 923 1343 c 1,28,-1
 723 1158 l 1,29,30
 677 1276 677 1276 553 1276 c 0,31,32
 459 1276 459 1276 459 1219 c 0,33,34
 459 1177 459 1177 574 1139 c 2,35,-1
 712 1093 l 2,36,37
 986 1002 986 1002 986 768 c 0,38,39
 986 670 986 670 929 586 c 1,40,-1
 658 682 l 1,41,42
 699 713 699 713 699 754 c 0,43,44
 699 822 699 822 587 859 c 10,45,-1
 479 895 l 2,46,47
 180 995 180 995 180 1218 c 0,48,49
 180 1357 180 1357 299 1452 c 0,50,51
 397 1530 397 1530 553 1530 c 0,26,27
EndSplineSet
Validated: 1
EndChar

StartChar: dieresis
Encoding: 168 168 105
Width: 780
GlyphClass: 2
Flags: W
HStem: 1187 343<75.5664 304.785 475.566 704.785>
VStem: 20 340<1242.45 1475.26> 420 340<1242.45 1475.26>
LayerCount: 2
Fore
SplineSet
590 1530 m 0,0,1
 662 1530 662 1530 711 1480 c 128,-1,2
 760 1430 760 1430 760 1358 c 0,3,4
 760 1287 760 1287 710 1236 c 0,5,6
 663 1187 663 1187 591 1187 c 0,7,8
 518 1187 518 1187 469 1237.5 c 128,-1,9
 420 1288 420 1288 420 1358 c 0,10,11
 420 1433 420 1433 469 1480 c 0,12,13
 521 1530 521 1530 590 1530 c 0,0,1
190 1530 m 0,14,15
 262 1530 262 1530 311 1480 c 128,-1,16
 360 1430 360 1430 360 1358 c 0,17,18
 360 1287 360 1287 310 1236 c 0,19,20
 263 1187 263 1187 191 1187 c 0,21,22
 118 1187 118 1187 69 1237.5 c 128,-1,23
 20 1288 20 1288 20 1358 c 0,24,25
 20 1433 20 1433 69 1480 c 0,26,27
 121 1530 121 1530 190 1530 c 0,14,15
EndSplineSet
Validated: 1
EndChar

StartChar: ordfeminine
Encoding: 170 170 106
Width: 628
GlyphClass: 2
Flags: W
HStem: 794 174<20 608> 1049 201<269.162 364> 1489 201<260.1 397.531>
VStem: 20 211<1281.47 1457.88> 398 210<1059 1482.64>
LayerCount: 2
Fore
SplineSet
368 1690 m 0,0,1
 608 1690 608 1690 608 1476 c 2,2,-1
 608 1059 l 1,3,-1
 398 1059 l 1,4,-1
 398 1466 l 2,5,6
 398 1489 398 1489 368 1489 c 0,7,8
 298 1489 298 1489 264 1454 c 0,9,10
 231 1421 231 1421 231 1368.5 c 128,-1,11
 231 1316 231 1316 268 1283 c 128,-1,12
 305 1250 305 1250 364 1250 c 9,13,-1
 364 1049 l 1,14,15
 222 1049 222 1049 120 1138 c 0,16,17
 20 1226 20 1226 20 1373 c 128,-1,18
 20 1520 20 1520 123 1605 c 128,-1,19
 226 1690 226 1690 368 1690 c 0,0,1
20 968 m 1,20,-1
 608 968 l 1,21,-1
 608 794 l 1,22,-1
 20 794 l 1,23,-1
 20 968 l 1,20,-1
EndSplineSet
Validated: 1
EndChar

StartChar: guillemotleft
Encoding: 171 171 107
Width: 1486
GlyphClass: 2
Flags: W
DStem2: 485 746 120 746 0.643475 -0.765467<0 506.774> 120 746 485 746 0.642688 0.766128<234.581 742.121> 1040 747 675 747 0.643475 -0.765467<0 506.774> 675 747 1040 747 0.642688 0.766128<234.581 742.121>
LayerCount: 2
Fore
SplineSet
1154 1318 m 1,0,-1
 1366 1136 l 1,1,-1
 1040 747 l 1,2,-1
 1366 359 l 1,3,-1
 1155 176 l 1,4,-1
 675 747 l 1,5,-1
 1154 1318 l 1,0,-1
599 1317 m 1,6,-1
 811 1135 l 1,7,-1
 485 746 l 1,8,-1
 811 358 l 1,9,-1
 600 175 l 1,10,-1
 120 746 l 1,11,-1
 599 1317 l 1,6,-1
EndSplineSet
Validated: 1
EndChar

StartChar: logicalnot
Encoding: 172 172 108
Width: 1193
GlyphClass: 2
Flags: W
HStem: 593 302<120 773>
VStem: 773 300<364 593>
LayerCount: 2
Fore
SplineSet
120 895 m 1,0,-1
 1073 895 l 1,1,-1
 1073 364 l 1,2,-1
 773 364 l 1,3,-1
 773 593 l 1,4,-1
 120 593 l 1,5,-1
 120 895 l 1,0,-1
EndSplineSet
Validated: 1
EndChar

StartChar: macron
Encoding: 175 175 109
Width: 663
GlyphClass: 2
Flags: W
HStem: 1287 222<20 643>
VStem: 20 623<1287 1509>
LayerCount: 2
Fore
SplineSet
20 1509 m 1,0,-1
 643 1509 l 1,1,-1
 643 1287 l 1,2,-1
 20 1287 l 1,3,-1
 20 1509 l 1,0,-1
EndSplineSet
Validated: 1
EndChar

StartChar: degree
Encoding: 176 176 110
Width: 714
GlyphClass: 2
Flags: W
HStem: 847 221<267.787 444.301> 1306 224<268.836 445.863>
VStem: 20 216<1100.73 1273.29> 477 217<1100.3 1274.79>
LayerCount: 2
Fore
SplineSet
357 1306 m 128,-1,1
 306 1306 306 1306 271 1271 c 128,-1,2
 236 1236 236 1236 236 1187 c 128,-1,3
 236 1138 236 1138 271 1103 c 128,-1,4
 306 1068 306 1068 356.5 1068 c 128,-1,5
 407 1068 407 1068 442 1104 c 128,-1,6
 477 1140 477 1140 477 1189 c 128,-1,7
 477 1238 477 1238 442.5 1272 c 128,-1,0
 408 1306 408 1306 357 1306 c 128,-1,1
358 1530 m 128,-1,9
 500 1530 500 1530 597 1428 c 0,10,11
 694 1327 694 1327 694 1187 c 128,-1,12
 694 1047 694 1047 595.5 947 c 128,-1,13
 497 847 497 847 355.5 847 c 128,-1,14
 214 847 214 847 117 948 c 128,-1,15
 20 1049 20 1049 20 1189 c 128,-1,16
 20 1329 20 1329 118 1430 c 0,17,8
 216 1530 216 1530 358 1530 c 128,-1,9
EndSplineSet
Validated: 1
EndChar

StartChar: plusminus
Encoding: 177 177 111
Width: 1193
GlyphClass: 2
Flags: W
HStem: 116 302<120 1073> 793 302<120 446 746 1073>
VStem: 446 300<498 793 1095 1422>
LayerCount: 2
Fore
SplineSet
446 1422 m 1,0,-1
 746 1422 l 1,1,-1
 746 1095 l 1,2,-1
 1073 1095 l 1,3,-1
 1073 793 l 1,4,-1
 746 793 l 1,5,-1
 746 498 l 1,6,-1
 446 498 l 1,7,-1
 446 793 l 1,8,-1
 120 793 l 1,9,-1
 120 1095 l 1,10,-1
 446 1095 l 1,11,-1
 446 1422 l 1,0,-1
120 116 m 1,12,-1
 120 418 l 1,13,-1
 1073 418 l 1,14,-1
 1073 116 l 1,15,-1
 120 116 l 1,12,-1
EndSplineSet
Validated: 1
EndChar

StartChar: uni00B2
Encoding: 178 178 112
Width: 642
VWidth: 1406
GlyphClass: 2
Flags: W
HStem: 853 221<332 622> 1479 211<228.102 396.715>
VStem: 400 220<1338.95 1474.93>
LayerCount: 2
Fore
SplineSet
30 853 m 1,0,1
 30 1118 30 1118 304 1298 c 0,2,3
 400 1362 400 1362 400 1414 c 0,4,5
 400 1479 400 1479 323 1479 c 0,6,7
 232 1479 232 1479 196 1378 c 1,8,-1
 20 1504 l 1,9,10
 142 1690 142 1690 329 1690 c 0,11,12
 462 1690 462 1690 539 1609 c 0,13,14
 620 1524 620 1524 620 1416 c 0,15,16
 620 1247 620 1247 407 1122 c 0,17,18
 363 1096 363 1096 332 1074 c 1,19,-1
 622 1074 l 1,20,-1
 622 853 l 1,21,-1
 30 853 l 1,0,1
EndSplineSet
Validated: 1
EndChar

StartChar: uni00B3
Encoding: 179 179 113
Width: 664
VWidth: 1401
GlyphClass: 2
Flags: W
HStem: 879 204<153.827 416.616> 1231 192<253 360.519> 1496 194<195.841 359.365>
VStem: 422 222<1090.59 1220.47>
LayerCount: 2
Fore
SplineSet
319 1690 m 0,0,1
 436 1690 436 1690 503 1627.5 c 128,-1,2
 570 1565 570 1565 570 1487 c 128,-1,3
 570 1409 570 1409 524 1354 c 1,4,5
 644 1291 644 1291 644 1152 c 0,6,7
 644 1039 644 1039 554 959 c 128,-1,8
 464 879 464 879 327 879 c 0,9,10
 125 879 125 879 20 999 c 1,11,-1
 171 1142 l 1,12,13
 240 1083 240 1083 330 1083 c 0,14,15
 422 1083 422 1083 422 1156 c 0,16,17
 422 1231 422 1231 308 1231 c 2,18,-1
 253 1231 l 1,19,-1
 253 1423 l 1,20,-1
 308 1423 l 2,21,22
 361 1423 361 1423 361 1461 c 0,23,24
 361 1496 361 1496 312 1496 c 0,25,26
 265 1496 265 1496 233 1448 c 1,27,-1
 78 1573 l 1,28,29
 166 1690 166 1690 319 1690 c 0,0,1
EndSplineSet
Validated: 1
EndChar

StartChar: acute
Encoding: 180 180 114
Width: 504
GlyphClass: 2
Flags: W
HStem: 1216 450
VStem: 20 464
DStem2: 20 1376 161 1216 0.742951 0.669346<0 432.414>
LayerCount: 2
Fore
SplineSet
342 1666 m 1,0,-1
 484 1507 l 1,1,-1
 161 1216 l 1,2,-1
 20 1376 l 1,3,-1
 342 1666 l 1,0,-1
EndSplineSet
Validated: 1
EndChar

StartChar: uni00B5
Encoding: 181 181 115
Width: 1350
GlyphClass: 2
Flags: W
HStem: -20 280<593.294 862.188> 1080 20G<170 470 880 1180>
VStem: 170 300<-410 44 378.437 1100> 880 300<277.307 1100>
LayerCount: 2
Fore
SplineSet
760 -20 m 0,0,1
 600 -19 600 -19 470 44 c 1,2,-1
 470 -410 l 1,3,-1
 170 -410 l 1,4,-1
 170 1100 l 1,5,-1
 470 1100 l 1,6,-1
 470 548 l 2,7,8
 471 400 471 400 556.5 330 c 128,-1,9
 642 260 642 260 761 260 c 128,-1,10
 880 260 880 260 880 364 c 2,11,-1
 880 1100 l 1,12,-1
 1180 1100 l 1,13,-1
 1180 342 l 2,14,15
 1180 -20 1180 -20 760 -20 c 0,0,1
EndSplineSet
Validated: 1
EndChar

StartChar: paragraph
Encoding: 182 182 116
Width: 1212
GlyphClass: 2
Flags: W
HStem: 0 21G<682 820 906 1042> 1365 145<820 906>
VStem: 120 700<855.027 1258.15> 682 138<0 604> 906 136<0 1365>
LayerCount: 2
Fore
SplineSet
682 0 m 1,0,-1
 682 604 l 1,1,2
 630 593 630 593 576 593 c 0,3,4
 385 593 385 593 252 730 c 0,5,6
 120 867 120 867 120 1057 c 0,7,8
 120 1246 120 1246 252 1383 c 0,9,10
 383 1520 383 1520 576 1520 c 0,11,12
 632 1520 632 1520 682 1507 c 1,13,-1
 682 1510 l 1,14,-1
 1042 1510 l 1,15,-1
 1042 0 l 1,16,-1
 906 0 l 1,17,-1
 906 1365 l 1,18,-1
 820 1365 l 1,19,-1
 820 0 l 1,20,-1
 682 0 l 1,0,-1
EndSplineSet
Validated: 1
EndChar

StartChar: periodcentered
Encoding: 183 183 117
Width: 417
GlyphClass: 2
Flags: W
HStem: 563 383<87.9337 329.782>
VStem: 20 377<631.885 879.279>
LayerCount: 2
Fore
SplineSet
211 946 m 0,0,1
 293 946 293 946 345 892 c 128,-1,2
 397 838 397 838 397 756 c 0,3,4
 397 673 397 673 343 619 c 0,5,6
 287 563 287 563 207 563 c 128,-1,7
 127 563 127 563 74 621 c 0,8,9
 20 678 20 678 20 757.5 c 128,-1,10
 20 837 20 837 75.5 891.5 c 128,-1,11
 131 946 131 946 211 946 c 0,0,1
EndSplineSet
Validated: 19457
EndChar

StartChar: cedilla
Encoding: 184 184 118
Width: 434
GlyphClass: 2
Flags: W
VStem: 157 257<-221.439 -15.951>
LayerCount: 2
Fore
SplineSet
211 231 m 1,0,1
 414 77 414 77 414 -128 c 128,-1,2
 414 -333 414 -333 169 -494 c 1,3,-1
 20 -275 l 1,4,5
 157 -225 157 -225 157 -122.5 c 128,-1,6
 157 -20 157 -20 52 24 c 1,7,-1
 211 231 l 1,0,1
EndSplineSet
Validated: 1
EndChar

StartChar: uni00B9
Encoding: 185 185 119
Width: 393
VWidth: 1406
GlyphClass: 2
Flags: W
HStem: 1479 211<20 147.766>
VStem: 153 220<853 1479>
LayerCount: 2
Fore
SplineSet
20 1690 m 1,0,-1
 133 1690 l 6,1,2
 373 1690 373 1690 373 1473 c 2,3,-1
 373 853 l 1,4,-1
 153 853 l 1,5,-1
 153 1464 l 2,6,7
 153 1479 153 1479 133 1479 c 2,8,-1
 20 1479 l 1,9,-1
 20 1690 l 1,0,-1
EndSplineSet
Validated: 1
EndChar

StartChar: ordmasculine
Encoding: 186 186 120
Width: 690
GlyphClass: 2
Flags: W
HStem: 792 174<20 670> 1050 200<258.939 430.849> 1489 201<258.631 430.319>
VStem: 20 209<1279.89 1460.03> 460 209<1278.78 1460.08>
LayerCount: 2
Fore
SplineSet
345 1690 m 128,-1,1
 471 1690 471 1690 570 1600 c 128,-1,2
 669 1510 669 1510 669 1370 c 0,3,4
 669 1231 669 1231 569 1140 c 0,5,6
 470 1050 470 1050 344 1050 c 128,-1,7
 218 1050 218 1050 119 1140.5 c 128,-1,8
 20 1231 20 1231 20 1371 c 128,-1,9
 20 1511 20 1511 119.5 1600.5 c 128,-1,0
 219 1690 219 1690 345 1690 c 128,-1,1
343.5 1489 m 128,-1,11
 295 1489 295 1489 262 1456 c 128,-1,12
 229 1423 229 1423 229 1368.5 c 128,-1,13
 229 1314 229 1314 263.5 1282 c 128,-1,14
 298 1250 298 1250 347 1250 c 128,-1,15
 396 1250 396 1250 428 1284 c 128,-1,16
 460 1318 460 1318 460 1372 c 0,17,18
 460 1425 460 1425 426 1457 c 128,-1,10
 392 1489 392 1489 343.5 1489 c 128,-1,11
20 966 m 1,19,-1
 670 966 l 1,20,-1
 670 792 l 1,21,-1
 20 792 l 1,22,-1
 20 966 l 1,19,-1
EndSplineSet
Validated: 1
EndChar

StartChar: guillemotright
Encoding: 187 187 121
Width: 1486
GlyphClass: 2
Flags: W
DStem2: 332 1318 120 1136 0.642688 -0.766128<3.18527 510.725> 120 359 331 176 0.643475 0.765467<0 506.774> 887 1317 675 1135 0.642688 -0.766128<3.18527 510.725> 675 358 886 175 0.643475 0.765467<0 506.774>
LayerCount: 2
Fore
SplineSet
332 1318 m 1,0,-1
 811 747 l 1,1,-1
 331 176 l 1,2,-1
 120 359 l 1,3,-1
 446 747 l 1,4,-1
 120 1136 l 1,5,-1
 332 1318 l 1,0,-1
887 1317 m 1,6,-1
 1366 746 l 1,7,-1
 886 175 l 1,8,-1
 675 358 l 1,9,-1
 1001 746 l 1,10,-1
 675 1135 l 1,11,-1
 887 1317 l 1,6,-1
EndSplineSet
Validated: 1
EndChar

StartChar: onequarter
Encoding: 188 188 122
Width: 1581
VWidth: 1401
GlyphClass: 2
Flags: W
HStem: 0 21G<1241 1461> 128 211<1086 1180> 1319 211<20 147.766>
VStem: 153 220<693 1319> 846 334<171.066 337.449> 1241 220<0 612>
DStem2: 46 123 246 -34 0.601793 0.798652<0 1766> 872 392 1086 339 0.391688 0.920098<35.0561 483.864>
LayerCount: 2
Fore
SplineSet
20 1530 m 1,0,-1
 133 1530 l 2,1,2
 373 1530 373 1530 373 1313 c 2,3,-1
 373 693 l 1,4,-1
 153 693 l 1,5,-1
 153 1304 l 2,6,7
 153 1319 153 1319 133 1319 c 2,8,-1
 20 1319 l 1,9,-1
 20 1530 l 1,0,-1
1108 1534 m 1,10,-1
 1319 1390 l 1,11,-1
 246 -34 l 1,12,-1
 46 123 l 1,13,-1
 1108 1534 l 1,10,-1
1062 837 m 1,14,-1
 1298 837 l 1,15,-1
 1086 339 l 1,16,-1
 1180 339 l 1,17,-1
 1180 128 l 1,18,-1
 1034 128 l 2,19,20
 907 129 907 129 868 198 c 0,21,22
 846 237 846 237 846 282 c 0,23,24
 846 331 846 331 872 392 c 2,25,-1
 1062 837 l 1,14,-1
1461 0 m 1,26,-1
 1241 0 l 1,27,-1
 1241 612 l 1,28,-1
 1461 612 l 1,29,-1
 1461 0 l 1,26,-1
EndSplineSet
Validated: 1
EndChar

StartChar: onehalf
Encoding: 189 189 123
Width: 1670
VWidth: 1401
GlyphClass: 2
Flags: W
HStem: 0 221<1260 1550> 626 211<1156.1 1324.72> 1319 211<20 147.766>
VStem: 153 220<693 1319> 1328 220<485.953 621.934>
DStem2: 46 123 246 -34 0.601793 0.798652<0 1766>
LayerCount: 2
Fore
SplineSet
958 0 m 1,0,1
 958 265 958 265 1232 445 c 0,2,3
 1328 509 1328 509 1328 561 c 0,4,5
 1328 626 1328 626 1251 626 c 0,6,7
 1160 626 1160 626 1124 525 c 1,8,-1
 948 651 l 1,9,10
 1070 837 1070 837 1257 837 c 0,11,12
 1390 837 1390 837 1467 756 c 0,13,14
 1548 671 1548 671 1548 563 c 0,15,16
 1548 394 1548 394 1335 269 c 0,17,18
 1291 243 1291 243 1260 221 c 1,19,-1
 1550 221 l 1,20,-1
 1550 0 l 1,21,-1
 958 0 l 1,0,1
20 1530 m 1,22,-1
 133 1530 l 2,23,24
 373 1530 373 1530 373 1313 c 2,25,-1
 373 693 l 1,26,-1
 153 693 l 1,27,-1
 153 1304 l 2,28,29
 153 1319 153 1319 133 1319 c 2,30,-1
 20 1319 l 1,31,-1
 20 1530 l 1,22,-1
1108 1534 m 1,32,-1
 1319 1390 l 1,33,-1
 246 -34 l 1,34,-1
 46 123 l 1,35,-1
 1108 1534 l 1,32,-1
EndSplineSet
Validated: 1
EndChar

StartChar: threequarters
Encoding: 190 190 124
Width: 1712
VWidth: 1401
GlyphClass: 2
Flags: W
HStem: 0 21G<1372 1592> 128 211<1217 1311> 719 204<153.827 416.616> 1071 192<253 360.519> 1336 194<195.841 359.365>
VStem: 422 222<930.588 1060.47> 977 334<171.066 337.449> 1372 220<0 612>
DStem2: 177 123 377 -34 0.601793 0.798652<0 1766> 1003 392 1217 339 0.391688 0.920098<35.0561 483.864>
LayerCount: 2
Fore
SplineSet
1239 1534 m 1,0,-1
 1450 1390 l 1,1,-1
 377 -34 l 1,2,-1
 177 123 l 1,3,-1
 1239 1534 l 1,0,-1
1193 837 m 1,4,-1
 1429 837 l 1,5,-1
 1217 339 l 1,6,-1
 1311 339 l 1,7,-1
 1311 128 l 1,8,-1
 1165 128 l 2,9,10
 1038 129 1038 129 999 198 c 0,11,12
 977 237 977 237 977 282 c 0,13,14
 977 331 977 331 1003 392 c 2,15,-1
 1193 837 l 1,4,-1
1592 0 m 1,16,-1
 1372 0 l 1,17,-1
 1372 612 l 1,18,-1
 1592 612 l 1,19,-1
 1592 0 l 1,16,-1
319 1530 m 0,20,21
 436 1530 436 1530 503 1467.5 c 128,-1,22
 570 1405 570 1405 570 1327 c 128,-1,23
 570 1249 570 1249 524 1194 c 1,24,25
 644 1131 644 1131 644 992 c 0,26,27
 644 879 644 879 554 799 c 128,-1,28
 464 719 464 719 327 719 c 0,29,30
 125 719 125 719 20 839 c 1,31,-1
 171 982 l 1,32,33
 240 923 240 923 330 923 c 0,34,35
 422 923 422 923 422 996 c 0,36,37
 422 1071 422 1071 308 1071 c 2,38,-1
 253 1071 l 1,39,-1
 253 1263 l 1,40,-1
 308 1263 l 2,41,42
 361 1263 361 1263 361 1301 c 0,43,44
 361 1336 361 1336 312 1336 c 0,45,46
 265 1336 265 1336 233 1288 c 1,47,-1
 78 1413 l 1,48,49
 166 1530 166 1530 319 1530 c 0,20,21
EndSplineSet
Validated: 1
EndChar

StartChar: questiondown
Encoding: 191 191 125
Width: 1273
GlyphClass: 2
Flags: W
HStem: -430 300<484.109 784.537> 737 383<511.218 753.066>
VStem: 90 322<-60.4833 179.725> 444 377<803.721 1051.11>
LayerCount: 2
Fore
SplineSet
634 1120 m 128,-1,1
 714 1120 714 1120 767 1062 c 0,2,3
 821 1005 821 1005 821 925.5 c 128,-1,4
 821 846 821 846 765.5 791.5 c 128,-1,5
 710 737 710 737 630 737 c 0,6,7
 548 737 548 737 496 791 c 128,-1,8
 444 845 444 845 444 927 c 0,9,10
 444 1010 444 1010 498 1064 c 0,11,0
 554 1120 554 1120 634 1120 c 128,-1,1
641 -430 m 0,12,13
 388 -430 388 -430 239 -292 c 0,14,15
 90 -153 90 -153 90 40 c 0,16,17
 90 260 90 260 322 426 c 0,18,19
 485 542 485 542 486 624 c 1,20,-1
 766 624 l 1,21,22
 763 430 763 430 520 243 c 0,23,24
 412 160 412 160 412 58 c 0,25,26
 412 -27 412 -27 472 -77 c 0,27,28
 535 -130 535 -130 632 -130 c 0,29,30
 797 -130 797 -130 905 37 c 1,31,-1
 1153 -136 l 1,32,33
 910 -430 910 -430 641 -430 c 0,12,13
EndSplineSet
Validated: 1
EndChar

StartChar: multiply
Encoding: 215 215 126
Width: 1226
GlyphClass: 2
Flags: W
DStem2: 381 1188 170 975 0.707629 -0.706584<1.19262 328.583 628.618 953.887> 171 513 382 300 0.70763 0.706583<0 326.683 626.718 951.281>
LayerCount: 2
Fore
SplineSet
381 1188 m 1,0,-1
 614 955 l 1,1,-1
 847 1188 l 1,2,-1
 1056 973 l 1,3,-1
 826 744 l 1,4,-1
 1056 514 l 1,5,-1
 847 299 l 1,6,-1
 614 532 l 1,7,-1
 382 300 l 1,8,-1
 171 513 l 1,9,-1
 402 744 l 1,10,-1
 170 975 l 1,11,-1
 381 1188 l 1,0,-1
EndSplineSet
Validated: 1
EndChar

StartChar: Oslash
Encoding: 216 216 127
Width: 1718
GlyphClass: 2
Flags: W
HStem: -20 300<652.871 1064.98> 1230 300<654.908 1064.79>
VStem: 70 320<538.494 966.13> 1328 320<545.554 967.521>
DStem2: 129 145 250 26 0.706579 0.707634<1.28766 169.003 477.297 1416.92 1726.8 1892.22>
LayerCount: 2
Fore
SplineSet
859 -20 m 0,0,1
 569 -20 569 -20 365 142 c 1,2,-1
 250 26 l 1,3,-1
 129 145 l 1,4,-1
 245 261 l 1,5,6
 70 473 70 473 70 757 c 0,7,8
 70 1080 70 1080 284 1294 c 0,9,10
 521 1530 521 1530 862 1530 c 0,11,12
 1145 1530 1145 1530 1351 1368 c 1,13,-1
 1466 1484 l 1,14,-1
 1590 1368 l 1,15,-1
 1473 1250 l 1,16,17
 1648 1042 1648 1042 1648 754 c 0,18,19
 1648 436 1648 436 1425 208 c 0,20,21
 1203 -20 1203 -20 859 -20 c 0,0,1
860 280 m 0,22,23
 1058 280 1058 280 1193 413 c 0,24,25
 1328 548 1328 548 1328 756 c 0,26,27
 1328 914 1328 914 1250 1028 c 1,28,-1
 586 363 l 1,29,30
 706 280 706 280 860 280 c 0,22,23
466 483 m 1,31,-1
 1131 1148 l 1,32,33
 1014 1230 1014 1230 859 1230 c 0,34,35
 661 1230 661 1230 525 1097 c 0,36,37
 390 964 390 964 390 755 c 0,38,39
 390 597 390 597 466 483 c 1,31,-1
EndSplineSet
Validated: 1
EndChar

StartChar: divide
Encoding: 247 247 128
Width: 1193
GlyphClass: 2
Flags: W
HStem: 81 383<475.934 717.782> 593 302<120 1073> 1004 383<476.109 717.782>
VStem: 408 377<149.885 397.279 1072.89 1320.28>
LayerCount: 2
Fore
SplineSet
120 895 m 1,0,-1
 1073 895 l 1,1,-1
 1073 593 l 1,2,-1
 120 593 l 1,3,-1
 120 895 l 1,0,-1
599 1387 m 0,4,5
 681 1387 681 1387 733 1333 c 128,-1,6
 785 1279 785 1279 785 1197 c 0,7,8
 785 1114 785 1114 731 1060 c 0,9,10
 675 1004 675 1004 595 1004 c 0,11,12
 517 1004 517 1004 462 1062 c 0,13,14
 408 1119 408 1119 408 1198.5 c 128,-1,15
 408 1278 408 1278 463.5 1332.5 c 128,-1,16
 519 1387 519 1387 599 1387 c 0,4,5
595 81 m 128,-1,18
 515 81 515 81 462 139 c 0,19,20
 408 196 408 196 408 275.5 c 128,-1,21
 408 355 408 355 463.5 409.5 c 128,-1,22
 519 464 519 464 599 464 c 0,23,24
 681 464 681 464 733 410 c 128,-1,25
 785 356 785 356 785 274 c 0,26,27
 785 191 785 191 731 137 c 0,28,17
 675 81 675 81 595 81 c 128,-1,18
EndSplineSet
Validated: 1
EndChar

StartChar: oslash
Encoding: 248 248 129
Width: 1322
GlyphClass: 2
Flags: W
HStem: -20 280<515.551 820.048> 840 280<501.526 806.449>
VStem: 70 300<401.433 712.111> 951 301<387.694 698.567>
DStem2: 92 87 201 -16 0.707107 0.707107<4.24264 154.323 445.477 1013.99 1305.14 1459.47>
LayerCount: 2
Fore
SplineSet
661 -20 m 0,0,1
 469 -20 469 -20 310 93 c 1,2,-1
 201 -16 l 1,3,-1
 92 87 l 1,4,-1
 198 193 l 1,5,6
 70 339 70 339 70 550 c 0,7,8
 70 799 70 799 251 960 c 0,9,10
 432 1120 432 1120 661 1120 c 0,11,12
 853 1120 853 1120 1012 1007 c 1,13,-1
 1124 1119 l 1,14,-1
 1230 1013 l 1,15,-1
 1124 907 l 1,16,17
 1252 761 1252 761 1252 550 c 0,18,19
 1252 301 1252 301 1071 140 c 0,20,21
 889 -20 889 -20 661 -20 c 0,0,1
661 260 m 0,22,23
 784 260 784 260 869 341 c 0,24,25
 951 419 951 419 951 550 c 0,26,27
 951 637 951 637 917 700 c 1,28,-1
 513 296 l 1,29,30
 579 260 579 260 661 260 c 0,22,23
405 400 m 1,31,-1
 809 804 l 1,32,33
 743 840 743 840 661 840 c 0,34,35
 537 840 537 840 453 759 c 0,36,37
 370 680 370 680 370 550 c 0,38,39
 370 463 370 463 405 400 c 1,31,-1
EndSplineSet
Validated: 1
EndChar

StartChar: florin
Encoding: 402 402 130
Width: 870
GlyphClass: 2
Flags: W
HStem: -430 21G<10 90.5> 820 280<511.562 860> 1250 280<522.61 860>
VStem: 190 300<-26.834 803.515 1160 1204.8>
LayerCount: 2
Fore
SplineSet
860 1530 m 1,0,-1
 860 1250 l 1,1,2
 490 1250 490 1250 490 1160 c 1,3,-1
 190 1160 l 1,4,5
 192 1530 192 1530 860 1530 c 1,0,-1
10 -430 m 1,6,-1
 10 -139 l 1,7,8
 190 -79 190 -79 190 175 c 2,9,-1
 190 739 l 2,10,11
 190 1100 190 1100 610 1100 c 2,12,-1
 860 1100 l 1,13,-1
 860 820 l 1,14,-1
 610 820 l 2,15,16
 490 820 490 820 490 717 c 2,17,-1
 490 175 l 2,18,19
 490 -136 490 -136 319 -279 c 0,20,21
 171 -403 171 -403 10 -430 c 1,6,-1
EndSplineSet
Validated: 1
EndChar

StartChar: endash
Encoding: 8211 8211 131
Width: 1193
GlyphClass: 2
Flags: W
HStem: 593 302<120 1073>
LayerCount: 2
Fore
SplineSet
120 895 m 1,0,-1
 1073 895 l 1,1,-1
 1073 593 l 1,2,-1
 120 593 l 1,3,-1
 120 895 l 1,0,-1
EndSplineSet
Validated: 1
EndChar

StartChar: emdash
Encoding: 8212 8212 132
Width: 1743
GlyphClass: 2
Flags: W
HStem: 593 302<120 1623>
LayerCount: 2
Fore
SplineSet
120 895 m 1,0,-1
 1623 895 l 1,1,-1
 1623 593 l 1,2,-1
 120 593 l 1,3,-1
 120 895 l 1,0,-1
EndSplineSet
Validated: 1
EndChar

StartChar: afii00208
Encoding: 8213 8213 133
Width: 1743
GlyphClass: 2
Flags: W
HStem: 593 302<120 1623>
LayerCount: 2
Fore
SplineSet
120 895 m 1,0,-1
 1623 895 l 1,1,-1
 1623 593 l 1,2,-1
 120 593 l 1,3,-1
 120 895 l 1,0,-1
EndSplineSet
Validated: 1
EndChar

StartChar: quoteleft
Encoding: 8216 8216 134
Width: 434
GlyphClass: 2
Flags: W
VStem: 20 257<1097.56 1303.05>
LayerCount: 2
Fore
SplineSet
223 1550 m 1,0,1
 382 1343 l 1,2,3
 277 1299 277 1299 277 1196.5 c 128,-1,4
 277 1094 277 1094 414 1044 c 1,5,-1
 265 825 l 1,6,7
 20 986 20 986 20 1191 c 128,-1,8
 20 1396 20 1396 223 1550 c 1,0,1
EndSplineSet
Validated: 1
EndChar

StartChar: quoteright
Encoding: 8217 8217 135
Width: 434
GlyphClass: 2
Flags: W
VStem: 157 257<1097.56 1303.05>
LayerCount: 2
Fore
SplineSet
211 1550 m 1,0,1
 414 1396 414 1396 414 1191 c 128,-1,2
 414 986 414 986 169 825 c 1,3,-1
 20 1044 l 1,4,5
 157 1094 157 1094 157 1196.5 c 128,-1,6
 157 1299 157 1299 52 1343 c 1,7,-1
 211 1550 l 1,0,1
EndSplineSet
Validated: 1
EndChar

StartChar: quotesinglbase
Encoding: 8218 8218 136
Width: 434
GlyphClass: 2
Flags: W
VStem: 157 257<-101.439 104.049>
LayerCount: 2
Fore
SplineSet
211 351 m 1,0,1
 414 197 414 197 414 -8 c 128,-1,2
 414 -213 414 -213 169 -374 c 1,3,-1
 20 -155 l 1,4,5
 157 -105 157 -105 157 -2.5 c 128,-1,6
 157 100 157 100 52 144 c 1,7,-1
 211 351 l 1,0,1
EndSplineSet
Validated: 1
EndChar

StartChar: quotereversed
Encoding: 8219 8219 137
Width: 434
GlyphClass: 2
Flags: W
VStem: 20 257<1097.56 1303.05>
LayerCount: 2
Fore
SplineSet
223 1550 m 1,0,1
 382 1343 l 1,2,3
 277 1299 277 1299 277 1196.5 c 128,-1,4
 277 1094 277 1094 414 1044 c 1,5,-1
 265 825 l 1,6,7
 20 986 20 986 20 1191 c 128,-1,8
 20 1396 20 1396 223 1550 c 1,0,1
EndSplineSet
Validated: 1
EndChar

StartChar: quotedblleft
Encoding: 8220 8220 138
Width: 834
GlyphClass: 2
Flags: W
VStem: 20 257<1097.56 1303.05> 420 257<1097.56 1303.05>
LayerCount: 2
Fore
SplineSet
223 1550 m 1,0,1
 382 1343 l 1,2,3
 277 1299 277 1299 277 1196.5 c 128,-1,4
 277 1094 277 1094 414 1044 c 1,5,-1
 265 825 l 1,6,7
 20 986 20 986 20 1191 c 128,-1,8
 20 1396 20 1396 223 1550 c 1,0,1
623 1550 m 1,9,-1
 782 1343 l 1,10,11
 677 1299 677 1299 677 1196.5 c 128,-1,12
 677 1094 677 1094 814 1044 c 1,13,-1
 665 825 l 1,14,15
 420 986 420 986 420 1191 c 128,-1,16
 420 1396 420 1396 623 1550 c 1,9,-1
EndSplineSet
Validated: 1
EndChar

StartChar: quotedblright
Encoding: 8221 8221 139
Width: 834
GlyphClass: 2
Flags: W
VStem: 157 257<1097.56 1303.05> 557 257<1097.56 1303.05>
LayerCount: 2
Fore
SplineSet
611 1550 m 1,0,1
 814 1396 814 1396 814 1191 c 128,-1,2
 814 986 814 986 569 825 c 1,3,-1
 420 1044 l 1,4,5
 557 1094 557 1094 557 1196.5 c 128,-1,6
 557 1299 557 1299 452 1343 c 1,7,-1
 611 1550 l 1,0,1
211 1550 m 1,8,9
 414 1396 414 1396 414 1191 c 128,-1,10
 414 986 414 986 169 825 c 1,11,-1
 20 1044 l 1,12,13
 157 1094 157 1094 157 1196.5 c 128,-1,14
 157 1299 157 1299 52 1343 c 1,15,-1
 211 1550 l 1,8,9
EndSplineSet
Validated: 1
EndChar

StartChar: quotedblbase
Encoding: 8222 8222 140
Width: 834
GlyphClass: 2
Flags: W
VStem: 157 257<-101.439 104.049> 557 257<-101.439 104.049>
LayerCount: 2
Fore
SplineSet
611 351 m 1,0,1
 814 197 814 197 814 -8 c 128,-1,2
 814 -213 814 -213 569 -374 c 1,3,-1
 420 -155 l 1,4,5
 557 -105 557 -105 557 -2.5 c 128,-1,6
 557 100 557 100 452 144 c 1,7,-1
 611 351 l 1,0,1
211 351 m 1,8,9
 414 197 414 197 414 -8 c 128,-1,10
 414 -213 414 -213 169 -374 c 1,11,-1
 20 -155 l 1,12,13
 157 -105 157 -105 157 -2.5 c 128,-1,14
 157 100 157 100 52 144 c 1,15,-1
 211 351 l 1,8,9
EndSplineSet
Validated: 1
EndChar

StartChar: dagger
Encoding: 8224 8224 141
Width: 1174
GlyphClass: 2
Flags: W
HStem: 0 21G<437 737> 936 282<120 437 737 1054> 1490 20G<437 737>
VStem: 437 300<0 936 1218 1510>
LayerCount: 2
Fore
SplineSet
437 0 m 1,0,-1
 437 936 l 1,1,-1
 120 936 l 1,2,-1
 120 1218 l 1,3,-1
 437 1218 l 1,4,-1
 437 1510 l 1,5,-1
 737 1510 l 1,6,-1
 737 1218 l 1,7,-1
 1054 1218 l 1,8,-1
 1054 936 l 1,9,-1
 737 936 l 1,10,-1
 737 0 l 1,11,-1
 437 0 l 1,0,-1
EndSplineSet
Validated: 1
EndChar

StartChar: daggerdbl
Encoding: 8225 8225 142
Width: 1174
GlyphClass: 2
Flags: W
HStem: 0 21G<437 737> 290 282<120 437 737 1054> 936 282<120 437 737 1054> 1490 20G<437 737>
VStem: 437 300<0 290 572 936 1218 1510>
LayerCount: 2
Fore
SplineSet
437 0 m 1,0,-1
 437 290 l 1,1,-1
 120 290 l 1,2,-1
 120 572 l 1,3,-1
 437 572 l 1,4,-1
 437 936 l 1,5,-1
 120 936 l 1,6,-1
 120 1218 l 1,7,-1
 437 1218 l 1,8,-1
 437 1510 l 1,9,-1
 737 1510 l 1,10,-1
 737 1218 l 1,11,-1
 1054 1218 l 1,12,-1
 1054 936 l 1,13,-1
 737 936 l 1,14,-1
 737 572 l 1,15,-1
 1054 572 l 1,16,-1
 1054 290 l 1,17,-1
 737 290 l 1,18,-1
 737 0 l 1,19,-1
 437 0 l 1,0,-1
EndSplineSet
Validated: 1
EndChar

StartChar: bullet
Encoding: 8226 8226 143
Width: 958
GlyphClass: 2
Flags: W
HStem: 367 743<310.477 648.133>
VStem: 120 718<562.616 918.563>
LayerCount: 2
Fore
SplineSet
480.5 1110 m 128,-1,1
 631 1110 631 1110 735 1001 c 0,2,3
 838 892 838 892 838 740 c 0,4,5
 838 587 838 587 733 477 c 128,-1,6
 628 367 628 367 479.5 367 c 128,-1,7
 331 367 331 367 225 478 c 0,8,9
 120 588 120 588 120 741 c 128,-1,10
 120 894 120 894 225 1002 c 128,-1,0
 330 1110 330 1110 480.5 1110 c 128,-1,1
EndSplineSet
Validated: 1
EndChar

StartChar: ellipsis
Encoding: 8230 8230 144
Width: 1289
GlyphClass: 2
Flags: W
HStem: -20 383<87.9337 329.782 523.934 765.782 959.934 1201.78>
VStem: 20 377<48.8853 296.279> 456 377<48.8853 296.279> 892 377<48.8853 296.279>
CounterMasks: 1 70
LayerCount: 2
Fore
SplineSet
1079 -20 m 128,-1,1
 999 -20 999 -20 946 38 c 0,2,3
 892 95 892 95 892 174.5 c 128,-1,4
 892 254 892 254 947.5 308.5 c 128,-1,5
 1003 363 1003 363 1083 363 c 0,6,7
 1165 363 1165 363 1217 309 c 128,-1,8
 1269 255 1269 255 1269 173 c 0,9,10
 1269 90 1269 90 1215 36 c 0,11,0
 1159 -20 1159 -20 1079 -20 c 128,-1,1
643 -20 m 128,-1,13
 563 -20 563 -20 510 38 c 0,14,15
 456 95 456 95 456 174.5 c 128,-1,16
 456 254 456 254 511.5 308.5 c 128,-1,17
 567 363 567 363 647 363 c 0,18,19
 729 363 729 363 781 309 c 128,-1,20
 833 255 833 255 833 173 c 0,21,22
 833 90 833 90 779 36 c 0,23,12
 723 -20 723 -20 643 -20 c 128,-1,13
207 -20 m 128,-1,25
 127 -20 127 -20 74 38 c 0,26,27
 20 95 20 95 20 174.5 c 128,-1,28
 20 254 20 254 75.5 308.5 c 128,-1,29
 131 363 131 363 211 363 c 0,30,31
 293 363 293 363 345 309 c 128,-1,32
 397 255 397 255 397 173 c 0,33,34
 397 90 397 90 343 36 c 0,35,24
 287 -20 287 -20 207 -20 c 128,-1,25
EndSplineSet
Validated: 1
EndChar

StartChar: perthousand
Encoding: 8240 8240 145
Width: 2460
GlyphClass: 2
Flags: W
HStem: -20 221<1173.9 1351.16 1912.9 2090.16> 439 224<1174.84 1352.13 1913.84 2091.13> 847 221<367.787 544.301> 1306 224<368.836 545.863>
VStem: 120 216<1100.73 1273.29> 577 217<1100.3 1274.79> 926 216<233.728 406.289> 1384 217<233.302 407.562> 1665 216<233.728 406.289> 2123 217<233.302 407.562>
DStem2: 226 130 428 -24 0.601626 0.798778<0 1757.4>
LayerCount: 2
Fore
SplineSet
2002 439 m 128,-1,1
 1951 439 1951 439 1916 404 c 128,-1,2
 1881 369 1881 369 1881 320 c 128,-1,3
 1881 271 1881 271 1916 236 c 128,-1,4
 1951 201 1951 201 2002 201 c 128,-1,5
 2053 201 2053 201 2088 237 c 128,-1,6
 2123 273 2123 273 2123 322 c 128,-1,7
 2123 371 2123 371 2088 405 c 128,-1,0
 2053 439 2053 439 2002 439 c 128,-1,1
2001 -20 m 128,-1,9
 1859 -20 1859 -20 1762 81 c 128,-1,10
 1665 182 1665 182 1665 322 c 128,-1,11
 1665 462 1665 462 1763 563 c 0,12,13
 1861 663 1861 663 2003 663 c 128,-1,14
 2145 663 2145 663 2242.5 561 c 128,-1,15
 2340 459 2340 459 2340 320 c 0,16,17
 2340 180 2340 180 2241 80 c 0,18,8
 2143 -20 2143 -20 2001 -20 c 128,-1,9
1263 439 m 128,-1,20
 1212 439 1212 439 1177 404 c 128,-1,21
 1142 369 1142 369 1142 320 c 128,-1,22
 1142 271 1142 271 1177 236 c 128,-1,23
 1212 201 1212 201 1263 201 c 128,-1,24
 1314 201 1314 201 1349 237 c 128,-1,25
 1384 273 1384 273 1384 322 c 128,-1,26
 1384 371 1384 371 1349 405 c 128,-1,19
 1314 439 1314 439 1263 439 c 128,-1,20
1262 -20 m 128,-1,28
 1120 -20 1120 -20 1023 81 c 128,-1,29
 926 182 926 182 926 322 c 128,-1,30
 926 462 926 462 1024 563 c 0,31,32
 1122 663 1122 663 1264 663 c 128,-1,33
 1406 663 1406 663 1503.5 561 c 128,-1,34
 1601 459 1601 459 1601 320 c 0,35,36
 1601 180 1601 180 1502 80 c 0,37,27
 1404 -20 1404 -20 1262 -20 c 128,-1,28
457 1306 m 128,-1,39
 406 1306 406 1306 371 1271 c 128,-1,40
 336 1236 336 1236 336 1187 c 128,-1,41
 336 1138 336 1138 371 1103 c 128,-1,42
 406 1068 406 1068 456.5 1068 c 128,-1,43
 507 1068 507 1068 542 1104 c 128,-1,44
 577 1140 577 1140 577 1189 c 128,-1,45
 577 1238 577 1238 542.5 1272 c 128,-1,38
 508 1306 508 1306 457 1306 c 128,-1,39
458 1530 m 128,-1,47
 600 1530 600 1530 697 1428 c 0,48,49
 794 1327 794 1327 794 1187 c 128,-1,50
 794 1047 794 1047 695.5 947 c 128,-1,51
 597 847 597 847 455.5 847 c 128,-1,52
 314 847 314 847 217 948 c 128,-1,53
 120 1049 120 1049 120 1189 c 128,-1,54
 120 1329 120 1329 218 1430 c 0,55,46
 316 1530 316 1530 458 1530 c 128,-1,47
428 -24 m 1,56,-1
 226 130 l 1,57,-1
 1283 1534 l 1,58,-1
 1493 1390 l 1,59,-1
 428 -24 l 1,56,-1
EndSplineSet
Validated: 1
EndChar

StartChar: minute
Encoding: 8242 8242 146
Width: 458
GlyphClass: 2
Flags: W
HStem: 941 589
VStem: 20 418
DStem2: 20 1027 263 941 0.327432 0.944875<0 532.573>
LayerCount: 2
Fore
SplineSet
195 1530 m 1,0,-1
 438 1446 l 1,1,-1
 263 941 l 1,2,-1
 20 1027 l 1,3,-1
 195 1530 l 1,0,-1
EndSplineSet
Validated: 1
EndChar

StartChar: second
Encoding: 8243 8243 147
Width: 882
GlyphClass: 2
Flags: W
HStem: 941 589
DStem2: 20 1027 263 941 0.327432 0.944875<0 532.573> 444 1027 687 941 0.327432 0.944875<0 532.573>
LayerCount: 2
Fore
SplineSet
619 1530 m 1,0,-1
 862 1446 l 1,1,-1
 687 941 l 1,2,-1
 444 1027 l 1,3,-1
 619 1530 l 1,0,-1
195 1530 m 1,4,-1
 438 1446 l 1,5,-1
 263 941 l 1,6,-1
 20 1027 l 1,7,-1
 195 1530 l 1,4,-1
EndSplineSet
Validated: 1
EndChar

StartChar: guilsinglleft
Encoding: 8249 8249 148
Width: 981
GlyphClass: 2
Flags: W
DStem2: 485 746 120 746 0.643475 -0.765467<0 506.774> 120 746 485 746 0.642688 0.766128<234.581 742.121>
LayerCount: 2
Fore
SplineSet
599 1317 m 1,0,-1
 811 1135 l 1,1,-1
 485 746 l 1,2,-1
 811 358 l 1,3,-1
 600 175 l 1,4,-1
 120 746 l 1,5,-1
 599 1317 l 1,0,-1
EndSplineSet
Validated: 1
EndChar

StartChar: guilsinglright
Encoding: 8250 8250 149
Width: 981
GlyphClass: 2
Flags: W
DStem2: 382 1317 170 1135 0.642688 -0.766128<3.18527 510.725> 170 358 381 175 0.643475 0.765467<0 506.774>
LayerCount: 2
Fore
SplineSet
382 1317 m 1,0,-1
 861 746 l 1,1,-1
 381 175 l 1,2,-1
 170 358 l 1,3,-1
 496 746 l 1,4,-1
 170 1135 l 1,5,-1
 382 1317 l 1,0,-1
EndSplineSet
Validated: 1
EndChar

StartChar: fraction
Encoding: 8260 8260 150
Width: 1175
GlyphClass: 2
Flags: W
DStem2: 10 -144 245 -262 0.433037 0.901376<0 2119.93>
LayerCount: 2
Fore
SplineSet
929 1769 m 1,0,-1
 1165 1653 l 1,1,-1
 245 -262 l 1,2,-1
 10 -144 l 1,3,-1
 929 1769 l 1,0,-1
EndSplineSet
Validated: 1
EndChar

StartChar: Euro
Encoding: 8364 8364 151
Width: 1654
GlyphClass: 2
Flags: W
HStem: -20 300<754.317 1164.98> 548 150<70 172 531 1008> 804 150<70 171 527 1008> 1230 300<754.908 1165.82>
VStem: 170 320<698 804>
LayerCount: 2
Fore
SplineSet
959 -20 m 0,0,1
 614 -20 614 -20 392 208 c 0,2,3
 246 358 246 358 196 548 c 1,4,-1
 70 548 l 1,5,-1
 70 698 l 1,6,-1
 172 698 l 1,7,8
 170 727 170 727 170 757 c 0,9,10
 170 781 170 781 171 804 c 1,11,-1
 70 804 l 1,12,-1
 70 954 l 1,13,-1
 192 954 l 1,14,15
 239 1149 239 1149 384 1294 c 0,16,17
 621 1530 621 1530 962 1530 c 0,18,19
 1305 1530 1305 1530 1534 1293 c 1,20,-1
 1292 1097 l 1,21,22
 1156 1230 1156 1230 959 1230 c 0,23,24
 761 1230 761 1230 625 1097 c 0,25,26
 561 1034 561 1034 527 954 c 1,27,-1
 1008 954 l 1,28,-1
 1008 804 l 1,29,-1
 492 804 l 1,30,31
 490 780 490 780 490 755 c 0,32,33
 490 726 490 726 493 698 c 1,34,-1
 1008 698 l 1,35,-1
 1008 548 l 1,36,-1
 531 548 l 1,37,38
 565 472 565 472 626 412 c 0,39,40
 765 280 765 280 960 280 c 0,41,42
 1158 280 1158 280 1293 413 c 1,43,-1
 1525 208 l 1,44,45
 1303 -20 1303 -20 959 -20 c 0,0,1
EndSplineSet
Validated: 1
EndChar

StartChar: afii61248
Encoding: 8453 8453 152
Width: 2190
GlyphClass: 2
Flags: W
HStem: -20 262<1508.35 1755.17> 580 261<1509.54 1754.41> 669 262<434.474 714.525> 1269 261<433.968 713.968>
VStem: 120 266<978.767 1221.15> 1194 266<289.736 531.379> 1804 266<292.337 529.008>
DStem2: 430 134 632 -20 0.601635 0.798771<0 1747.4>
LayerCount: 2
Fore
SplineSet
1634 242 m 0,0,1
 1708 242 1708 242 1756 287 c 128,-1,2
 1804 332 1804 332 1804 411 c 0,3,4
 1804 486 1804 486 1757 534 c 0,5,6
 1712 580 1712 580 1634 580 c 0,7,8
 1552 580 1552 580 1507 534 c 0,9,10
 1460 486 1460 486 1460 411 c 0,11,12
 1460 331 1460 331 1507 287 c 0,13,14
 1556 242 1556 242 1634 242 c 0,0,1
1632 -20 m 128,-1,16
 1450 -20 1450 -20 1322 102 c 128,-1,17
 1194 224 1194 224 1194 410 c 0,18,19
 1194 599 1194 599 1324 719 c 0,20,21
 1454 841 1454 841 1633 841 c 0,22,23
 1808 841 1808 841 1940 719 c 0,24,25
 2070 600 2070 600 2070 410 c 0,26,27
 2070 224 2070 224 1942 102 c 128,-1,15
 1814 -20 1814 -20 1632 -20 c 128,-1,16
632 -20 m 1,28,-1
 430 134 l 1,29,-1
 1481 1530 l 1,30,-1
 1691 1386 l 1,31,-1
 632 -20 l 1,28,-1
554 1530 m 0,32,33
 738 1530 738 1530 865 1403 c 1,34,-1
 682 1218 l 1,35,36
 631 1269 631 1269 556 1269 c 0,37,38
 478 1269 478 1269 432 1223 c 0,39,40
 386 1176 386 1176 386 1100 c 0,41,42
 386 1021 386 1021 433.5 976 c 128,-1,43
 481 931 481 931 556 931 c 128,-1,44
 631 931 631 931 684 984 c 1,45,-1
 865 795 l 1,46,47
 739 669 739 669 557.5 669 c 128,-1,48
 376 669 376 669 248 791 c 128,-1,49
 120 913 120 913 120 1099 c 0,50,51
 120 1288 120 1288 249 1408 c 0,52,53
 380 1530 380 1530 554 1530 c 0,32,33
EndSplineSet
Validated: 1
EndChar

StartChar: afii61289
Encoding: 8467 8467 153
Width: 1267
GlyphClass: 2
Flags: W
HStem: 0 21G<646 755> 1490 20G<814.5 906.5>
LayerCount: 2
Fore
SplineSet
700 0 m 0,0,1
 592 0 592 0 511 64 c 1,2,-1
 484 21 l 1,3,-1
 120 21 l 1,4,5
 283 184 283 184 380 338 c 1,6,7
 371 408 371 408 371 506 c 128,-1,8
 371 604 371 604 402 742 c 0,9,10
 507 1203 507 1203 671 1403 c 0,11,12
 759 1510 759 1510 870 1510 c 0,13,14
 943 1510 943 1510 1005.5 1458 c 128,-1,15
 1068 1406 1068 1406 1068 1261 c 0,16,17
 1068 1169 1068 1169 1037 1025 c 0,18,19
 967 704 967 704 686 292 c 1,20,21
 700 236 700 236 709 236 c 0,22,23
 726 236 726 236 751 280 c 0,24,25
 766 306 766 306 781 339 c 1,26,-1
 1097 339 l 1,27,28
 1004 164 1004 164 907 82 c 128,-1,29
 810 0 810 0 700 0 c 0,0,1
EndSplineSet
Validated: 1
EndChar

StartChar: trademark
Encoding: 8482 8482 154
Width: 2023
GlyphClass: 2
Flags: W
HStem: 1296 214<120 350 592.562 824>
VStem: 120 230<1296 1510> 360 225<660 1296> 883 215<660 875> 1566 220<1290 1510> 1634 219<660 879>
DStem2: 883 660 1098 660 0.0726886 0.997355<15.628 347.497> 1148 1510 908 1510 0.381679 -0.924295<0 189.553 469.785 591.467> 1786 1510 1566 1510 0.0797452 -0.996815<0 243.303 503.152 835.172>
LayerCount: 2
Fore
SplineSet
824 1510 m 1,0,-1
 824 1296 l 1,1,-1
 616 1296 l 2,2,3
 585 1296 585 1296 585 1266 c 2,4,-1
 585 660 l 1,5,-1
 360 660 l 1,6,-1
 360 1296 l 2,7,8
 360 1510 360 1510 616 1510 c 2,9,-1
 824 1510 l 1,0,-1
120 1510 m 1,10,-1
 350 1510 l 1,11,-1
 350 1296 l 1,12,-1
 120 1296 l 1,13,-1
 120 1510 l 1,10,-1
1786 1510 m 1,14,-1
 1853 660 l 1,15,-1
 1634 660 l 1,16,-1
 1608 991 l 1,17,-1
 1472 660 l 1,18,-1
 1259 660 l 1,19,-1
 1122 991 l 1,20,-1
 1098 660 l 1,21,-1
 883 660 l 1,22,-1
 926 1250 l 1,23,-1
 1015 1250 l 1,24,-1
 908 1510 l 1,25,-1
 1148 1510 l 1,26,-1
 1373 963 l 1,27,-1
 1489 1250 l 1,28,-1
 1587 1250 l 1,29,-1
 1566 1510 l 1,30,-1
 1786 1510 l 1,14,-1
EndSplineSet
Validated: 1
EndChar

StartChar: uni2126
Encoding: 8486 8486 155
Width: 1868
GlyphClass: 2
Flags: W
HStem: 0 300<20 378 689.934 823 1045 1178.24 1490 1848> 1230 300<728.908 1139.82>
VStem: 144 320<540.357 966.13> 1402 320<543.733 968.104>
LayerCount: 2
Fore
SplineSet
20 0 m 1,0,-1
 20 300 l 1,1,-1
 378 300 l 1,2,3
 144 478 144 478 144 757 c 0,4,5
 144 1080 144 1080 358 1294 c 0,6,7
 595 1530 595 1530 936 1530 c 0,8,9
 1279 1530 1279 1530 1508 1293 c 0,10,11
 1722 1072 1722 1072 1722 754 c 0,12,13
 1722 487 1722 487 1490 300 c 1,14,-1
 1848 300 l 1,15,-1
 1848 0 l 1,16,-1
 1045 0 l 1,17,-1
 1045 291 l 1,18,19
 1173 320 1173 320 1267 413 c 0,20,21
 1402 547 1402 547 1402 755.5 c 128,-1,22
 1402 964 1402 964 1266 1097 c 128,-1,23
 1130 1230 1130 1230 933 1230 c 0,24,25
 735 1230 735 1230 599 1097 c 0,26,27
 464 964 464 964 464 755 c 0,28,29
 464 541 464 541 600 412 c 0,30,31
 696 321 696 321 823 291 c 1,32,-1
 823 0 l 1,33,-1
 20 0 l 1,0,-1
EndSplineSet
Validated: 1
EndChar

StartChar: estimated
Encoding: 8494 8494 156
Width: 1319
GlyphClass: 2
Flags: W
HStem: 0 193<473.359 842.793> 533 194<420 896> 995 194<470.243 840.744>
VStem: 70 350<356.599 533 727 838.837>
LayerCount: 2
Fore
SplineSet
658 0 m 0,0,1
 394 0 394 0 232 171 c 128,-1,2
 70 342 70 342 70 598 c 0,3,4
 70 855 70 855 234 1021 c 0,5,6
 400 1189 400 1189 655 1189 c 128,-1,7
 910 1189 910 1189 1066 1036 c 0,8,9
 1249 855 1249 855 1249 533 c 1,10,-1
 420 533 l 1,11,-1
 420 273 l 1,12,13
 520 193 520 193 658 193 c 0,14,15
 877 193 877 193 1001 391 c 1,16,-1
 1174 290 l 1,17,18
 1044 111 1044 111 918.5 55.5 c 128,-1,19
 793 0 793 0 658 0 c 0,0,1
896 727 m 1,20,-1
 896 918 l 1,21,22
 793 995 793 995 656 995 c 0,23,24
 517 995 517 995 420 917 c 1,25,-1
 420 727 l 1,26,-1
 896 727 l 1,20,-1
EndSplineSet
Validated: 1
EndChar

StartChar: partialdiff
Encoding: 8706 8706 157
Width: 1345
GlyphClass: 2
Flags: W
HStem: -20 273<454.109 676.396> 822 261<591.868 837.381> 1257 273<512.596 837.116>
VStem: 120 309<274.958 624.749>
LayerCount: 2
Fore
SplineSet
542 -20 m 0,0,1
 272 -20 272 -20 173 171 c 0,2,3
 120 273 120 273 120 416 c 0,4,5
 120 673 120 673 274 878 c 128,-1,6
 428 1083 428 1083 700 1083 c 0,7,8
 819 1083 819 1083 916 1024 c 1,9,10
 905 1128 905 1128 875 1173 c 0,11,12
 819 1257 819 1257 696 1257 c 0,13,14
 541 1257 541 1257 390 1132 c 1,15,-1
 390 1443 l 1,16,17
 536 1530 536 1530 733 1530 c 0,18,19
 1050 1530 1050 1530 1166 1271 c 0,20,21
 1225 1139 1225 1139 1225 950 c 0,22,23
 1225 563 1225 563 1042 272 c 0,24,25
 861 -20 861 -20 542 -20 c 0,0,1
889 699 m 1,26,27
 868 756 868 756 825 788 c 0,28,29
 779 822 779 822 725 822 c 0,30,31
 600 822 600 822 520 706 c 0,32,33
 429 572 429 572 429 432 c 128,-1,34
 429 292 429 292 487 266 c 0,35,36
 518 253 518 253 555 253 c 0,37,38
 662 253 662 253 757 376 c 128,-1,39
 852 499 852 499 889 699 c 1,26,27
EndSplineSet
Validated: 1
EndChar

StartChar: uni2206
Encoding: 8710 8710 158
Width: 1839
GlyphClass: 2
Flags: W
HStem: 0 300<509 1337> 1490 20G<793.417 1071.24>
DStem2: 5 0 509 300 0.467699 0.883888<500.887 1400.48> 1061 1510 930 1095 0.455682 -0.890143<309.715 1202.84>
LayerCount: 2
Fore
SplineSet
5 0 m 1,0,-1
 804 1510 l 1,1,-1
 1061 1510 l 1,2,-1
 1834 0 l 1,3,-1
 5 0 l 1,0,-1
509 300 m 1,4,-1
 1337 300 l 1,5,-1
 930 1095 l 1,6,-1
 509 300 l 1,4,-1
EndSplineSet
Validated: 1
EndChar

StartChar: product
Encoding: 8719 8719 159
Width: 1609
GlyphClass: 2
Flags: W
HStem: 1210 300<490 1119>
VStem: 170 320<-410 1210> 1119 320<-410 1210>
LayerCount: 2
Fore
SplineSet
170 -410 m 1,0,-1
 170 1510 l 1,1,-1
 1439 1510 l 1,2,-1
 1439 -410 l 1,3,-1
 1119 -410 l 1,4,-1
 1119 1210 l 1,5,-1
 490 1210 l 1,6,-1
 490 -410 l 1,7,-1
 170 -410 l 1,0,-1
EndSplineSet
Validated: 1
EndChar

StartChar: summation
Encoding: 8721 8721 160
Width: 1425
GlyphClass: 2
Flags: W
HStem: -410 300<610 1305> 1210 300<582 1214>
DStem2: 582 1210 70 1510 0.4724 -0.881384<0 581.777> 113 -410 610 -110 0.440098 0.89795<488.114 1070.22>
LayerCount: 2
Fore
SplineSet
113 -410 m 1,0,-1
 584 551 l 1,1,-1
 70 1510 l 1,2,-1
 1214 1510 l 1,3,-1
 1214 1210 l 1,4,-1
 582 1210 l 1,5,-1
 935 550 l 1,6,-1
 610 -110 l 1,7,-1
 1305 -110 l 1,8,-1
 1305 -410 l 1,9,-1
 113 -410 l 1,0,-1
EndSplineSet
Validated: 1
EndChar

StartChar: minus
Encoding: 8722 8722 161
Width: 1193
GlyphClass: 2
Flags: W
HStem: 593 302<120 1073>
LayerCount: 2
Fore
SplineSet
120 895 m 1,0,-1
 1073 895 l 1,1,-1
 1073 593 l 1,2,-1
 120 593 l 1,3,-1
 120 895 l 1,0,-1
EndSplineSet
Validated: 1
EndChar

StartChar: uni2215
Encoding: 8725 8725 162
Width: 1175
GlyphClass: 2
Flags: W
DStem2: 10 -144 245 -262 0.433037 0.901376<0 2119.93>
LayerCount: 2
Fore
SplineSet
929 1769 m 1,0,-1
 1165 1653 l 1,1,-1
 245 -262 l 1,2,-1
 10 -144 l 1,3,-1
 929 1769 l 1,0,-1
EndSplineSet
Validated: 1
EndChar

StartChar: uni2219
Encoding: 8729 8729 163
Width: 417
GlyphClass: 2
Flags: W
HStem: 563 383<87.9337 329.782>
VStem: 20 377<631.885 879.279>
LayerCount: 2
Fore
SplineSet
211 946 m 0,0,1
 293 946 293 946 345 892 c 128,-1,2
 397 838 397 838 397 756 c 0,3,4
 397 673 397 673 343 619 c 0,5,6
 287 563 287 563 207 563 c 128,-1,7
 127 563 127 563 74 621 c 0,8,9
 20 678 20 678 20 757.5 c 128,-1,10
 20 837 20 837 75.5 891.5 c 128,-1,11
 131 946 131 946 211 946 c 0,0,1
EndSplineSet
Validated: 19457
EndChar

StartChar: radical
Encoding: 8730 8730 164
Width: 1464
GlyphClass: 2
Flags: W
HStem: 0 21G<502.364 750.011> 1230 280<1230.66 1444>
DStem2: 405 833 70 833 0.469543 -0.88291<0 437.003> 608 446 742 0 0.371825 0.928303<0 965.952>
LayerCount: 2
Fore
SplineSet
513 0 m 1,0,-1
 70 833 l 1,1,-1
 405 833 l 1,2,-1
 608 446 l 1,3,-1
 881 1141 l 2,4,5
 1026 1510 1026 1510 1307 1510 c 2,6,-1
 1444 1510 l 1,7,-1
 1444 1230 l 1,8,-1
 1307 1230 l 2,9,10
 1235 1230 1235 1230 1185 1106 c 2,11,-1
 742 0 l 1,12,-1
 513 0 l 1,0,-1
EndSplineSet
Validated: 1
EndChar

StartChar: infinity
Encoding: 8734 8734 165
Width: 1657
GlyphClass: 2
Flags: W
HStem: 374 305<449.017 641.794 1051.83 1206.9> 1002 308<449.08 603.491 1011.64 1207.98>
VStem: 120 292<719.8 960.493> 1245 292<723.537 964.2>
LayerCount: 2
Fore
SplineSet
529 1310 m 0,0,1
 676 1310 676 1310 778 1214 c 0,2,3
 860 1138 860 1138 954 898 c 0,4,5
 1039 682 1039 682 1127 682 c 0,6,7
 1178 682 1178 682 1210 727 c 0,8,9
 1245 777 1245 777 1245 847 c 0,10,11
 1245 915 1245 915 1208 962 c 0,12,13
 1174 1005 1174 1005 1115 1005 c 0,14,15
 1034 1005 1034 1005 971 906 c 1,16,-1
 971 1239 l 1,17,18
 1043 1310 1043 1310 1142 1310 c 0,19,20
 1313 1310 1313 1310 1425 1175 c 0,21,22
 1537 1039 1537 1039 1537 849 c 128,-1,23
 1537 659 1537 659 1420 516 c 0,24,25
 1303 374 1303 374 1128 374 c 0,26,27
 981 374 981 374 879 470 c 0,28,29
 804 540 804 540 706 774 c 8,30,31
 610 1002 610 1002 530 1002 c 0,32,33
 479 1002 479 1002 447 957 c 0,34,35
 412 909 412 909 412 837 c 0,36,37
 412 769 412 769 449 722 c 0,38,39
 483 679 483 679 542 679 c 0,40,41
 623 679 623 679 686 778 c 1,42,-1
 686 445 l 1,43,44
 614 374 614 374 515 374 c 0,45,46
 344 374 344 374 232 509 c 0,47,48
 120 645 120 645 120 835 c 128,-1,49
 120 1025 120 1025 237 1168 c 0,50,51
 354 1310 354 1310 529 1310 c 0,0,1
EndSplineSet
Validated: 1
EndChar

StartChar: approxequal
Encoding: 8776 8776 166
Width: 1445
GlyphClass: 2
Flags: W
HStem: 181 310<876.208 1019.05> 448 310<425.612 568.792> 745 310<876.208 1019.05> 1012 310<425.612 568.792>
LayerCount: 2
Fore
SplineSet
1083 712 m 1,0,-1
 1325 586 l 1,1,2
 1246 181 1246 181 936 181 c 0,3,4
 810 181 810 181 691 291 c 2,5,-1
 566 407 l 2,6,7
 522 448 522 448 499 448 c 0,8,9
 402 448 402 448 361 227 c 1,10,-1
 120 353 l 1,11,12
 199 758 199 758 509 758 c 0,13,14
 635 758 635 758 754 648 c 2,15,-1
 879 532 l 2,16,17
 923 491 923 491 946 491 c 0,18,19
 1042 491 1042 491 1083 712 c 1,0,-1
1083 1276 m 1,20,-1
 1325 1150 l 1,21,22
 1246 745 1246 745 936 745 c 0,23,24
 810 745 810 745 691 855 c 2,25,-1
 566 971 l 2,26,27
 522 1012 522 1012 499 1012 c 0,28,29
 402 1012 402 1012 361 791 c 1,30,-1
 120 917 l 1,31,32
 199 1322 199 1322 509 1322 c 0,33,34
 635 1322 635 1322 754 1212 c 2,35,-1
 879 1096 l 2,36,37
 923 1055 923 1055 946 1055 c 0,38,39
 1042 1055 1042 1055 1083 1276 c 1,20,-1
EndSplineSet
Validated: 1
EndChar

StartChar: notequal
Encoding: 8800 8800 167
Width: 1193
GlyphClass: 2
Flags: W
HStem: 0 21G<246.261 298.541> 370 271<120 303 626 1073> 838 271<120 549 872 1073> 1491 20G<893.453 947.284>
DStem2: 144 69 288 0 0.466226 0.884666<6.09464 340.414 730.75 869.129 1259.46 1630.02>
LayerCount: 2
Fore
SplineSet
288 0 m 1,0,-1
 144 69 l 1,1,-1
 303 370 l 1,2,-1
 120 370 l 1,3,-1
 120 641 l 1,4,-1
 445 641 l 1,5,-1
 549 838 l 1,6,-1
 120 838 l 1,7,-1
 120 1109 l 1,8,-1
 692 1109 l 1,9,-1
 904 1511 l 1,10,-1
 1049 1444 l 1,11,-1
 872 1109 l 1,12,-1
 1073 1109 l 1,13,-1
 1073 838 l 1,14,-1
 730 838 l 1,15,-1
 626 641 l 1,16,-1
 1073 641 l 1,17,-1
 1073 370 l 1,18,-1
 483 370 l 1,19,-1
 288 0 l 1,0,-1
EndSplineSet
Validated: 1
EndChar

StartChar: lessequal
Encoding: 8804 8804 168
Width: 1243
GlyphClass: 2
Flags: W
HStem: 0 301<120 1073> 1510 20G<885.915 930.508>
DStem2: 120 1047 477 923 0.855787 0.517328<241.367 927.366> 477 923 120 798 0.865233 -0.50137<0 676.627>
LayerCount: 2
Fore
SplineSet
120 0 m 1,0,-1
 120 301 l 1,1,-1
 1073 301 l 1,2,-1
 1073 0 l 1,3,-1
 120 0 l 1,0,-1
919 1530 m 1,4,-1
 1064 1278 l 1,5,-1
 477 923 l 1,6,-1
 1062 583 l 1,7,-1
 938 324 l 1,8,-1
 120 798 l 1,9,-1
 120 1047 l 1,10,-1
 919 1530 l 1,4,-1
EndSplineSet
Validated: 1
EndChar

StartChar: greaterequal
Encoding: 8805 8805 169
Width: 1243
GlyphClass: 2
Flags: W
HStem: 0 301<170 1123> 1510 20G<303.492 348.085>
DStem2: 315 1530 170 1278 0.855787 -0.517328<6.27756 692.276> 172 583 296 324 0.865233 0.50137<0 676.627>
LayerCount: 2
Fore
SplineSet
170 0 m 1,0,-1
 170 301 l 1,1,-1
 1123 301 l 1,2,-1
 1123 0 l 1,3,-1
 170 0 l 1,0,-1
315 1530 m 1,4,-1
 1114 1047 l 1,5,-1
 1114 798 l 1,6,-1
 296 324 l 1,7,-1
 172 583 l 1,8,-1
 757 923 l 1,9,-1
 170 1278 l 1,10,-1
 315 1530 l 1,4,-1
EndSplineSet
Validated: 1
EndChar

StartChar: lozenge
Encoding: 9674 9674 170
Width: 1255
GlyphClass: 2
Flags: W
HStem: 0 21G<613.548 642.378> 1505 20G<614.223 641.805>
DStem2: 90 744 419 739 0.567289 0.823519<182.521 552.001> 419 739 94 739 0.585968 -0.810334<0 365.256> 628 1525 629 1043 0.568054 -0.822991<397.25 772.295> 633 443 628 0 0.583703 0.811967<0 359.672>
LayerCount: 2
Fore
SplineSet
629 1043 m 1,0,-1
 419 739 l 1,1,-1
 633 443 l 1,2,-1
 843 735 l 1,3,-1
 629 1043 l 1,0,-1
628 0 m 1,4,-1
 94 739 l 1,5,-1
 90 744 l 1,6,-1
 628 1525 l 1,7,-1
 1165 747 l 1,8,-1
 628 0 l 1,4,-1
EndSplineSet
Validated: 1
EndChar

StartChar: Wgrave
Encoding: 7808 7808 171
Width: 2262
Flags: W
HStem: 0 21G<745.066 1100 1291.07 1883> 1490 20G<5 359.934 551 904.941 1497 2071.5>
VStem: 1872 320<799.505 1201.22>
DStem2: 350 1510 5 1510 0.44484 -0.89561<0 1532.53> 895 1510 551 1510 0.44484 -0.89561<0 1332.25> 857 2010 715 1851 0.742951 -0.669346<0.926964 433.341>
LayerCount: 2
Fore
SplineSet
857 2010 m 1,0,-1
 1179 1720 l 1,1,-1
 1038 1560 l 1,2,-1
 715 1851 l 1,3,-1
 857 2010 l 1,0,-1
1301 0 m 1,4,-1
 551 1510 l 1,5,-1
 895 1510 l 1,6,-1
 1488 317 l 1,7,8
 1872 709 1872 709 1872 1008 c 0,9,10
 1872 1308 1872 1308 1497 1510 c 1,11,-1
 1951 1510 l 1,12,13
 2192 1284 2192 1284 2192 987 c 0,14,15
 2192 570 2192 570 1574 0 c 1,16,-1
 1301 0 l 1,4,-1
755 0 m 1,17,-1
 5 1510 l 1,18,-1
 350 1510 l 1,19,-1
 1100 0 l 1,20,-1
 755 0 l 1,17,-1
EndSplineSet
Validated: 1
EndChar

StartChar: wgrave
Encoding: 7809 7809 172
Width: 1865
Flags: W
HStem: 0 21G<555.8 898 1044.8 1551.5> 1080 20G<5 346.218 494 834.222 1176 1702.5>
VStem: 1495 300<538.837 882.326>
DStem2: 336 1100 5 1100 0.454968 -0.890508<0 1084.2> 824 1100 494 1100 0.454326 -0.890835<0 909.668> 709 1630 567 1471 0.742951 -0.669346<0.926964 433.341>
LayerCount: 2
Fore
SplineSet
709 1630 m 1,0,-1
 1031 1340 l 1,1,-1
 890 1180 l 1,2,-1
 567 1471 l 1,3,-1
 709 1630 l 1,0,-1
1055 0 m 1,4,-1
 494 1100 l 1,5,-1
 824 1100 l 1,6,-1
 1238 290 l 1,7,8
 1495 504 1495 504 1495 703 c 0,9,10
 1495 968 1495 968 1176 1100 c 1,11,-1
 1610 1100 l 1,12,13
 1795 940 1795 940 1795 717 c 0,14,15
 1795 390 1795 390 1308 0 c 1,16,-1
 1055 0 l 1,4,-1
566 0 m 1,17,-1
 5 1100 l 1,18,-1
 336 1100 l 1,19,-1
 898 0 l 1,20,-1
 566 0 l 1,17,-1
EndSplineSet
Validated: 1
EndChar

StartChar: Wacute
Encoding: 7810 7810 173
Width: 2262
Flags: W
HStem: 0 21G<745.066 1100 1291.07 1883> 1490 20G<5 359.934 551 904.941 1497 2071.5>
VStem: 1872 320<799.505 1201.22>
DStem2: 350 1510 5 1510 0.44484 -0.89561<0 1532.53> 895 1510 551 1510 0.44484 -0.89561<0 1332.25> 907 1720 1048 1560 0.742951 0.669346<0 432.414>
LayerCount: 2
Fore
SplineSet
1229 2010 m 1,0,-1
 1371 1851 l 1,1,-1
 1048 1560 l 1,2,-1
 907 1720 l 1,3,-1
 1229 2010 l 1,0,-1
1301 0 m 1,4,-1
 551 1510 l 1,5,-1
 895 1510 l 1,6,-1
 1488 317 l 1,7,8
 1872 709 1872 709 1872 1008 c 0,9,10
 1872 1308 1872 1308 1497 1510 c 1,11,-1
 1951 1510 l 1,12,13
 2192 1284 2192 1284 2192 987 c 0,14,15
 2192 570 2192 570 1574 0 c 1,16,-1
 1301 0 l 1,4,-1
755 0 m 1,17,-1
 5 1510 l 1,18,-1
 350 1510 l 1,19,-1
 1100 0 l 1,20,-1
 755 0 l 1,17,-1
EndSplineSet
Validated: 1
EndChar

StartChar: wacute
Encoding: 7811 7811 174
Width: 1865
Flags: W
HStem: 0 21G<555.8 898 1044.8 1551.5> 1080 20G<5 346.218 494 834.222 1176 1702.5>
VStem: 1495 300<538.837 882.326>
DStem2: 336 1100 5 1100 0.454968 -0.890508<0 1084.2> 824 1100 494 1100 0.454326 -0.890835<0 909.668> 732 1340 873 1180 0.742951 0.669346<0 432.414>
LayerCount: 2
Fore
SplineSet
1054 1630 m 1,0,-1
 1196 1471 l 1,1,-1
 873 1180 l 1,2,-1
 732 1340 l 1,3,-1
 1054 1630 l 1,0,-1
1055 0 m 1,4,-1
 494 1100 l 1,5,-1
 824 1100 l 1,6,-1
 1238 290 l 1,7,8
 1495 504 1495 504 1495 703 c 0,9,10
 1495 968 1495 968 1176 1100 c 1,11,-1
 1610 1100 l 1,12,13
 1795 940 1795 940 1795 717 c 0,14,15
 1795 390 1795 390 1308 0 c 1,16,-1
 1055 0 l 1,4,-1
566 0 m 1,17,-1
 5 1100 l 1,18,-1
 336 1100 l 1,19,-1
 898 0 l 1,20,-1
 566 0 l 1,17,-1
EndSplineSet
Validated: 1
EndChar

StartChar: Wdieresis
Encoding: 7812 7812 175
Width: 2262
Flags: W
HStem: 0 21G<745.066 1100 1291.07 1883> 1490 20G<5 359.934 551 904.941 1497 2071.5> 1611 343<764.566 993.785 1164.57 1393.79>
VStem: 709 340<1666.45 1899.26> 1109 340<1666.45 1899.26> 1872 320<799.505 1201.22>
DStem2: 350 1510 5 1510 0.44484 -0.89561<0 1532.53> 895 1510 551 1510 0.44484 -0.89561<0 1332.25>
LayerCount: 2
Fore
SplineSet
1279 1954 m 0,0,1
 1351 1954 1351 1954 1400 1904 c 128,-1,2
 1449 1854 1449 1854 1449 1782 c 0,3,4
 1449 1711 1449 1711 1399 1660 c 0,5,6
 1352 1611 1352 1611 1280 1611 c 0,7,8
 1207 1611 1207 1611 1158 1661.5 c 128,-1,9
 1109 1712 1109 1712 1109 1782 c 0,10,11
 1109 1857 1109 1857 1158 1904 c 0,12,13
 1210 1954 1210 1954 1279 1954 c 0,0,1
879 1954 m 0,14,15
 951 1954 951 1954 1000 1904 c 128,-1,16
 1049 1854 1049 1854 1049 1782 c 0,17,18
 1049 1711 1049 1711 999 1660 c 0,19,20
 952 1611 952 1611 880 1611 c 0,21,22
 807 1611 807 1611 758 1661.5 c 128,-1,23
 709 1712 709 1712 709 1782 c 0,24,25
 709 1857 709 1857 758 1904 c 0,26,27
 810 1954 810 1954 879 1954 c 0,14,15
1301 0 m 1,28,-1
 551 1510 l 1,29,-1
 895 1510 l 1,30,-1
 1488 317 l 1,31,32
 1872 709 1872 709 1872 1008 c 0,33,34
 1872 1308 1872 1308 1497 1510 c 1,35,-1
 1951 1510 l 1,36,37
 2192 1284 2192 1284 2192 987 c 0,38,39
 2192 570 2192 570 1574 0 c 1,40,-1
 1301 0 l 1,28,-1
755 0 m 1,41,-1
 5 1510 l 1,42,-1
 350 1510 l 1,43,-1
 1100 0 l 1,44,-1
 755 0 l 1,41,-1
EndSplineSet
Validated: 1
EndChar

StartChar: wdieresis
Encoding: 7813 7813 176
Width: 1865
Flags: W
HStem: 0 21G<555.8 898 1044.8 1551.5> 1080 20G<5 346.218 494 834.222 1176 1702.5> 1220 343<527.566 756.785 927.566 1156.79>
VStem: 472 340<1275.45 1508.26> 872 340<1275.45 1508.26> 1495 300<538.837 882.326>
DStem2: 336 1100 5 1100 0.454968 -0.890508<0 1084.2> 824 1100 494 1100 0.454326 -0.890835<0 909.668>
LayerCount: 2
Fore
SplineSet
1042 1563 m 0,0,1
 1114 1563 1114 1563 1163 1513 c 128,-1,2
 1212 1463 1212 1463 1212 1391 c 0,3,4
 1212 1320 1212 1320 1162 1269 c 0,5,6
 1115 1220 1115 1220 1043 1220 c 0,7,8
 970 1220 970 1220 921 1270.5 c 128,-1,9
 872 1321 872 1321 872 1391 c 0,10,11
 872 1466 872 1466 921 1513 c 0,12,13
 973 1563 973 1563 1042 1563 c 0,0,1
642 1563 m 0,14,15
 714 1563 714 1563 763 1513 c 128,-1,16
 812 1463 812 1463 812 1391 c 0,17,18
 812 1320 812 1320 762 1269 c 0,19,20
 715 1220 715 1220 643 1220 c 0,21,22
 570 1220 570 1220 521 1270.5 c 128,-1,23
 472 1321 472 1321 472 1391 c 0,24,25
 472 1466 472 1466 521 1513 c 0,26,27
 573 1563 573 1563 642 1563 c 0,14,15
1055 0 m 1,28,-1
 494 1100 l 1,29,-1
 824 1100 l 1,30,-1
 1238 290 l 1,31,32
 1495 504 1495 504 1495 703 c 0,33,34
 1495 968 1495 968 1176 1100 c 1,35,-1
 1610 1100 l 1,36,37
 1795 940 1795 940 1795 717 c 0,38,39
 1795 390 1795 390 1308 0 c 1,40,-1
 1055 0 l 1,28,-1
566 0 m 1,41,-1
 5 1100 l 1,42,-1
 336 1100 l 1,43,-1
 898 0 l 1,44,-1
 566 0 l 1,41,-1
EndSplineSet
Validated: 1
EndChar

StartChar: Ygrave
Encoding: 7922 7922 177
Width: 1603
Flags: W
HStem: 0 21G<640 960> 1490 20G<5 373.141 1252.75 1598>
VStem: 5 355<1155 1510> 640 320<0 464.73> 1266 332<1178 1510>
DStem2: 360 1510 5 1510 0.548763 -0.835978<0 822.449> 609 2010 467 1851 0.742951 -0.669346<0.926964 433.341> 807 817 1102 761 0.552129 0.833759<116.187 831.222>
LayerCount: 2
Fore
SplineSet
640 0 m 1,0,1
 640 543 640 543 454 826 c 2,2,-1
 5 1510 l 1,3,-1
 360 1510 l 1,4,-1
 747 921 l 2,5,6
 774 879 774 879 807 817 c 1,7,-1
 1266 1510 l 1,8,-1
 1598 1510 l 1,9,-1
 1102 761 l 1,10,-1
 828 761 l 1,11,12
 960 455 960 455 960 0 c 1,13,-1
 640 0 l 1,0,1
609 2010 m 1,14,-1
 931 1720 l 1,15,-1
 790 1560 l 1,16,-1
 467 1851 l 1,17,-1
 609 2010 l 1,14,-1
EndSplineSet
Validated: 1
EndChar

StartChar: ygrave
Encoding: 7923 7923 178
Width: 1300
VWidth: 1638
Flags: W
HStem: -430 280<490 704.703> -20 280<544.384 710> 1080 20G<120 420 830 1130>
VStem: 120 300<381.02 1100> 830 300<-34.7443 1100>
DStem2: 452 1630 310 1471 0.742951 -0.669346<0.926964 433.341>
LayerCount: 2
Fore
SplineSet
452 1630 m 1,0,-1
 774 1340 l 1,1,-1
 633 1180 l 1,2,-1
 310 1471 l 1,3,-1
 452 1630 l 1,0,-1
710 -20 m 1,4,5
 467 -20 467 -20 294 126 c 0,6,7
 120 274 120 274 120 531 c 2,8,-1
 120 1100 l 1,9,-1
 420 1100 l 1,10,-1
 420 548 l 2,11,12
 420 401 420 401 506 330.5 c 128,-1,13
 592 260 592 260 710 260 c 9,14,-1
 710 -20 l 1,4,5
490 -430 m 9,15,-1
 490 -150 l 1,16,17
 664 -150 664 -150 747 -79.5 c 128,-1,18
 830 -9 830 -9 830 165 c 2,19,-1
 830 1100 l 1,20,-1
 1130 1100 l 1,21,-1
 1130 158 l 2,22,23
 1130 -137 1130 -137 952 -284 c 0,24,25
 777 -430 777 -430 490 -430 c 9,15,-1
EndSplineSet
Validated: 1
EndChar

StartChar: Eth
Encoding: 208 208 179
Width: 1675
Flags: W
HStem: -20 300<610 1019.13> 0 21G<170 490> 621 222<20 170 490 726> 1230 300<503.149 1019.54>
VStem: 170 320<0 621 843 1214.7> 1285 320<545.857 968.986>
LayerCount: 2
Fore
SplineSet
170 0 m 1,0,-1
 170 621 l 1,1,-1
 20 621 l 1,2,-1
 20 843 l 1,3,-1
 170 843 l 1,4,-1
 170 1159 l 2,5,6
 170 1530 170 1530 590 1530 c 2,7,-1
 816 1530 l 2,8,9
 1159 1530 1159 1530 1391 1293 c 0,10,11
 1605 1074 1605 1074 1605 754 c 0,12,13
 1605 437 1605 437 1382.5 208.5 c 128,-1,14
 1160 -20 1160 -20 816 -20 c 2,15,-1
 610 -20 l 1,16,-1
 610 280 l 1,17,-1
 816 280 l 2,18,19
 1017 280 1017 280 1150 413 c 0,20,21
 1285 548 1285 548 1285 756.5 c 128,-1,22
 1285 965 1285 965 1149 1097.5 c 128,-1,23
 1013 1230 1013 1230 816 1230 c 2,24,-1
 590 1230 l 2,25,26
 490 1230 490 1230 490 1139 c 2,27,-1
 490 843 l 1,28,-1
 726 843 l 1,29,-1
 726 621 l 1,30,-1
 490 621 l 1,31,-1
 490 0 l 1,32,-1
 170 0 l 1,0,-1
EndSplineSet
Validated: 1
EndChar

StartChar: Hbar
Encoding: 294 294 180
Width: 1631
Flags: W
HStem: 0 21G<170 490 1141 1461> 599 302<503.149 1021> 1180 222<20 170 490 1141 1461 1611> 1490 20G<170 490 1141 1461>
VStem: 170 320<0 580.605 961 1180 1402 1510> 1141 320<0 1180 1402 1510>
LayerCount: 2
Fore
SplineSet
1461 0 m 1,0,-1
 1141 0 l 1,1,-1
 1141 1180 l 1,2,-1
 490 1180 l 1,3,-1
 490 961 l 1,4,-1
 170 961 l 1,5,-1
 170 1180 l 1,6,-1
 20 1180 l 1,7,-1
 20 1402 l 1,8,-1
 170 1402 l 1,9,-1
 170 1510 l 1,10,-1
 490 1510 l 1,11,-1
 490 1402 l 1,12,-1
 1141 1402 l 1,13,-1
 1141 1510 l 1,14,-1
 1461 1510 l 1,15,-1
 1461 1402 l 1,16,-1
 1611 1402 l 1,17,-1
 1611 1180 l 1,18,-1
 1461 1180 l 1,19,-1
 1461 0 l 1,0,-1
170 0 m 1,20,-1
 170 524 l 2,21,22
 170 901 170 901 590 901 c 2,23,-1
 1021 901 l 1,24,-1
 1021 599 l 1,25,-1
 590 599 l 2,26,27
 490 599 490 599 490 502 c 2,28,-1
 490 0 l 1,29,-1
 170 0 l 1,20,-1
EndSplineSet
Validated: 1
EndChar

StartChar: IJ
Encoding: 306 306 181
Width: 1749
Flags: W
HStem: -20 300<844.1 1159.68> 0 21G<170 490> 1210 300<819 1259>
VStem: 170 320<0 1510> 1259 320<382.3 1210>
LayerCount: 2
Fore
SplineSet
1002 -20 m 0,0,1
 739 -20 739 -20 526 193 c 1,2,-1
 730 415 l 1,3,4
 862 280 862 280 995 280 c 0,5,6
 1131 280 1131 280 1202 361 c 0,7,8
 1259 426 1259 426 1259 570 c 2,9,10
 1259 1210 l 1,11,-1
 819 1210 l 1,12,-1
 819 1510 l 1,13,-1
 1579 1510 l 1,14,-1
 1579 560 l 2,15,16
 1579 293 1579 293 1418 136 c 0,17,18
 1258 -20 1258 -20 1002 -20 c 0,0,1
170 0 m 1,19,-1
 170 1510 l 1,20,-1
 490 1510 l 1,21,-1
 490 0 l 1,22,-1
 170 0 l 1,19,-1
EndSplineSet
Validated: 1
EndChar

StartChar: ae
Encoding: 230 230 182
Width: 1996
Flags: W
HStem: -20 280<509.169 705 1254.9 1575.05> 0 21G<825 1125> 368 262<1287 1561.14> 840 280<508.944 808.083 1254.72 1575.52>
VStem: 70 300<390.299 705.415> 825 300<0 55 383.538 713.433> 1606 300<675.422 804.845>
LayerCount: 2
Fore
SplineSet
825 0 m 1,0,-1
 825 736 l 2,1,2
 825 840 825 840 705 840 c 0,3,4
 545 840 545 840 458 759 c 0,5,6
 370 678 370 678 370 549 c 0,7,8
 370 418 370 418 459 340 c 0,9,10
 551 260 551 260 705 260 c 1,11,-1
 705 -20 l 1,12,13
 435 -20 435 -20 264 125 c 0,14,15
 70 289 70 289 70 551 c 128,-1,16
 70 813 70 813 253.5 966.5 c 128,-1,17
 437 1120 437 1120 705 1120 c 0,18,19
 950 1120 950 1120 1052 997 c 1,20,21
 1216 1120 1216 1120 1417 1120 c 0,22,23
 1625 1120 1625 1120 1766 1014 c 0,24,25
 1906 909 1906 909 1906 736 c 0,26,27
 1906 493 1906 493 1562 393 c 0,28,29
 1476 368 1476 368 1287 368 c 1,30,-1
 1287 630 l 1,31,32
 1606 630 1606 630 1606 741 c 0,33,34
 1606 780 1606 780 1555 810 c 0,35,36
 1503 840 1503 840 1416 840 c 0,37,38
 1292 840 1292 840 1208 759 c 0,39,40
 1125 680 1125 680 1125 550 c 0,41,42
 1125 415 1125 415 1208 339 c 0,43,44
 1295 260 1295 260 1416 260 c 0,45,46
 1539 260 1539 260 1624 341 c 1,47,-1
 1826 140 l 1,48,49
 1644 -20 1644 -20 1416 -20 c 0,50,51
 1260 -20 1260 -20 1125 55 c 1,52,-1
 1125 0 l 1,53,-1
 825 0 l 1,0,-1
EndSplineSet
Validated: 1
EndChar

StartChar: dcroat
Encoding: 273 273 183
Width: 1295
Flags: W
HStem: -20 280<508.944 807.129> 840 280<509.645 705> 1177 222<645 825 1125 1218> 1490 20G<825 1125>
VStem: 70 300<394.585 709.701> 825 300<277.307 1177 1399 1510>
LayerCount: 2
Fore
SplineSet
705 -20 m 0,0,1
 437 -20 437 -20 253.5 133.5 c 128,-1,2
 70 287 70 287 70 549 c 128,-1,3
 70 811 70 811 264 975 c 0,4,5
 436 1120 436 1120 705 1120 c 1,6,-1
 705 840 l 1,7,8
 551 840 551 840 459 760 c 0,9,10
 370 682 370 682 370 551 c 0,11,12
 370 422 370 422 458 341 c 0,13,14
 545 260 545 260 705 260 c 0,15,16
 825 260 825 260 825 364 c 2,17,-1
 825 1177 l 1,18,-1
 645 1177 l 1,19,-1
 645 1399 l 1,20,-1
 825 1399 l 1,21,-1
 825 1510 l 1,22,-1
 1125 1510 l 1,23,-1
 1125 1399 l 1,24,-1
 1218 1399 l 1,25,-1
 1218 1177 l 1,26,-1
 1125 1177 l 1,27,-1
 1125 342 l 2,28,29
 1125 -20 1125 -20 705 -20 c 0,0,1
EndSplineSet
Validated: 1
EndChar

StartChar: hbar
Encoding: 295 295 184
Width: 1300
Flags: W
HStem: 0 21G<170 470 880 1180> 840 280<590 754.844> 1177 222<70 170 470 643> 1490 20G<170 470>
VStem: 170 300<0 1177 1399 1510> 880 300<0 719.312>
LayerCount: 2
Fore
SplineSet
170 0 m 1,0,-1
 170 1177 l 1,1,-1
 70 1177 l 1,2,-1
 70 1399 l 1,3,-1
 170 1399 l 1,4,-1
 170 1510 l 1,5,-1
 470 1510 l 1,6,-1
 470 1399 l 1,7,-1
 643 1399 l 1,8,-1
 643 1177 l 1,9,-1
 470 1177 l 1,10,-1
 470 0 l 1,11,-1
 170 0 l 1,0,-1
1180 0 m 1,12,-1
 880 0 l 1,13,-1
 880 552 l 2,14,15
 880 698 880 698 794 769 c 128,-1,16
 708 840 708 840 590 840 c 1,17,-1
 590 1120 l 1,18,19
 834 1120 834 1120 1006 973 c 0,20,21
 1180 827 1180 827 1180 569 c 2,22,-1
 1180 0 l 1,12,-1
EndSplineSet
Validated: 1
EndChar

StartChar: ij
Encoding: 307 307 185
Width: 1259
Flags: W
HStem: -430 21G<610 690.5> 0 21G<170 470> 1080 20G<170 470 790 1090> 1167 383<198.934 440.782 818.934 1060.78>
VStem: 131 377<1235.47 1483.28> 170 300<0 1100> 751 377<1235.47 1483.28> 790 300<-26.834 1100>
LayerCount: 2
Fore
SplineSet
942 1550 m 0,0,1
 1024 1550 1024 1550 1076 1496 c 128,-1,2
 1128 1442 1128 1442 1128 1360 c 0,3,4
 1128 1277 1128 1277 1074 1223 c 0,5,6
 1018 1167 1018 1167 938 1167 c 128,-1,7
 858 1167 858 1167 804.5 1224.5 c 128,-1,8
 751 1282 751 1282 751 1361.5 c 128,-1,9
 751 1441 751 1441 806.5 1495.5 c 128,-1,10
 862 1550 862 1550 942 1550 c 0,0,1
610 -139 m 1,11,12
 790 -79 790 -79 790 175 c 2,13,-1
 790 1100 l 1,14,-1
 1090 1100 l 1,15,-1
 1090 175 l 2,16,17
 1090 -136 1090 -136 919 -279 c 0,18,19
 771 -403 771 -403 610 -430 c 1,20,-1
 610 -139 l 1,11,12
170 0 m 1,21,-1
 170 1100 l 1,22,-1
 470 1100 l 1,23,-1
 470 0 l 1,24,-1
 170 0 l 1,21,-1
322 1550 m 0,25,26
 404 1550 404 1550 456 1496 c 128,-1,27
 508 1442 508 1442 508 1360 c 0,28,29
 508 1277 508 1277 454 1223 c 0,30,31
 398 1167 398 1167 318 1167 c 128,-1,32
 238 1167 238 1167 184.5 1224.5 c 128,-1,33
 131 1282 131 1282 131 1361.5 c 128,-1,34
 131 1441 131 1441 186.5 1495.5 c 128,-1,35
 242 1550 242 1550 322 1550 c 0,25,26
EndSplineSet
Validated: 1
EndChar

StartChar: AE
Encoding: 198 198 186
Width: 2082
Flags: W
HStem: 0 300<1334 2012> 597 302<611.562 1014 1334 1825> 1209 301<918.25 1825>
VStem: 1014 320<300 597 899 1089>
DStem2: 5 0 327 0 0.450218 0.892919<144.97 821.531 1219.63 1505.39>
LayerCount: 2
Fore
SplineSet
5 0 m 1,0,-1
 296 577 l 2,1,2
 458 899 458 899 749 899 c 2,3,-1
 1014 899 l 1,4,-1
 1014 1089 l 1,5,-1
 1334 1089 l 1,6,-1
 1334 899 l 1,7,-1
 1825 899 l 1,8,-1
 1825 597 l 1,9,-1
 1334 597 l 1,10,-1
 1334 300 l 1,11,-1
 2012 300 l 1,12,-1
 2012 0 l 1,13,-1
 1014 0 l 1,14,-1
 1014 597 l 1,15,-1
 742 597 l 2,16,17
 628 597 628 597 595 531 c 2,18,-1
 327 0 l 1,19,-1
 5 0 l 1,0,-1
1825 1510 m 1,20,-1
 1825 1209 l 1,21,-1
 1049 1209 l 2,22,23
 936 1209 936 1209 902 1141 c 2,24,-1
 812 959 l 1,25,-1
 490 959 l 1,26,-1
 604 1188 l 2,27,28
 764 1510 764 1510 1056 1510 c 2,29,-1
 1825 1510 l 1,20,-1
EndSplineSet
Validated: 1
EndChar

StartChar: kgreenlandic
Encoding: 312 312 187
Width: 1409
Flags: W
HStem: 0 21G<170 470 909.86 1404> 1080 20G<170 470 905.707 1249>
VStem: 170 300<0 1100> 919 330<770 1100>
DStem2: 590 605 830 483 0.561796 0.827275<33.9035 594.332>
LayerCount: 2
Fore
SplineSet
1404 0 m 1,0,-1
 934 0 l 1,1,-1
 590 285 l 1,2,-1
 590 605 l 1,3,-1
 919 1100 l 1,4,-1
 1249 1100 l 1,5,-1
 830 483 l 1,6,-1
 1404 0 l 1,0,-1
170 0 m 1,7,-1
 170 1100 l 1,8,-1
 470 1100 l 1,9,-1
 470 0 l 1,10,-1
 170 0 l 1,7,-1
EndSplineSet
Validated: 1
EndChar

StartChar: Lslash
Encoding: 321 321 188
Width: 1078
Flags: W
HStem: 0 300<490 1068> 1080 20G<726.322 1018> 1490 20G<170 490>
VStem: 170 320<300 1510> 741 277<823 1100>
LayerCount: 2
Fore
SplineSet
170 0 m 1,0,-1
 170 1510 l 1,1,-1
 490 1510 l 1,2,-1
 490 300 l 1,3,-1
 1068 300 l 1,4,-1
 1068 0 l 1,5,-1
 170 0 l 1,0,-1
1018 1100 m 1,6,-1
 570 500 l 1,7,-1
 570 867 l 1,8,-1
 741 1100 l 1,9,-1
 1018 1100 l 1,6,-1
EndSplineSet
Validated: 1
EndChar

StartChar: lslash
Encoding: 322 322 189
Width: 1003
Flags: W
HStem: 0 21G<170 470> 1080 20G<706.447 998> 1490 20G<170 470>
VStem: 170 300<0 1510> 721 277<823 1100>
LayerCount: 2
Fore
SplineSet
998 1100 m 1,0,-1
 550 496 l 1,1,-1
 550 865 l 1,2,-1
 721 1100 l 1,3,-1
 998 1100 l 1,0,-1
170 0 m 1,4,-1
 170 1510 l 1,5,-1
 470 1510 l 1,6,-1
 470 0 l 1,7,-1
 170 0 l 1,4,-1
EndSplineSet
Validated: 1
EndChar

StartChar: longs
Encoding: 383 383 190
Width: 1020
Flags: W
HStem: 0 21G<380 680> 820 280<50 358.438> 1250 280<672.61 1010>
VStem: 380 300<0 803.515>
LayerCount: 2
Fore
SplineSet
1010 1530 m 1,0,-1
 1010 1250 l 1,1,2
 640 1250 640 1250 640 1160 c 1,3,-1
 340 1160 l 1,4,5
 342 1530 342 1530 1010 1530 c 1,0,-1
380 0 m 1,6,-1
 380 717 l 2,7,8
 380 820 380 820 260 820 c 2,9,-1
 50 820 l 1,10,-1
 50 1100 l 1,11,-1
 260 1100 l 2,12,13
 680 1100 680 1100 680 739 c 2,14,-1
 680 0 l 1,15,-1
 380 0 l 1,6,-1
EndSplineSet
Validated: 1
EndChar

StartChar: Eng
Encoding: 330 330 191
Width: 1676
Flags: W
HStem: -430 280<1006 1136.74> 0 21G<170 490> 1230 300<503.149 908.663>
VStem: 170 320<0 1214.7> 1186 320<-106.526 946.333>
LayerCount: 2
Fore
SplineSet
170 0 m 1,0,-1
 170 1159 l 2,1,2
 170 1530 170 1530 590 1530 c 2,3,-1
 716 1530 l 2,4,5
 1058 1530 1058 1530 1282 1292 c 0,6,7
 1506 1052 1506 1052 1506 719 c 2,8,-1
 1506 8 l 2,9,10
 1506 -430 1506 -430 1006 -430 c 1,11,-1
 1006 -150 l 1,12,13
 1186 -150 1186 -150 1186 9 c 2,14,-1
 1186 717 l 2,15,16
 1186 946 1186 946 1049 1087 c 0,17,18
 910 1230 910 1230 716 1230 c 2,19,-1
 590 1230 l 2,20,21
 490 1230 490 1230 490 1139 c 2,22,-1
 490 0 l 1,23,-1
 170 0 l 1,0,-1
EndSplineSet
Validated: 1
EndChar

StartChar: eng
Encoding: 331 331 192
Width: 1300
Flags: W
HStem: -430 280<700 838.281> 0 21G<170 470> 840 280<487.812 754.976>
VStem: 170 300<0 822.693> 880 300<-107.264 722.409>
LayerCount: 2
Fore
SplineSet
170 0 m 1,0,-1
 170 758 l 2,1,2
 170 1120 170 1120 590 1120 c 0,3,4
 832 1120 832 1120 1006 972 c 0,5,6
 1180 825 1180 825 1180 563 c 2,7,-1
 1180 7 l 2,8,9
 1180 -430 1180 -430 700 -430 c 1,10,-1
 700 -150 l 1,11,12
 880 -150 880 -150 880 8 c 2,13,-1
 880 548 l 2,14,15
 880 697 880 697 794 769 c 0,16,17
 708 840 708 840 589 840 c 128,-1,18
 470 840 470 840 470 736 c 2,19,-1
 470 0 l 1,20,-1
 170 0 l 1,0,-1
EndSplineSet
Validated: 1
EndChar

StartChar: oe
Encoding: 339 339 193
Width: 2122
Flags: W
HStem: -20 280<500.551 820.048 1381.55 1701.05> 368 262<1413 1687.14> 840 280<501.526 821.356 1382.73 1701.52>
VStem: 70 300<385.982 712.111> 951 300<386.417 713.433> 1732 300<675.422 804.845>
LayerCount: 2
Fore
SplineSet
661 260 m 0,0,1
 784 260 784 260 869 341 c 0,2,3
 951 419 951 419 951 550 c 0,4,5
 951 685 951 685 868 761 c 0,6,7
 783 840 783 840 661 840 c 0,8,9
 537 840 537 840 453 759 c 0,10,11
 370 680 370 680 370 550 c 0,12,13
 370 415 370 415 453 339 c 0,14,15
 540 260 540 260 661 260 c 0,0,1
661 -20 m 0,16,17
 432 -20 432 -20 250 141 c 0,18,19
 70 299 70 299 70 550 c 0,20,21
 70 799 70 799 251 960 c 0,22,23
 432 1120 432 1120 661 1120 c 128,-1,24
 890 1120 890 1120 1072 959 c 0,25,26
 1087 945 1087 945 1101 931 c 1,27,28
 1116 946 1116 946 1132 960 c 0,29,30
 1313 1120 1313 1120 1543 1120 c 0,31,32
 1751 1120 1751 1120 1892 1014 c 0,33,34
 2032 909 2032 909 2032 736 c 0,35,36
 2032 493 2032 493 1688 393 c 0,37,38
 1602 368 1602 368 1413 368 c 1,39,-1
 1413 630 l 1,40,41
 1732 630 1732 630 1732 741 c 0,42,43
 1732 780 1732 780 1681 810 c 0,44,45
 1629 840 1629 840 1542 840 c 0,46,47
 1418 840 1418 840 1334 759 c 0,48,49
 1251 680 1251 680 1251 550 c 0,50,51
 1251 415 1251 415 1334 339 c 0,52,53
 1421 260 1421 260 1542 260 c 0,54,55
 1665 260 1665 260 1750 341 c 1,56,-1
 1952 140 l 1,57,58
 1770 -20 1770 -20 1542 -20 c 0,59,60
 1313 -20 1313 -20 1131 141 c 0,61,62
 1115 155 1115 155 1101 169 c 1,63,64
 1087 154 1087 154 1071 140 c 0,65,66
 889 -20 889 -20 661 -20 c 0,16,17
EndSplineSet
Validated: 1
EndChar

StartChar: OE
Encoding: 338 338 194
Width: 2396
Flags: W
HStem: -20 300<654.317 1067.99> 1 300<1648 2326> 600 302<1758 2139> 1210 301<1665.33 2139> 1230 300<654.908 1066.39>
VStem: 70 320<540.457 966.13> 1328 320<544.51 966.174> 1758 381<600 902>
LayerCount: 2
Fore
SplineSet
2139 902 m 1,0,-1
 2139 600 l 1,1,-1
 1758 600 l 1,2,-1
 1758 902 l 1,3,-1
 2139 902 l 1,0,-1
2326 1 m 5,4,-1
 1328 1 l 1,5,-1
 1328 123 l 1,6,7
 1132 -20 1132 -20 859 -20 c 0,8,9
 514 -20 514 -20 292 208 c 128,-1,10
 70 436 70 436 70 757 c 0,11,12
 70 1080 70 1080 284 1294 c 0,13,14
 521 1530 521 1530 862 1530 c 0,15,16
 1162 1530 1162 1530 1375 1348 c 1,17,18
 1469 1511 1469 1511 1748 1511 c 2,19,-1
 2139 1511 l 1,20,-1
 2139 1210 l 1,21,-1
 1748 1210 l 2,22,23
 1648 1210 1648 1210 1648 1113 c 2,24,-1
 1648 301 l 1,25,-1
 2326 301 l 1,26,-1
 2326 1 l 5,4,-1
860 280 m 0,27,28
 1058 280 1058 280 1193 413 c 0,29,30
 1328 547 1328 547 1328 755.5 c 128,-1,31
 1328 964 1328 964 1192 1097 c 128,-1,32
 1056 1230 1056 1230 859 1230 c 0,33,34
 661 1230 661 1230 525 1097 c 0,35,36
 390 964 390 964 390 755 c 0,37,38
 390 544 390 544 526 412 c 0,39,40
 665 280 665 280 860 280 c 0,27,28
EndSplineSet
Validated: 1
EndChar

StartChar: eth
Encoding: 240 240 195
Width: 1332
Flags: W
HStem: -20 280<500.463 815.444> 840 280<502.145 661>
VStem: 70 300<388.705 711.143> 962 300<409.772 766.409>
DStem2: 317 1316 459 1147 0.759817 0.650137<0 149.113 440.669 625.71> 796 1434 574 1245 0.606322 -0.795219<15.693 690.842>
LayerCount: 2
Fore
SplineSet
662 -20 m 0,0,1
 431 -20 431 -20 250 141 c 0,2,3
 70 302 70 302 70 550 c 0,4,5
 70 800 70 800 251 960 c 0,6,7
 431 1120 431 1120 661 1120 c 1,8,-1
 661 840 l 1,9,10
 538 840 538 840 454 760 c 128,-1,11
 370 680 370 680 370 550 c 0,12,13
 370 418 370 418 454 339 c 0,14,15
 537 260 537 260 668 260 c 0,16,17
 794 260 794 260 889 369 c 0,18,19
 962 453 962 453 962 592 c 0,20,21
 962 734 962 734 830 908 c 2,22,-1
 574 1245 l 1,23,-1
 459 1147 l 1,24,-1
 317 1316 l 1,25,-1
 440 1421 l 1,26,-1
 371 1510 l 1,27,-1
 543 1510 l 1,28,-1
 795 1725 l 1,29,-1
 936 1555 l 1,30,-1
 796 1434 l 1,31,-1
 1074 1086 l 2,32,33
 1262 851 1262 851 1262 589 c 0,34,35
 1262 314 1262 314 1064 134 c 0,36,37
 894 -20 894 -20 662 -20 c 0,0,1
EndSplineSet
Validated: 1
EndChar

StartChar: Thorn
Encoding: 222 222 196
Width: 1384
Flags: W
HStem: 0 21G<170 490> 154 303<610 828.604> 1051 301<499.388 837> 1490 20G<170 490>
VStem: 170 320<0 1040.25 1331 1510> 994 320<608.716 917.685>
LayerCount: 2
Fore
SplineSet
170 0 m 1,0,-1
 170 1510 l 1,1,-1
 490 1510 l 1,2,-1
 490 1331 l 1,3,4
 535 1352 535 1352 590 1352 c 0,5,6
 897 1352 897 1352 1085 1216 c 0,7,8
 1314 1047 1314 1047 1314 771 c 0,9,10
 1314 543 1314 543 1158 374 c 0,11,12
 951 154 951 154 610 154 c 9,13,-1
 610 457 l 1,14,15
 803 457 803 457 898.478515625 545.98046875 c 128,-1,16
 994 635 994 635 994 768 c 128,-1,17
 994 901 994 901 891.5 976 c 128,-1,18
 789 1051 789 1051 590 1051 c 0,19,20
 490 1051 490 1051 490 960 c 2,21,-1
 490 0 l 1,22,-1
 170 0 l 1,0,-1
EndSplineSet
Validated: 1
EndChar

StartChar: germandbls
Encoding: 223 223 197
Width: 1316
Flags: W
HStem: -20 270<718.212 919.344> 0 21G<170 470> 1260 270<489.219 737.309>
VStem: 170 300<0 1242.06> 783 289<1065.6 1219.12> 954 272<287.908 486.406>
LayerCount: 2
Fore
SplineSet
170 0 m 1,0,-1
 170 1167 l 2,1,2
 170 1530 170 1530 590 1530 c 0,3,4
 789 1530 789 1530 914 1442 c 0,5,6
 1072 1330 1072 1330 1072 1163 c 0,7,8
 1072 1002 1072 1002 916 891 c 0,9,10
 854 847 854 847 854 832 c 0,11,12
 854 821 854 821 901 796 c 0,13,-1
 948 772 l 0,14,15
 1226 633 1226 633 1226 390 c 0,16,17
 1226 238 1226 238 1137 132 c 0,18,19
 1010 -20 1010 -20 826 -20 c 0,20,21
 494 -20 494 -20 494 343 c 1,22,-1
 704 343 l 1,23,24
 704 250 704 250 814 250 c 0,25,26
 887 250 887 250 920 292 c 0,27,28
 954 335 954 335 954 395 c 0,29,30
 954 489 954 489 800 560 c 0,31,32
 578 662 578 662 578 824 c 0,33,34
 578 945 578 945 710 1041 c 0,35,36
 783 1094 783 1094 783 1142 c 128,-1,37
 783 1190 783 1190 731.5 1225 c 128,-1,38
 680 1260 680 1260 590 1260 c 0,39,40
 470 1260 470 1260 470 1146 c 2,41,-1
 470 0 l 1,42,-1
 170 0 l 1,0,-1
EndSplineSet
Validated: 1
EndChar

StartChar: thorn
Encoding: 254 254 198
Width: 1295
Flags: W
HStem: -20 280<598 781.703> 840 280<484.152 783.462> 1490 20G<170 470>
VStem: 170 300<-410 824.131 1096 1510> 926 299<395.016 705.818>
LayerCount: 2
Fore
SplineSet
598 -20 m 1,0,-1
 598 260 l 1,1,2
 747 260 747 260 836.5 341 c 128,-1,3
 926 422 926 422 926 550 c 0,4,5
 926 682 926 682 837 759 c 0,6,7
 743 840 743 840 590 840 c 0,8,9
 470 840 470 840 470 736 c 2,10,-1
 470 -410 l 1,11,-1
 170 -410 l 1,12,-1
 170 1510 l 1,13,-1
 470 1510 l 1,14,-1
 470 1096 l 1,15,16
 526 1120 526 1120 590 1120 c 0,17,18
 853 1120 853 1120 1041 966 c 0,19,20
 1225 812 1225 812 1225 550 c 128,-1,21
 1225 288 1225 288 1041 134 c 128,-1,22
 857 -20 857 -20 598 -20 c 1,0,-1
EndSplineSet
Validated: 1
EndChar

StartChar: Tbar
Encoding: 358 358 199
Width: 1210
Flags: W
HStem: 0 21G<446 766> 590 222<252 446 766 958> 1210 300<10 386 779.149 1200>
VStem: 10 376<1210 1510> 446 320<0 590 812 1190.46>
LayerCount: 2
Fore
SplineSet
446 0 m 1,0,-1
 446 590 l 1,1,-1
 252 590 l 1,2,-1
 252 812 l 1,3,-1
 446 812 l 1,4,-1
 446 1134 l 2,5,6
 446 1510 446 1510 866 1510 c 2,7,-1
 1200 1510 l 1,8,-1
 1200 1209 l 1,9,-1
 866 1209 l 2,10,11
 766 1209 766 1209 766 1112 c 2,12,-1
 766 812 l 1,13,-1
 958 812 l 1,14,-1
 958 590 l 1,15,-1
 766 590 l 1,16,-1
 766 0 l 1,17,-1
 446 0 l 1,0,-1
10 1510 m 1,18,-1
 386 1510 l 1,19,-1
 386 1210 l 1,20,-1
 10 1210 l 1,21,-1
 10 1510 l 1,18,-1
EndSplineSet
Validated: 1
EndChar

StartChar: tbar
Encoding: 359 359 200
Width: 850
Flags: W
HStem: 0 21G<170 470> 490 222<21 170 470 643> 820 280<491.562 840> 1160 350<170 470>
VStem: 170 300<0 490 712 803.515 1160 1510>
LayerCount: 2
Fore
SplineSet
170 0 m 1,0,-1
 170 490 l 1,1,-1
 20 490 l 1,2,-1
 21 712 l 1,3,-1
 170 712 l 1,4,-1
 170 739 l 2,5,6
 170 1100 170 1100 590 1100 c 2,7,-1
 840 1100 l 1,8,-1
 840 820 l 1,9,-1
 590 820 l 2,10,11
 470 820 470 820 470 717 c 2,12,-1
 470 712 l 1,13,-1
 643 712 l 1,14,-1
 643 490 l 1,15,-1
 470 490 l 1,16,-1
 470 0 l 1,17,-1
 170 0 l 1,0,-1
170 1510 m 1,18,-1
 470 1510 l 1,19,-1
 470 1160 l 1,20,-1
 170 1160 l 1,21,-1
 170 1510 l 1,18,-1
EndSplineSet
Validated: 1
EndChar

StartChar: circumflex
Encoding: 710 710 201
Width: 684
Flags: W
HStem: 1384 287<198.5 485.5>
VStem: 20 644
LayerCount: 2
Fore
SplineSet
342 1671 m 1,0,-1
 664 1381 l 1,1,-1
 523 1221 l 1,2,-1
 342 1384 l 1,3,-1
 161 1221 l 1,4,-1
 20 1381 l 1,5,-1
 342 1671 l 1,0,-1
EndSplineSet
Validated: 1
EndChar

StartChar: caron
Encoding: 711 711 202
Width: 684
Flags: W
HStem: 1221 287<198.5 485.5>
VStem: 20 644
LayerCount: 2
Fore
SplineSet
161 1671 m 1,0,-1
 342 1508 l 1,1,-1
 523 1671 l 1,2,-1
 664 1511 l 1,3,-1
 342 1221 l 1,4,-1
 20 1511 l 1,5,-1
 161 1671 l 1,0,-1
EndSplineSet
Validated: 1
EndChar

StartChar: uni02C9
Encoding: 713 713 203
Width: 663
Flags: W
HStem: 1287 222<20 643>
VStem: 20 623<1287 1509>
LayerCount: 2
Fore
SplineSet
20 1509 m 1,0,-1
 643 1509 l 1,1,-1
 643 1287 l 1,2,-1
 20 1287 l 1,3,-1
 20 1509 l 1,0,-1
EndSplineSet
Validated: 1
EndChar

StartChar: breve
Encoding: 728 728 204
Width: 660
Flags: W
HStem: 1247 222<128.996 524.894> 1353 226<20 246 414 640>
VStem: 20 620<1322.46 1469>
LayerCount: 2
Fore
SplineSet
20 1579 m 1,0,1
 162 1469 162 1469 325 1469 c 0,2,3
 489 1469 489 1469 640 1579 c 1,4,-1
 640 1353 l 1,5,6
 498 1247 498 1247 328.5 1247 c 128,-1,7
 159 1247 159 1247 20 1353 c 1,8,-1
 20 1579 l 1,0,1
EndSplineSet
Validated: 1
EndChar

StartChar: dotaccent
Encoding: 729 729 205
Width: 417
Flags: W
HStem: 1147 383<87.9337 329.782>
VStem: 20 377<1215.47 1463.28>
LayerCount: 2
Fore
SplineSet
211 1530 m 4,0,1
 293 1530 293 1530 345 1476 c 132,-1,2
 397 1422 397 1422 397 1340 c 4,3,4
 397 1257 397 1257 343 1203 c 4,5,6
 287 1147 287 1147 207 1147 c 132,-1,7
 127 1147 127 1147 73.5 1204.5 c 132,-1,8
 20 1262 20 1262 20 1341.5 c 132,-1,9
 20 1421 20 1421 75.5 1475.5 c 132,-1,10
 131 1530 131 1530 211 1530 c 4,0,1
EndSplineSet
Validated: 1
EndChar

StartChar: ring
Encoding: 730 730 206
Width: 518
Flags: W
HStem: 1131 160<186.892 330.384> 1453 161<193.669 323.835>
VStem: 20 157<1300.96 1435.54> 341 157<1300.56 1437.27>
LayerCount: 2
Fore
SplineSet
258.5 1453 m 128,-1,1
 224 1453 224 1453 200.5 1429.5 c 128,-1,2
 177 1406 177 1406 177 1372.5 c 128,-1,3
 177 1339 177 1339 202 1315 c 128,-1,4
 227 1291 227 1291 259.5 1291 c 128,-1,5
 292 1291 292 1291 316.5 1316 c 128,-1,6
 341 1341 341 1341 341 1375 c 128,-1,7
 341 1409 341 1409 317 1431 c 128,-1,0
 293 1453 293 1453 258.5 1453 c 128,-1,1
262 1614 m 0,8,9
 360 1614 360 1614 429 1542 c 128,-1,10
 498 1470 498 1470 498 1371 c 128,-1,11
 498 1272 498 1272 426 1202 c 0,12,13
 354 1131 354 1131 258 1131 c 0,14,15
 158 1131 158 1131 90 1202 c 0,16,17
 20 1275 20 1275 20 1376.5 c 128,-1,18
 20 1478 20 1478 91.5 1546 c 128,-1,19
 163 1614 163 1614 262 1614 c 0,8,9
EndSplineSet
Validated: 1
EndChar

StartChar: tilde
Encoding: 732 732 207
Width: 732
Flags: W
HStem: 1161 226<432.042 531.341> 1294 226<200.659 299.958>
LayerCount: 2
Fore
SplineSet
554 1499 m 1,0,-1
 712 1411 l 1,1,2
 664 1161 664 1161 475 1161 c 0,3,4
 398 1161 398 1161 326 1226 c 2,5,-1
 262 1284 l 2,6,7
 251 1294 251 1294 244 1294 c 0,8,9
 205 1294 205 1294 178 1182 c 1,10,-1
 20 1270 l 1,11,12
 68 1520 68 1520 257 1520 c 0,13,14
 334 1520 334 1520 406 1455 c 2,15,-1
 470 1397 l 2,16,17
 481 1387 481 1387 488 1387 c 0,18,19
 527 1387 527 1387 554 1499 c 1,0,-1
EndSplineSet
Validated: 1
EndChar

StartChar: hungarumlaut
Encoding: 733 733 208
Width: 904
Flags: W
HStem: 1216 450
DStem2: 20 1376 161 1216 0.742951 0.669346<0 432.414> 420 1376 561 1216 0.742951 0.669346<0 432.414>
LayerCount: 2
Fore
SplineSet
742 1666 m 1,0,-1
 884 1507 l 1,1,-1
 561 1216 l 1,2,-1
 420 1376 l 1,3,-1
 742 1666 l 1,0,-1
342 1666 m 1,4,-1
 484 1507 l 1,5,-1
 161 1216 l 1,6,-1
 20 1376 l 1,7,-1
 342 1666 l 1,4,-1
EndSplineSet
Validated: 1
EndChar

StartChar: ogonek
Encoding: 731 731 209
Width: 426
Flags: W
HStem: -430 652
VStem: 20 255<-165.333 13.3364>
LayerCount: 2
Fore
SplineSet
224 222 m 1,0,1
 361 44 l 1,2,3
 275 -6 275 -6 275 -87 c 0,4,5
 275 -159 275 -159 406 -218 c 1,6,-1
 253 -430 l 1,7,8
 20 -290 20 -290 20 -130 c 0,9,10
 20 70 20 70 224 222 c 1,0,1
EndSplineSet
Validated: 1
EndChar

StartChar: integral
Encoding: 8747 8747 210
Width: 920
Flags: W
HStem: -420 280<10 192.812> 1250 280<731.382 910>
VStem: 310 300<-15.7812 1129.13>
LayerCount: 2
Fore
SplineSet
910 1530 m 1,0,1
 910 1250 l 1,2,3
 770 1250 770 1250 691 1176 c 0,4,5
 610 1100 610 1100 610 932 c 2,6,-1
 610 169 l 2,7,8
 610 -114 610 -114 434 -268 c 0,9,10
 259 -420 259 -420 10 -420 c 1,11,-1
 10 -140 l 1,12,13
 310 -140 310 -140 310 178 c 2,14,-1
 310 941 l 2,15,16
 310 1230 310 1230 480 1378 c 0,17,18
 655 1530 655 1530 910 1530 c 1,0,1
EndSplineSet
Validated: 1
EndChar

StartChar: afii61352
Encoding: 8470 8470 211
Width: 2460
Flags: W
HStem: 0 174<1690 2340> 258 200<1928.94 2100.85> 697 201<1928.63 2100.32> 1490 20G<160 568.145 1228 1548>
VStem: 160 394<1116 1510> 169 321<0 1058> 1228 320<557 1510> 1690 209<487.887 668.033> 2130 209<486.784 668.081>
DStem2: 554 1510 160 1510 0.586352 -0.810056<0 292.004 328.619 1167.18>
LayerCount: 2
Fore
SplineSet
2015 898 m 128,-1,1
 2141 898 2141 898 2240 808 c 128,-1,2
 2339 718 2339 718 2339 578 c 0,3,4
 2339 439 2339 439 2239 348 c 0,5,6
 2140 258 2140 258 2014 258 c 128,-1,7
 1888 258 1888 258 1789 348.5 c 128,-1,8
 1690 439 1690 439 1690 579 c 128,-1,9
 1690 719 1690 719 1789.5 808.5 c 128,-1,0
 1889 898 1889 898 2015 898 c 128,-1,1
2013.5 697 m 128,-1,11
 1965 697 1965 697 1932 664 c 128,-1,12
 1899 631 1899 631 1899 576.5 c 128,-1,13
 1899 522 1899 522 1933.5 490 c 128,-1,14
 1968 458 1968 458 2017 458 c 128,-1,15
 2066 458 2066 458 2098 492 c 128,-1,16
 2130 526 2130 526 2130 580 c 0,17,18
 2130 633 2130 633 2096 665 c 128,-1,10
 2062 697 2062 697 2013.5 697 c 128,-1,11
1690 174 m 1,19,-1
 2340 174 l 1,20,-1
 2340 0 l 1,21,-1
 1690 0 l 1,22,-1
 1690 174 l 1,19,-1
169 0 m 1,23,-1
 169 1088 l 1,24,-1
 469 1088 l 1,25,-1
 160 1510 l 1,26,-1
 554 1510 l 1,27,-1
 1228 557 l 1,28,-1
 1228 1510 l 1,29,-1
 1548 1510 l 1,30,-1
 1548 0 l 1,31,-1
 1253 0 l 1,32,-1
 490 1058 l 1,33,-1
 490 0 l 1,34,-1
 169 0 l 1,23,-1
EndSplineSet
Validated: 1
EndChar

StartChar: uni2117
Encoding: 8471 8471 212
Width: 1341
Flags: W
HStem: 180 79<485.013 857.241> 510 197<610 744.771> 961 201<595.394 756.908> 1251 80<484.185 860.739>
VStem: 120 74<566.112 944.138> 382 210<363 954.635> 784 210<744.642 931.919> 1146 75<560.757 950.662>
LayerCount: 2
Fore
SplineSet
1146 754 m 0,0,1
 1146 960 1146 960 1008 1105 c 0,2,3
 869 1251 869 1251 672.5 1251 c 128,-1,4
 476 1251 476 1251 335 1104 c 128,-1,5
 194 957 194 957 194 758 c 0,6,7
 194 548 194 548 334 408 c 0,8,9
 349 393 349 393 382 363 c 1,10,-1
 382 948 l 2,11,12
 382 1162 382 1162 613 1162 c 0,13,14
 777 1162 777 1162 871 1088 c 0,15,16
 994 991 994 991 994 844 c 0,17,18
 994 681 994 681 850 574 c 24,19,20
 764 510 764 510 610 510 c 1,21,-1
 610 707 l 1,22,-1
 625 707 l 2,23,24
 707 707 707 707 746 745 c 0,25,26
 784 784 784 784 784 841 c 0,27,28
 784 961 784 961 616 961 c 0,29,30
 592 961 592 961 592 939 c 2,31,-1
 592 336 l 1,32,-1
 418 336 l 1,33,34
 524 259 524 259 670 259 c 0,35,36
 866 259 866 259 1006 405 c 128,-1,37
 1146 551 1146 551 1146 754 c 0,0,1
669.5 1331 m 128,-1,39
 896 1331 896 1331 1058.5 1162.5 c 128,-1,40
 1221 994 1221 994 1221 756.5 c 128,-1,41
 1221 519 1221 519 1059.5 349.5 c 128,-1,42
 898 180 898 180 671.5 180 c 128,-1,43
 445 180 445 180 282.5 348.5 c 128,-1,44
 120 517 120 517 120 755.5 c 128,-1,45
 120 994 120 994 281.5 1162.5 c 128,-1,38
 443 1331 443 1331 669.5 1331 c 128,-1,39
EndSplineSet
Validated: 1
EndChar

StartChar: uni203D
Encoding: 8253 8253 213
Width: 1273
Flags: W
HStem: -20 383<489.934 731.782> 1510 20G<467.5 728.5>
VStem: 422 377<48.8853 296.279> 831 322<919.834 1160.48>
LayerCount: 2
Fore
SplineSet
602 1530 m 0,0,1
 855 1530 855 1530 1004 1392 c 0,2,3
 1153 1253 1153 1253 1153 1060 c 0,4,5
 1153 838 1153 838 921 674 c 0,6,7
 757 558 757 558 757 476 c 1,8,-1
 477 476 l 1,9,10
 477 531 477 531 497 586 c 1,11,-1
 468 1193 l 1,12,13
 395 1151 395 1151 338 1063 c 1,14,-1
 90 1236 l 1,15,16
 333 1530 333 1530 602 1530 c 0,0,1
609 -20 m 128,-1,18
 529 -20 529 -20 476 38 c 0,19,20
 422 95 422 95 422 174.5 c 128,-1,21
 422 254 422 254 477.5 308.5 c 128,-1,22
 533 363 533 363 613 363 c 0,23,24
 695 363 695 363 747 309 c 128,-1,25
 799 255 799 255 799 173 c 0,26,27
 799 90 799 90 745 36 c 0,28,17
 689 -20 689 -20 609 -20 c 128,-1,18
704 1215 m 1,29,-1
 682 824 l 1,30,31
 702 841 702 841 723 857 c 0,32,33
 831 940 831 940 831 1042 c 0,34,35
 831 1127 831 1127 771 1177 c 0,36,37
 742 1202 742 1202 704 1215 c 1,29,-1
EndSplineSet
Validated: 1
EndChar

StartChar: uni1E02
Encoding: 7682 7682 214
Width: 1298
Flags: W
HStem: -20 300<610 823.751> 0 21G<170 490> 684 275<616 739.278> 1247 283<502.873 753.858> 1590 383<471.934 713.782>
VStem: 170 320<0 1225.3> 404 377<1658.47 1906.28> 789 294<1006.28 1208.18> 920 308<366.529 606.576>
LayerCount: 2
Fore
SplineSet
595 1973 m 0,0,1
 677 1973 677 1973 729 1919 c 128,-1,2
 781 1865 781 1865 781 1783 c 0,3,4
 781 1700 781 1700 727 1646 c 0,5,6
 671 1590 671 1590 591 1590 c 128,-1,7
 511 1590 511 1590 457.5 1647.5 c 128,-1,8
 404 1705 404 1705 404 1784.5 c 128,-1,9
 404 1864 404 1864 459.5 1918.5 c 128,-1,10
 515 1973 515 1973 595 1973 c 0,0,1
170 0 m 1,11,-1
 170 1159 l 2,12,13
 170 1530 170 1530 590 1530 c 0,14,15
 818 1530 818 1530 950.5 1418 c 128,-1,16
 1083 1306 1083 1306 1083 1143 c 128,-1,17
 1083 980 1083 980 926 858 c 1,18,19
 1036 833 1036 833 1118 753 c 0,20,21
 1228 644 1228 644 1228 462 c 0,22,23
 1228 277 1228 277 1075 141 c 0,24,25
 894 -20 894 -20 610 -20 c 9,26,-1
 610 280 l 1,27,28
 784 280 784 280 852 342 c 128,-1,29
 920 404 920 404 920 484 c 0,30,31
 920 684 920 684 616 684 c 1,32,-1
 616 959 l 1,33,34
 686 959 686 959 741 1002 c 0,35,36
 789 1039 789 1039 789 1105 c 0,37,38
 789 1247 789 1247 607 1247 c 0,39,40
 490 1247 490 1247 490 1151 c 2,41,-1
 490 0 l 1,42,-1
 170 0 l 1,11,-1
EndSplineSet
Validated: 1
EndChar

StartChar: uni1E03
Encoding: 7683 7683 215
Width: 1295
Flags: W
HStem: -20 280<487.871 786.056> 840 280<590 785.831> 1490 20G<170 470> 1590 383<198.934 440.782>
VStem: 131 377<1658.47 1906.28> 170 300<277.307 1510> 925 300<394.585 709.701>
LayerCount: 2
Fore
SplineSet
322 1973 m 0,0,1
 404 1973 404 1973 456 1919 c 128,-1,2
 508 1865 508 1865 508 1783 c 0,3,4
 508 1700 508 1700 454 1646 c 0,5,6
 398 1590 398 1590 318 1590 c 128,-1,7
 238 1590 238 1590 184.5 1647.5 c 128,-1,8
 131 1705 131 1705 131 1784.5 c 128,-1,9
 131 1864 131 1864 186.5 1918.5 c 128,-1,10
 242 1973 242 1973 322 1973 c 0,0,1
590 -20 m 0,11,12
 170 -20 170 -20 170 342 c 2,13,-1
 170 1510 l 1,14,-1
 470 1510 l 1,15,-1
 470 364 l 2,16,17
 470 260 470 260 590 260 c 0,18,19
 750 260 750 260 837 341 c 0,20,21
 925 422 925 422 925 551 c 0,22,23
 925 682 925 682 836 760 c 0,24,25
 744 840 744 840 590 840 c 1,26,-1
 590 1120 l 1,27,28
 860 1120 860 1120 1031 975 c 0,29,30
 1225 811 1225 811 1225 549 c 128,-1,31
 1225 287 1225 287 1041.5 133.5 c 128,-1,32
 858 -20 858 -20 590 -20 c 0,11,12
EndSplineSet
Validated: 1
EndChar

StartChar: uni1E0A
Encoding: 7690 7690 216
Width: 1675
Flags: W
HStem: -20 300<610 1019.13> 0 21G<170 490> 1230 300<503.149 1019.54> 1590 383<591.934 833.782>
VStem: 170 320<0 1214.7> 524 377<1658.47 1906.28> 1285 320<545.857 968.986>
LayerCount: 2
Fore
SplineSet
715 1973 m 0,0,1
 797 1973 797 1973 849 1919 c 128,-1,2
 901 1865 901 1865 901 1783 c 0,3,4
 901 1700 901 1700 847 1646 c 0,5,6
 791 1590 791 1590 711 1590 c 128,-1,7
 631 1590 631 1590 577.5 1647.5 c 128,-1,8
 524 1705 524 1705 524 1784.5 c 128,-1,9
 524 1864 524 1864 579.5 1918.5 c 128,-1,10
 635 1973 635 1973 715 1973 c 0,0,1
170 0 m 1,11,-1
 170 1159 l 2,12,13
 170 1530 170 1530 590 1530 c 2,14,-1
 816 1530 l 2,15,16
 1159 1530 1159 1530 1391 1293 c 0,17,18
 1605 1074 1605 1074 1605 754 c 0,19,20
 1605 437 1605 437 1382.5 208.5 c 128,-1,21
 1160 -20 1160 -20 816 -20 c 2,22,-1
 610 -20 l 1,23,-1
 610 280 l 1,24,-1
 816 280 l 2,25,26
 1017 280 1017 280 1150 413 c 0,27,28
 1285 548 1285 548 1285 756.5 c 128,-1,29
 1285 965 1285 965 1149 1097.5 c 128,-1,30
 1013 1230 1013 1230 816 1230 c 2,31,-1
 590 1230 l 2,32,33
 490 1230 490 1230 490 1139 c 2,34,-1
 490 0 l 1,35,-1
 170 0 l 1,11,-1
EndSplineSet
Validated: 1
EndChar

StartChar: uni1E0B
Encoding: 7691 7691 217
Width: 1295
Flags: W
HStem: -20 280<508.944 807.129> 840 280<509.645 705> 1490 20G<825 1125> 1590 383<854.934 1096.78>
VStem: 70 300<394.585 709.701> 787 377<1658.47 1906.28> 825 300<277.307 1510>
LayerCount: 2
Fore
SplineSet
978 1973 m 0,0,1
 1060 1973 1060 1973 1112 1919 c 128,-1,2
 1164 1865 1164 1865 1164 1783 c 0,3,4
 1164 1700 1164 1700 1110 1646 c 0,5,6
 1054 1590 1054 1590 974 1590 c 128,-1,7
 894 1590 894 1590 840.5 1647.5 c 128,-1,8
 787 1705 787 1705 787 1784.5 c 128,-1,9
 787 1864 787 1864 842.5 1918.5 c 128,-1,10
 898 1973 898 1973 978 1973 c 0,0,1
705 -20 m 0,11,12
 437 -20 437 -20 253.5 133.5 c 128,-1,13
 70 287 70 287 70 549 c 128,-1,14
 70 811 70 811 264 975 c 0,15,16
 436 1120 436 1120 705 1120 c 1,17,-1
 705 840 l 1,18,19
 551 840 551 840 459 760 c 0,20,21
 370 682 370 682 370 551 c 0,22,23
 370 422 370 422 458 341 c 0,24,25
 545 260 545 260 705 260 c 0,26,27
 825 260 825 260 825 364 c 2,28,-1
 825 1510 l 1,29,-1
 1125 1510 l 1,30,-1
 1125 342 l 2,31,32
 1125 -20 1125 -20 705 -20 c 0,11,12
EndSplineSet
Validated: 1
EndChar

StartChar: uni1E1E
Encoding: 7710 7710 218
Width: 1151
Flags: W
HStem: 0 21G<170 490> 599 302<503.149 981> 1209 301<503.149 981> 1590 383<496.934 738.782>
VStem: 170 320<0 579.755 961 1190.46> 429 377<1658.47 1906.28>
LayerCount: 2
Fore
SplineSet
620 1973 m 0,0,1
 702 1973 702 1973 754 1919 c 128,-1,2
 806 1865 806 1865 806 1783 c 0,3,4
 806 1700 806 1700 752 1646 c 0,5,6
 696 1590 696 1590 616 1590 c 128,-1,7
 536 1590 536 1590 482.5 1647.5 c 128,-1,8
 429 1705 429 1705 429 1784.5 c 128,-1,9
 429 1864 429 1864 484.5 1918.5 c 128,-1,10
 540 1973 540 1973 620 1973 c 0,0,1
981 1510 m 1,11,-1
 981 1209 l 1,12,-1
 590 1209 l 2,13,14
 490 1209 490 1209 490 1112 c 2,15,-1
 490 961 l 1,16,-1
 170 961 l 1,17,-1
 170 1134 l 2,18,19
 170 1510 170 1510 590 1510 c 2,20,-1
 981 1510 l 1,11,-1
170 0 m 1,21,-1
 170 523 l 2,22,23
 170 901 170 901 590 901 c 2,24,-1
 981 901 l 1,25,-1
 981 599 l 1,26,-1
 590 599 l 2,27,28
 490 599 490 599 490 500 c 2,29,-1
 490 0 l 1,30,-1
 170 0 l 1,21,-1
EndSplineSet
Validated: 1
EndChar

StartChar: uni1E1F
Encoding: 7711 7711 219
Width: 850
Flags: W
HStem: 0 21G<170 470> 820 280<491.562 840> 1250 280<502.61 840> 1590 383<388.934 630.782>
VStem: 170 300<0 803.515 1160 1204.8> 321 377<1658.47 1906.28>
LayerCount: 2
Fore
SplineSet
512 1973 m 0,0,1
 594 1973 594 1973 646 1919 c 128,-1,2
 698 1865 698 1865 698 1783 c 0,3,4
 698 1700 698 1700 644 1646 c 0,5,6
 588 1590 588 1590 508 1590 c 128,-1,7
 428 1590 428 1590 374.5 1647.5 c 128,-1,8
 321 1705 321 1705 321 1784.5 c 128,-1,9
 321 1864 321 1864 376.5 1918.5 c 128,-1,10
 432 1973 432 1973 512 1973 c 0,0,1
170 0 m 1,11,-1
 170 739 l 2,12,13
 170 1100 170 1100 590 1100 c 2,14,-1
 840 1100 l 1,15,-1
 840 820 l 1,16,-1
 590 820 l 2,17,18
 470 820 470 820 470 717 c 2,19,-1
 470 0 l 1,20,-1
 170 0 l 1,11,-1
840 1530 m 1,21,-1
 840 1250 l 1,22,23
 470 1250 470 1250 470 1160 c 1,24,-1
 170 1160 l 1,25,26
 172 1530 172 1530 840 1530 c 1,21,-1
EndSplineSet
Validated: 1
EndChar

StartChar: uni1E40
Encoding: 7744 7744 220
Width: 1959
Flags: W
HStem: 0 21G<150 451.347 816.995 1141.14 1507.45 1809> 1490 20G<215 532.084 1391 1692.56> 1590 383<831.934 1073.78>
VStem: 150 300<0 300> 764 377<1658.47 1906.28> 1391 300<1210 1510> 1509 300<0 300>
DStem2: 150 0 450 0 0.0713174 0.997454<21.3952 825.204> 524 1510 215 1510 0.374565 -0.927201<0 426.678 648.967 1227.45> 984 372 1133 0 0.377145 0.926154<0 549.539> 1691 1510 1391 1510 0.0779082 -0.996961<0 481.215 712.915 1491.23>
LayerCount: 2
Fore
SplineSet
955 1973 m 0,0,1
 1037 1973 1037 1973 1089 1919 c 128,-1,2
 1141 1865 1141 1865 1141 1783 c 0,3,4
 1141 1700 1141 1700 1087 1646 c 0,5,6
 1031 1590 1031 1590 951 1590 c 128,-1,7
 871 1590 871 1590 817.5 1647.5 c 128,-1,8
 764 1705 764 1705 764 1784.5 c 128,-1,9
 764 1864 764 1864 819.5 1918.5 c 128,-1,10
 875 1973 875 1973 955 1973 c 0,0,1
150 0 m 1,11,-1
 222 1007 l 1,12,-1
 418 1007 l 1,13,-1
 215 1510 l 1,14,-1
 524 1510 l 1,15,-1
 984 372 l 1,16,-1
 1242 1007 l 1,17,-1
 1431 1007 l 1,18,-1
 1391 1510 l 1,19,-1
 1691 1510 l 1,20,-1
 1809 0 l 1,21,-1
 1509 0 l 1,22,-1
 1449 776 l 1,23,-1
 1133 0 l 1,24,-1
 825 0 l 1,25,-1
 504 802 l 1,26,-1
 450 0 l 1,27,-1
 150 0 l 1,11,-1
EndSplineSet
Validated: 1
EndChar

StartChar: uni1E41
Encoding: 7745 7745 221
Width: 1758
Flags: W
HStem: 0 21G<170 470 754 1054 1338 1638> 840 280<491.562 1214.14> 1167 383<774.934 1016.78>
VStem: 170 300<0 822.693> 707 377<1235.47 1483.28> 754 300<0 720> 1338 300<0 720.27>
LayerCount: 2
Fore
SplineSet
898 1550 m 0,0,1
 980 1550 980 1550 1032 1496 c 128,-1,2
 1084 1442 1084 1442 1084 1360 c 0,3,4
 1084 1277 1084 1277 1030 1223 c 0,5,6
 974 1167 974 1167 894 1167 c 128,-1,7
 814 1167 814 1167 760.5 1224.5 c 128,-1,8
 707 1282 707 1282 707 1361.5 c 128,-1,9
 707 1441 707 1441 762.5 1495.5 c 128,-1,10
 818 1550 818 1550 898 1550 c 0,0,1
170 0 m 1,11,-1
 170 758 l 2,12,13
 170 1120 170 1120 590 1120 c 2,14,-1
 1048 1120 l 2,15,16
 1292 1119 1292 1119 1464.5 974 c 128,-1,17
 1637 829 1637 829 1638 569 c 2,18,-1
 1638 0 l 1,19,-1
 1338 0 l 1,20,-1
 1338 552 l 2,21,22
 1337 700 1337 700 1251.5 770 c 128,-1,23
 1166 840 1166 840 1048 840 c 2,24,-1
 590 840 l 2,25,26
 470 840 470 840 470 736 c 2,27,-1
 470 0 l 1,28,-1
 170 0 l 1,11,-1
1054 0 m 1,29,-1
 754 0 l 1,30,-1
 754 720 l 1,31,-1
 1054 720 l 1,32,-1
 1054 0 l 1,29,-1
EndSplineSet
Validated: 1
EndChar

StartChar: uni1E56
Encoding: 7766 7766 222
Width: 1384
Flags: W
HStem: 0 21G<170 490> 332 303<610 829.506> 1230 300<500.981 837.492> 1590 383<471.934 713.782>
VStem: 170 320<0 1214.7> 404 377<1658.47 1906.28> 994 320<785.824 1095.74>
LayerCount: 2
Fore
SplineSet
595 1973 m 0,0,1
 677 1973 677 1973 729 1919 c 128,-1,2
 781 1865 781 1865 781 1783 c 0,3,4
 781 1700 781 1700 727 1646 c 0,5,6
 671 1590 671 1590 591 1590 c 128,-1,7
 511 1590 511 1590 457.5 1647.5 c 128,-1,8
 404 1705 404 1705 404 1784.5 c 128,-1,9
 404 1864 404 1864 459.5 1918.5 c 128,-1,10
 515 1973 515 1973 595 1973 c 0,0,1
170 0 m 1,11,-1
 170 1159 l 2,12,13
 170 1530 170 1530 590 1530 c 0,14,15
 899 1529 899 1529 1085 1394 c 0,16,17
 1314 1225 1314 1225 1314 949 c 0,18,19
 1314 721 1314 721 1158 552 c 0,20,21
 953 332 953 332 610 332 c 9,22,-1
 610 635 l 1,23,24
 805 635 805 635 899 725 c 0,25,26
 994 815 994 815 994 947 c 128,-1,27
 994 1079 994 1079 891.5 1154 c 128,-1,28
 789 1229 789 1229 590 1230 c 0,29,30
 490 1230 490 1230 490 1139 c 2,31,-1
 490 0 l 1,32,-1
 170 0 l 1,11,-1
EndSplineSet
Validated: 1
EndChar

StartChar: uni1E57
Encoding: 7767 7767 223
Width: 1295
Flags: W
HStem: -20 280<590 785.355> 840 280<487.871 786.056> 1167 383<470.934 712.782>
VStem: 170 300<-410 822.693> 403 377<1235.47 1483.28> 925 300<390.299 705.415>
LayerCount: 2
Fore
SplineSet
594 1550 m 0,0,1
 676 1550 676 1550 728 1496 c 128,-1,2
 780 1442 780 1442 780 1360 c 0,3,4
 780 1277 780 1277 726 1223 c 0,5,6
 670 1167 670 1167 590 1167 c 128,-1,7
 510 1167 510 1167 456.5 1224.5 c 128,-1,8
 403 1282 403 1282 403 1361.5 c 128,-1,9
 403 1441 403 1441 458.5 1495.5 c 128,-1,10
 514 1550 514 1550 594 1550 c 0,0,1
590 -20 m 1,11,-1
 590 260 l 1,12,13
 744 260 744 260 836 340 c 0,14,15
 925 418 925 418 925 549 c 0,16,17
 925 678 925 678 837 759 c 0,18,19
 750 840 750 840 590 840 c 0,20,21
 470 840 470 840 470 736 c 2,22,-1
 470 -410 l 1,23,-1
 170 -410 l 1,24,-1
 170 758 l 2,25,26
 170 1120 170 1120 590 1120 c 0,27,28
 858 1120 858 1120 1041.5 966.5 c 128,-1,29
 1225 813 1225 813 1225 551 c 128,-1,30
 1225 289 1225 289 1031 125 c 0,31,32
 859 -20 859 -20 590 -20 c 1,11,-1
EndSplineSet
Validated: 1
EndChar

StartChar: uni1E60
Encoding: 7776 7776 224
Width: 1327
Flags: W
HStem: -20 300<462.856 817.356> 1235 295<593.418 851.68> 1590 383<588.934 830.782>
VStem: 266 314<1074 1215.96> 521 377<1658.47 1906.28> 917 320<370.063 588.331>
DStem2: 730 1013 624 711 0.923235 -0.384236<-167.947 334.194>
LayerCount: 2
Fore
SplineSet
712 1973 m 0,0,1
 794 1973 794 1973 846 1919 c 128,-1,2
 898 1865 898 1865 898 1783 c 0,3,4
 898 1700 898 1700 844 1646 c 0,5,6
 788 1590 788 1590 708 1590 c 128,-1,7
 628 1590 628 1590 574.5 1647.5 c 128,-1,8
 521 1705 521 1705 521 1784.5 c 128,-1,9
 521 1864 521 1864 576.5 1918.5 c 128,-1,10
 632 1973 632 1973 712 1973 c 0,0,1
610 -20 m 0,11,12
 287 -20 287 -20 70 274 c 1,13,-1
 314 447 l 1,14,15
 452 280 452 280 648 280 c 0,16,17
 771 280 771 280 844 341.5 c 128,-1,18
 917 403 917 403 917 487 c 0,19,20
 917 590 917 590 777 648 c 2,21,-1
 624 711 l 2,22,23
 266 858 266 858 266 1147 c 0,24,25
 266 1332 266 1332 423 1448 c 0,26,27
 533 1530 533 1530 707 1530 c 0,28,29
 944 1530 944 1530 1125 1323 c 1,30,-1
 903 1141 l 1,31,32
 831 1235 831 1235 715 1235 c 0,33,34
 580 1235 580 1235 580 1146 c 0,35,36
 580 1075 580 1075 730 1013 c 2,37,-1
 903 941 l 2,38,39
 1237 802 1237 802 1237 484 c 0,40,41
 1237 307 1237 307 1098 156 c 0,42,43
 936 -20 936 -20 610 -20 c 0,11,12
EndSplineSet
Validated: 1
EndChar

StartChar: uni1E61
Encoding: 7777 7777 225
Width: 1053
Flags: W
HStem: -20 260<348.131 660.985> 866 254<457.816 671.4> 1167 383<430.934 672.782>
VStem: 363 377<1235.47 1483.28> 696 287<272.705 415.578>
DStem2: 709 683 476 485 0.948683 -0.316228<-276.413 84.6273>
LayerCount: 2
Fore
SplineSet
554 1550 m 0,0,1
 636 1550 636 1550 688 1496 c 128,-1,2
 740 1442 740 1442 740 1360 c 0,3,4
 740 1277 740 1277 686 1223 c 0,5,6
 630 1167 630 1167 550 1167 c 128,-1,7
 470 1167 470 1167 416.5 1224.5 c 128,-1,8
 363 1282 363 1282 363 1361.5 c 128,-1,9
 363 1441 363 1441 418.5 1495.5 c 128,-1,10
 474 1550 474 1550 554 1550 c 0,0,1
494 -20 m 0,11,12
 222 -20 222 -20 50 177 c 1,13,-1
 261 368 l 1,14,15
 349 240 349 240 505 240 c 0,16,17
 614 240 614 240 655 272 c 0,18,19
 696 303 696 303 696 344 c 0,20,21
 696 412 696 412 584 449 c 10,22,-1
 476 485 l 2,23,24
 177 585 177 585 177 808 c 0,25,26
 177 947 177 947 296 1042 c 0,27,28
 394 1120 394 1120 550 1120 c 0,29,30
 776 1120 776 1120 920 933 c 1,31,-1
 720 748 l 1,32,33
 674 866 674 866 550 866 c 0,34,35
 456 866 456 866 456 809 c 0,36,37
 456 767 456 767 571 729 c 2,38,-1
 709 683 l 2,39,40
 983 592 983 592 983 358 c 0,41,42
 983 209 983 209 851 93 c 0,43,44
 721 -20 721 -20 494 -20 c 0,11,12
EndSplineSet
Validated: 1
EndChar

StartChar: uni1E6A
Encoding: 7786 7786 226
Width: 1210
Flags: W
HStem: 0 21G<446 766> 1210 300<10 386 779.149 1200> 1590 383<483.934 725.782>
VStem: 10 376<1210 1510> 416 377<1658.47 1906.28> 446 320<0 1190.46>
LayerCount: 2
Fore
SplineSet
446 0 m 1,0,-1
 446 1134 l 2,1,2
 446 1510 446 1510 866 1510 c 2,3,-1
 1200 1510 l 1,4,-1
 1200 1209 l 1,5,-1
 866 1209 l 2,6,7
 766 1209 766 1209 766 1112 c 2,8,-1
 766 0 l 1,9,-1
 446 0 l 1,0,-1
10 1510 m 1,10,-1
 386 1510 l 1,11,-1
 386 1210 l 1,12,-1
 10 1210 l 1,13,-1
 10 1510 l 1,10,-1
607 1973 m 0,14,15
 689 1973 689 1973 741 1919 c 128,-1,16
 793 1865 793 1865 793 1783 c 0,17,18
 793 1700 793 1700 739 1646 c 0,19,20
 683 1590 683 1590 603 1590 c 128,-1,21
 523 1590 523 1590 469.5 1647.5 c 128,-1,22
 416 1705 416 1705 416 1784.5 c 128,-1,23
 416 1864 416 1864 471.5 1918.5 c 128,-1,24
 527 1973 527 1973 607 1973 c 0,14,15
EndSplineSet
Validated: 1
EndChar

StartChar: uni1E6B
Encoding: 7787 7787 227
Width: 850
Flags: W
HStem: 0 21G<170 470> 820 280<491.562 840> 1160 350<170 470> 1590 383<198.934 440.782>
VStem: 131 377<1658.47 1906.28> 170 300<0 803.515 1160 1510>
LayerCount: 2
Fore
SplineSet
322 1973 m 0,0,1
 404 1973 404 1973 456 1919 c 128,-1,2
 508 1865 508 1865 508 1783 c 0,3,4
 508 1700 508 1700 454 1646 c 0,5,6
 398 1590 398 1590 318 1590 c 128,-1,7
 238 1590 238 1590 184.5 1647.5 c 128,-1,8
 131 1705 131 1705 131 1784.5 c 128,-1,9
 131 1864 131 1864 186.5 1918.5 c 128,-1,10
 242 1973 242 1973 322 1973 c 0,0,1
170 0 m 1,11,-1
 170 739 l 2,12,13
 170 1100 170 1100 590 1100 c 2,14,-1
 840 1100 l 1,15,-1
 840 820 l 1,16,-1
 590 820 l 2,17,18
 470 820 470 820 470 717 c 2,19,-1
 470 0 l 1,20,-1
 170 0 l 1,11,-1
170 1510 m 1,21,-1
 470 1510 l 1,22,-1
 470 1160 l 1,23,-1
 170 1160 l 1,24,-1
 170 1510 l 1,21,-1
EndSplineSet
Validated: 1
EndChar

StartChar: uni1E9E
Encoding: 7838 7838 228
Width: 1436
Flags: W
HStem: -20 287<821.066 1034.67> 0 21G<170 480> 1253 277<500.043 769.331>
VStem: 170 310<0 1231.75> 596 270<875.213 978.804> 1076 290<319.369 526.318>
LayerCount: 2
Fore
SplineSet
170 0 m 1,0,-1
 170 1154 l 2,1,2
 170 1530 170 1530 590 1530 c 0,3,4
 822 1530 822 1530 990 1417 c 0,5,6
 1225 1259 1225 1259 1225 1027 c 1,7,8
 1019 1027 1019 1027 955 1002 c 0,9,10
 866 968 866 968 866 926 c 0,11,12
 866 879 866 879 986 843 c 0,13,14
 1366 726 1366 726 1366 426 c 0,15,16
 1366 262 1366 262 1263 137 c 0,17,18
 1133 -20 1133 -20 930 -20 c 0,19,20
 513 -20 513 -20 513 391 c 1,21,-1
 794 391 l 1,22,23
 794 341 794 341 820 311 c 0,24,25
 857 267 857 267 935 267 c 0,26,27
 1010 267 1010 267 1050 329 c 0,28,29
 1076 369 1076 369 1076 424 c 0,30,31
 1076 559 1076 559 846 625 c 0,32,33
 596 697 596 697 596 896 c 0,34,35
 596 1094 596 1094 838 1164 c 1,36,37
 729 1253 729 1253 591 1253 c 0,38,39
 480 1253 480 1253 480 1132 c 2,40,-1
 480 0 l 1,41,-1
 170 0 l 1,0,-1
EndSplineSet
Validated: 1
EndChar

StartChar: AEacute
Encoding: 508 508 229
Width: 2082
Flags: W
HStem: 0 300<1334 2012> 597 302<611.562 1014 1334 1825> 1209 301<918.25 1825>
VStem: 1014 320<300 597 899 1089>
DStem2: 5 0 327 0 0.450218 0.892919<144.97 821.531 1219.63 1505.39> 1039 1720 1180 1560 0.742951 0.669346<0 432.414>
LayerCount: 2
Fore
SplineSet
5 0 m 1,0,-1
 296 577 l 2,1,2
 458 899 458 899 749 899 c 2,3,-1
 1014 899 l 1,4,-1
 1014 1089 l 1,5,-1
 1334 1089 l 1,6,-1
 1334 899 l 1,7,-1
 1825 899 l 1,8,-1
 1825 597 l 1,9,-1
 1334 597 l 1,10,-1
 1334 300 l 1,11,-1
 2012 300 l 1,12,-1
 2012 0 l 1,13,-1
 1014 0 l 1,14,-1
 1014 597 l 1,15,-1
 742 597 l 2,16,17
 628 597 628 597 595 531 c 2,18,-1
 327 0 l 1,19,-1
 5 0 l 1,0,-1
1825 1510 m 1,20,-1
 1825 1209 l 1,21,-1
 1049 1209 l 2,22,23
 936 1209 936 1209 902 1141 c 2,24,-1
 812 959 l 1,25,-1
 490 959 l 1,26,-1
 604 1188 l 2,27,28
 764 1510 764 1510 1056 1510 c 2,29,-1
 1825 1510 l 1,20,-1
1361 2010 m 1,30,-1
 1503 1851 l 1,31,-1
 1180 1560 l 1,32,-1
 1039 1720 l 1,33,-1
 1361 2010 l 1,30,-1
EndSplineSet
Validated: 1
EndChar

StartChar: Scommaaccent
Encoding: 536 536 230
Width: 1327
Flags: W
HStem: -20 300<462.856 817.356> 1235 295<593.418 851.68>
VStem: 266 314<1074 1215.96> 917 320<370.063 588.331>
DStem2: 409 -340 550 -500 0.742951 0.669346<0 432.414> 730 1013 624 711 0.923235 -0.384236<-167.947 334.194>
LayerCount: 2
Fore
SplineSet
731 -50 m 1,0,-1
 873 -209 l 1,1,-1
 550 -500 l 1,2,-1
 409 -340 l 1,3,-1
 731 -50 l 1,0,-1
610 -20 m 0,4,5
 287 -20 287 -20 70 274 c 1,6,-1
 314 447 l 1,7,8
 452 280 452 280 648 280 c 0,9,10
 771 280 771 280 844 341.5 c 128,-1,11
 917 403 917 403 917 487 c 0,12,13
 917 590 917 590 777 648 c 2,14,-1
 624 711 l 2,15,16
 266 858 266 858 266 1147 c 0,17,18
 266 1332 266 1332 423 1448 c 0,19,20
 533 1530 533 1530 707 1530 c 0,21,22
 944 1530 944 1530 1125 1323 c 1,23,-1
 903 1141 l 1,24,25
 831 1235 831 1235 715 1235 c 0,26,27
 580 1235 580 1235 580 1146 c 0,28,29
 580 1075 580 1075 730 1013 c 2,30,-1
 903 941 l 2,31,32
 1237 802 1237 802 1237 484 c 0,33,34
 1237 307 1237 307 1098 156 c 0,35,36
 936 -20 936 -20 610 -20 c 0,4,5
EndSplineSet
Validated: 1
EndChar

StartChar: uni021A
Encoding: 538 538 231
Width: 1210
Flags: W
HStem: 0 21G<446 766> 1210 300<10 386 779.149 1200>
VStem: 10 376<1210 1510> 446 320<0 1190.46>
DStem2: 282 -340 423 -500 0.742951 0.669346<0 432.414>
LayerCount: 2
Fore
SplineSet
604 -50 m 1,0,-1
 746 -209 l 1,1,-1
 423 -500 l 1,2,-1
 282 -340 l 1,3,-1
 604 -50 l 1,0,-1
446 0 m 1,4,-1
 446 1134 l 2,5,6
 446 1510 446 1510 866 1510 c 2,7,-1
 1200 1510 l 1,8,-1
 1200 1209 l 1,9,-1
 866 1209 l 2,10,11
 766 1209 766 1209 766 1112 c 2,12,-1
 766 0 l 1,13,-1
 446 0 l 1,4,-1
10 1510 m 1,14,-1
 386 1510 l 1,15,-1
 386 1210 l 1,16,-1
 10 1210 l 1,17,-1
 10 1510 l 1,14,-1
EndSplineSet
Validated: 1
EndChar

StartChar: Oslashacute
Encoding: 510 510 232
Width: 1718
Flags: W
HStem: -20 300<652.871 1064.98> 1230 300<654.908 1064.79>
VStem: 70 320<538.494 966.13> 1328 320<545.554 967.521>
DStem2: 129 145 250 26 0.706579 0.707634<1.28766 169.003 477.297 1416.92 1726.8 1892.22> 722 1720 863 1560 0.727863 0.685723<0 427.558>
LayerCount: 2
Fore
SplineSet
1044 2010 m 1,0,-1
 1186 1851 l 1,1,-1
 863 1560 l 1,2,-1
 722 1720 l 1,3,-1
 1044 2010 l 1,0,-1
859 -20 m 0,4,5
 569 -20 569 -20 365 142 c 1,6,-1
 250 26 l 1,7,-1
 129 145 l 1,8,-1
 245 261 l 1,9,10
 70 473 70 473 70 757 c 0,11,12
 70 1080 70 1080 284 1294 c 0,13,14
 521 1530 521 1530 862 1530 c 0,15,16
 1145 1530 1145 1530 1351 1368 c 1,17,-1
 1466 1484 l 1,18,-1
 1590 1368 l 1,19,-1
 1473 1250 l 1,20,21
 1648 1042 1648 1042 1648 754 c 0,22,23
 1648 436 1648 436 1425 208 c 0,24,25
 1203 -20 1203 -20 859 -20 c 0,4,5
860 280 m 0,26,27
 1058 280 1058 280 1193 413 c 0,28,29
 1328 548 1328 548 1328 756 c 0,30,31
 1328 914 1328 914 1250 1028 c 1,32,-1
 586 363 l 1,33,34
 706 280 706 280 860 280 c 0,26,27
466 483 m 1,35,-1
 1131 1148 l 1,36,37
 1014 1230 1014 1230 859 1230 c 0,38,39
 661 1230 661 1230 525 1097 c 0,40,41
 390 964 390 964 390 755 c 0,42,43
 390 597 390 597 466 483 c 1,35,-1
EndSplineSet
Validated: 1
EndChar

StartChar: oslashacute
Encoding: 511 511 233
Width: 1322
Flags: W
HStem: -20 280<515.551 820.048> 840 280<501.526 806.449>
VStem: 70 300<401.433 712.111> 951 301<387.694 698.567>
DStem2: 92 87 201 -16 0.707107 0.707107<4.24264 154.323 445.477 1013.99 1305.14 1459.47> 521 1340 662 1180 0.742951 0.669346<0 432.414>
LayerCount: 2
Fore
SplineSet
843 1630 m 1,0,-1
 985 1471 l 1,1,-1
 662 1180 l 1,2,-1
 521 1340 l 1,3,-1
 843 1630 l 1,0,-1
661 -20 m 0,4,5
 469 -20 469 -20 310 93 c 1,6,-1
 201 -16 l 1,7,-1
 92 87 l 1,8,-1
 198 193 l 1,9,10
 70 339 70 339 70 550 c 0,11,12
 70 799 70 799 251 960 c 0,13,14
 432 1120 432 1120 661 1120 c 0,15,16
 853 1120 853 1120 1012 1007 c 1,17,-1
 1124 1119 l 1,18,-1
 1230 1013 l 1,19,-1
 1124 907 l 1,20,21
 1252 761 1252 761 1252 550 c 0,22,23
 1252 301 1252 301 1071 140 c 0,24,25
 889 -20 889 -20 661 -20 c 0,4,5
661 260 m 0,26,27
 784 260 784 260 869 341 c 0,28,29
 951 419 951 419 951 550 c 0,30,31
 951 637 951 637 917 700 c 1,32,-1
 513 296 l 1,33,34
 579 260 579 260 661 260 c 0,26,27
405 400 m 1,35,-1
 809 804 l 1,36,37
 743 840 743 840 661 840 c 0,38,39
 537 840 537 840 453 759 c 0,40,41
 370 680 370 680 370 550 c 0,42,43
 370 463 370 463 405 400 c 1,35,-1
EndSplineSet
Validated: 1
EndChar

StartChar: aeacute
Encoding: 509 509 234
Width: 1996
Flags: W
HStem: -20 280<509.169 705 1254.9 1575.05> 0 21G<825 1125> 368 262<1287 1561.14> 840 280<508.944 808.083 1254.72 1575.52>
VStem: 70 300<390.299 705.415> 825 300<0 55 383.538 713.433> 1606 300<675.422 804.845>
DStem2: 887 1320 1028 1160 0.742951 0.669346<0 432.414>
LayerCount: 2
Fore
SplineSet
1209 1610 m 1,0,-1
 1351 1451 l 1,1,-1
 1028 1160 l 1,2,-1
 887 1320 l 1,3,-1
 1209 1610 l 1,0,-1
825 0 m 1,4,-1
 825 736 l 2,5,6
 825 840 825 840 705 840 c 0,7,8
 545 840 545 840 458 759 c 0,9,10
 370 678 370 678 370 549 c 0,11,12
 370 418 370 418 459 340 c 0,13,14
 551 260 551 260 705 260 c 1,15,-1
 705 -20 l 1,16,17
 435 -20 435 -20 264 125 c 0,18,19
 70 289 70 289 70 551 c 128,-1,20
 70 813 70 813 253.5 966.5 c 128,-1,21
 437 1120 437 1120 705 1120 c 0,22,23
 950 1120 950 1120 1052 997 c 1,24,25
 1216 1120 1216 1120 1417 1120 c 0,26,27
 1625 1120 1625 1120 1766 1014 c 0,28,29
 1906 909 1906 909 1906 736 c 0,30,31
 1906 493 1906 493 1562 393 c 0,32,33
 1476 368 1476 368 1287 368 c 1,34,-1
 1287 630 l 1,35,36
 1606 630 1606 630 1606 741 c 0,37,38
 1606 780 1606 780 1555 810 c 0,39,40
 1503 840 1503 840 1416 840 c 0,41,42
 1292 840 1292 840 1208 759 c 0,43,44
 1125 680 1125 680 1125 550 c 0,45,46
 1125 415 1125 415 1208 339 c 0,47,48
 1295 260 1295 260 1416 260 c 0,49,50
 1539 260 1539 260 1624 341 c 1,51,-1
 1826 140 l 1,52,53
 1644 -20 1644 -20 1416 -20 c 0,54,55
 1260 -20 1260 -20 1125 55 c 1,56,-1
 1125 0 l 1,57,-1
 825 0 l 1,4,-1
EndSplineSet
Validated: 1
EndChar

StartChar: Aringacute
Encoding: 506 506 235
Width: 1822
Flags: W
HStem: 0 21G<5 327.077 1473.92 1817> 458 302<532.969 1062> 1490 20G<755.942 1066.08> 1527 160<689.892 833.384> 1849 161<696.669 826.835>
VStem: 523 157<1696.96 1831.54> 844 157<1696.56 1833.27>
DStem2: 5 0 317 0 0.45005 0.893003<140.416 664.431 1059 1436.45> 1056 1510 901 1157 0.45005 -0.893003<245.472 1541.06> 1009 1720 1150 1560 0.742951 0.669346<0 432.414>
LayerCount: 2
Fore
SplineSet
5 0 m 1,0,-1
 226 438 l 2,1,2
 388 760 388 760 678 760 c 2,3,-1
 1062 760 l 1,4,-1
 1062 458 l 1,5,-1
 671 458 l 2,6,7
 548 458 548 458 514 391 c 2,8,-1
 317 0 l 1,9,-1
 5 0 l 1,0,-1
1817 0 m 1,10,-1
 1484 0 l 1,11,-1
 901 1157 l 1,12,-1
 731 820 l 1,13,-1
 419 820 l 1,14,-1
 766 1510 l 1,15,-1
 1056 1510 l 1,16,-1
 1817 0 l 1,10,-1
1331 2010 m 1,17,-1
 1473 1851 l 1,18,-1
 1150 1560 l 1,19,-1
 1009 1720 l 1,20,-1
 1331 2010 l 1,17,-1
761.5 1849 m 128,-1,22
 727 1849 727 1849 703.5 1825.5 c 128,-1,23
 680 1802 680 1802 680 1768.5 c 128,-1,24
 680 1735 680 1735 705 1711 c 128,-1,25
 730 1687 730 1687 762.5 1687 c 128,-1,26
 795 1687 795 1687 819.5 1712 c 128,-1,27
 844 1737 844 1737 844 1771 c 128,-1,28
 844 1805 844 1805 820 1827 c 128,-1,21
 796 1849 796 1849 761.5 1849 c 128,-1,22
765 2010 m 0,29,30
 863 2010 863 2010 932 1938 c 128,-1,31
 1001 1866 1001 1866 1001 1767 c 128,-1,32
 1001 1668 1001 1668 929 1598 c 0,33,34
 857 1527 857 1527 761 1527 c 0,35,36
 661 1527 661 1527 593 1598 c 0,37,38
 523 1671 523 1671 523 1772.5 c 128,-1,39
 523 1874 523 1874 594.5 1942 c 128,-1,40
 666 2010 666 2010 765 2010 c 0,29,30
EndSplineSet
Validated: 1
EndChar

StartChar: aringacute
Encoding: 507 507 236
Width: 1295
Flags: W
HStem: -20 280<509.169 705> 0 21G<825 1125> 840 280<508.944 807.129> 1198 128<405.513 527.427> 1456 129<412.035 520.234>
VStem: 70 300<390.299 705.415> 275 126<1329.82 1444.12> 532 125<1329.54 1444.71> 825 300<0 822.693>
DStem2: 664 1353 777 1225 0.742149 0.670235<0 345.712>
LayerCount: 2
Fore
SplineSet
921 1585 m 1,0,-1
 1035 1458 l 1,1,-1
 777 1225 l 1,2,-1
 664 1353 l 1,3,-1
 921 1585 l 1,0,-1
465.5 1456 m 128,-1,5
 438 1456 438 1456 419.5 1437 c 128,-1,6
 401 1418 401 1418 401 1391.5 c 128,-1,7
 401 1365 401 1365 421 1345.5 c 128,-1,8
 441 1326 441 1326 467 1326 c 128,-1,9
 493 1326 493 1326 512.5 1346 c 128,-1,10
 532 1366 532 1366 532 1393.5 c 128,-1,11
 532 1421 532 1421 512.5 1438.5 c 128,-1,4
 493 1456 493 1456 465.5 1456 c 128,-1,5
469 1585 m 0,12,13
 547 1585 547 1585 602 1527.5 c 128,-1,14
 657 1470 657 1470 657 1390.5 c 128,-1,15
 657 1311 657 1311 600 1255 c 0,16,17
 542 1198 542 1198 465 1198 c 0,18,19
 385 1198 385 1198 331 1255 c 0,20,21
 275 1313 275 1313 275 1394.5 c 128,-1,22
 275 1476 275 1476 332.5 1530.5 c 128,-1,23
 390 1585 390 1585 469 1585 c 0,12,13
1125 0 m 1,24,-1
 825 0 l 1,25,-1
 825 736 l 2,26,27
 825 840 825 840 705 840 c 0,28,29
 545 840 545 840 458 759 c 0,30,31
 370 678 370 678 370 549 c 0,32,33
 370 418 370 418 459 340 c 0,34,35
 551 260 551 260 705 260 c 1,36,-1
 705 -20 l 1,37,38
 435 -20 435 -20 264 125 c 0,39,40
 70 289 70 289 70 551 c 128,-1,41
 70 813 70 813 253.5 966.5 c 128,-1,42
 437 1120 437 1120 705 1120 c 0,43,44
 1125 1120 1125 1120 1125 758 c 2,45,-1
 1125 0 l 1,24,-1
EndSplineSet
Validated: 1
EndChar

StartChar: Dcroat
Encoding: 272 272 237
Width: 1675
Flags: W
HStem: -20 300<610 1019.13> 0 21G<170 490> 621 222<20 170 490 726> 1230 300<503.149 1019.54>
VStem: 170 320<0 621 843 1214.7> 1285 320<545.857 968.986>
LayerCount: 2
Fore
SplineSet
170 0 m 1,0,-1
 170 621 l 1,1,-1
 20 621 l 1,2,-1
 20 843 l 1,3,-1
 170 843 l 1,4,-1
 170 1159 l 2,5,6
 170 1530 170 1530 590 1530 c 2,7,-1
 816 1530 l 2,8,9
 1159 1530 1159 1530 1391 1293 c 0,10,11
 1605 1074 1605 1074 1605 754 c 0,12,13
 1605 437 1605 437 1382.5 208.5 c 128,-1,14
 1160 -20 1160 -20 816 -20 c 2,15,-1
 610 -20 l 1,16,-1
 610 280 l 1,17,-1
 816 280 l 2,18,19
 1017 280 1017 280 1150 413 c 0,20,21
 1285 548 1285 548 1285 756.5 c 128,-1,22
 1285 965 1285 965 1149 1097.5 c 128,-1,23
 1013 1230 1013 1230 816 1230 c 2,24,-1
 590 1230 l 2,25,26
 490 1230 490 1230 490 1139 c 2,27,-1
 490 843 l 1,28,-1
 726 843 l 1,29,-1
 726 621 l 1,30,-1
 490 621 l 1,31,-1
 490 0 l 1,32,-1
 170 0 l 1,0,-1
EndSplineSet
Validated: 1
EndChar

StartChar: scommaaccent
Encoding: 537 537 238
Width: 1053
Flags: W
HStem: -20 260<348.131 660.985> 866 254<457.816 671.4>
VStem: 696 287<272.705 415.578>
DStem2: 276 -340 417 -500 0.742951 0.669346<0 432.414> 709 683 476 485 0.948683 -0.316228<-276.413 84.6273>
LayerCount: 2
Fore
SplineSet
598 -50 m 1,0,-1
 740 -209 l 1,1,-1
 417 -500 l 1,2,-1
 276 -340 l 1,3,-1
 598 -50 l 1,0,-1
494 -20 m 0,4,5
 222 -20 222 -20 50 177 c 1,6,-1
 261 368 l 1,7,8
 349 240 349 240 505 240 c 0,9,10
 614 240 614 240 655 272 c 0,11,12
 696 303 696 303 696 344 c 0,13,14
 696 412 696 412 584 449 c 10,15,-1
 476 485 l 2,16,17
 177 585 177 585 177 808 c 0,18,19
 177 947 177 947 296 1042 c 0,20,21
 394 1120 394 1120 550 1120 c 0,22,23
 776 1120 776 1120 920 933 c 1,24,-1
 720 748 l 1,25,26
 674 866 674 866 550 866 c 0,27,28
 456 866 456 866 456 809 c 0,29,30
 456 767 456 767 571 729 c 2,31,-1
 709 683 l 2,32,33
 983 592 983 592 983 358 c 0,34,35
 983 209 983 209 851 93 c 0,36,37
 721 -20 721 -20 494 -20 c 0,4,5
EndSplineSet
Validated: 1
EndChar

StartChar: uni021B
Encoding: 539 539 239
Width: 850
Flags: W
HStem: 0 21G<170 470> 820 280<491.562 840> 1160 350<170 470>
VStem: 170 300<0 803.515 1160 1510>
DStem2: -2 -340 139 -500 0.742951 0.669346<0 432.414>
LayerCount: 2
Fore
SplineSet
320 -50 m 1,0,-1
 462 -209 l 1,1,-1
 139 -500 l 1,2,-1
 -2 -340 l 1,3,-1
 320 -50 l 1,0,-1
170 0 m 1,4,-1
 170 739 l 2,5,6
 170 1100 170 1100 590 1100 c 2,7,-1
 840 1100 l 1,8,-1
 840 820 l 1,9,-1
 590 820 l 2,10,11
 470 820 470 820 470 717 c 2,12,-1
 470 0 l 1,13,-1
 170 0 l 1,4,-1
170 1510 m 1,14,-1
 470 1510 l 1,15,-1
 470 1160 l 1,16,-1
 170 1160 l 1,17,-1
 170 1510 l 1,14,-1
EndSplineSet
Validated: 1
EndChar

StartChar: zero
Encoding: 48 48 240
Width: 1718
Flags: W
HStem: -20 300<654.317 1064.98> 1230 300<654.908 1065.82>
VStem: 70 320<540.457 966.13> 1328 320<545.593 968.207>
LayerCount: 2
Fore
SplineSet
860 280 m 0,0,1
 1058 280 1058 280 1193 413 c 0,2,3
 1328 547 1328 547 1328 755.5 c 128,-1,4
 1328 964 1328 964 1192 1097 c 128,-1,5
 1056 1230 1056 1230 859 1230 c 0,6,7
 661 1230 661 1230 525 1097 c 0,8,9
 390 964 390 964 390 755 c 0,10,11
 390 544 390 544 526 412 c 0,12,13
 665 280 665 280 860 280 c 0,0,1
859 -20 m 0,14,15
 514 -20 514 -20 292 208 c 128,-1,16
 70 436 70 436 70 757 c 0,17,18
 70 1080 70 1080 284 1294 c 0,19,20
 521 1530 521 1530 862 1530 c 0,21,22
 1205 1530 1205 1530 1434 1293 c 0,23,24
 1648 1072 1648 1072 1648 754.5 c 128,-1,25
 1648 437 1648 437 1425 208 c 0,26,27
 1203 -20 1203 -20 859 -20 c 0,14,15
EndSplineSet
Validated: 1
EndChar

StartChar: uni00AD
Encoding: 173 173 241
Width: 1193
Flags: W
HStem: 593 302<120 1073>
LayerCount: 2
Fore
SplineSet
120 895 m 1,0,-1
 1073 895 l 1,1,-1
 1073 593 l 1,2,-1
 120 593 l 1,3,-1
 120 895 l 1,0,-1
EndSplineSet
Validated: 1
EndChar

StartChar: Agrave
Encoding: 192 192 242
Width: 1822
Flags: W
HStem: 0 21G<5 327.077 1473.92 1817> 458 302<532.969 1062> 1490 20G<755.942 1066.08>
DStem2: 5 0 317 0 0.45005 0.893003<140.416 664.431 1059 1436.45> 729 2010 587 1851 0.742951 -0.669346<0.926964 433.341> 1056 1510 901 1157 0.45005 -0.893003<245.472 1541.06>
LayerCount: 2
Fore
SplineSet
5 0 m 1,0,-1
 226 438 l 2,1,2
 388 760 388 760 678 760 c 2,3,-1
 1062 760 l 1,4,-1
 1062 458 l 1,5,-1
 671 458 l 2,6,7
 548 458 548 458 514 391 c 2,8,-1
 317 0 l 1,9,-1
 5 0 l 1,0,-1
1817 0 m 1,10,-1
 1484 0 l 1,11,-1
 901 1157 l 1,12,-1
 731 820 l 1,13,-1
 419 820 l 1,14,-1
 766 1510 l 1,15,-1
 1056 1510 l 1,16,-1
 1817 0 l 1,10,-1
729 2010 m 1,17,-1
 1051 1720 l 1,18,-1
 910 1560 l 1,19,-1
 587 1851 l 1,20,-1
 729 2010 l 1,17,-1
EndSplineSet
Validated: 1
EndChar

StartChar: Aacute
Encoding: 193 193 243
Width: 1822
Flags: W
HStem: 0 21G<5 327.077 1473.92 1817> 458 302<532.969 1062> 1490 20G<755.942 1066.08>
DStem2: 5 0 317 0 0.45005 0.893003<140.416 664.431 1059 1436.45> 774 1721 915 1561 0.742951 0.669346<0 432.414> 1056 1510 901 1157 0.45005 -0.893003<245.472 1541.06>
LayerCount: 2
Fore
SplineSet
5 0 m 1,0,-1
 226 438 l 2,1,2
 388 760 388 760 678 760 c 2,3,-1
 1062 760 l 1,4,-1
 1062 458 l 1,5,-1
 671 458 l 2,6,7
 548 458 548 458 514 391 c 2,8,-1
 317 0 l 1,9,-1
 5 0 l 1,0,-1
1817 0 m 1,10,-1
 1484 0 l 1,11,-1
 901 1157 l 1,12,-1
 731 820 l 1,13,-1
 419 820 l 1,14,-1
 766 1510 l 1,15,-1
 1056 1510 l 1,16,-1
 1817 0 l 1,10,-1
1096 2011 m 1,17,-1
 1238 1852 l 1,18,-1
 915 1561 l 1,19,-1
 774 1721 l 1,20,-1
 1096 2011 l 1,17,-1
EndSplineSet
Validated: 1
EndChar

StartChar: Acircumflex
Encoding: 194 194 244
Width: 1822
Flags: W
HStem: 0 21G<5 327.077 1473.92 1817> 458 302<532.969 1062> 1490 20G<755.942 1066.08> 1723 287<767.5 1054.5>
DStem2: 5 0 317 0 0.45005 0.893003<140.416 664.431 1059 1436.45> 1056 1510 901 1157 0.45005 -0.893003<245.472 1541.06>
LayerCount: 2
Fore
SplineSet
5 0 m 1,0,-1
 226 438 l 2,1,2
 388 760 388 760 678 760 c 2,3,-1
 1062 760 l 1,4,-1
 1062 458 l 1,5,-1
 671 458 l 2,6,7
 548 458 548 458 514 391 c 2,8,-1
 317 0 l 1,9,-1
 5 0 l 1,0,-1
1817 0 m 1,10,-1
 1484 0 l 1,11,-1
 901 1157 l 1,12,-1
 731 820 l 1,13,-1
 419 820 l 1,14,-1
 766 1510 l 1,15,-1
 1056 1510 l 1,16,-1
 1817 0 l 1,10,-1
911 2010 m 1,17,-1
 1233 1720 l 1,18,-1
 1092 1560 l 1,19,-1
 911 1723 l 1,20,-1
 730 1560 l 1,21,-1
 589 1720 l 1,22,-1
 911 2010 l 1,17,-1
EndSplineSet
Validated: 1
EndChar

StartChar: Atilde
Encoding: 195 195 245
Width: 1822
Flags: W
HStem: 0 21G<5 327.077 1473.92 1817> 458 302<532.969 1062> 1490 20G<755.942 1066.08> 1600 226<999.042 1098.34> 1733 226<767.659 866.958>
DStem2: 5 0 317 0 0.45005 0.893003<140.416 664.431 1059 1436.45> 1056 1510 901 1157 0.45005 -0.893003<245.472 1541.06>
LayerCount: 2
Fore
SplineSet
5 0 m 1,0,-1
 226 438 l 2,1,2
 388 760 388 760 678 760 c 2,3,-1
 1062 760 l 1,4,-1
 1062 458 l 1,5,-1
 671 458 l 2,6,7
 548 458 548 458 514 391 c 2,8,-1
 317 0 l 1,9,-1
 5 0 l 1,0,-1
1817 0 m 1,10,-1
 1484 0 l 1,11,-1
 901 1157 l 1,12,-1
 731 820 l 1,13,-1
 419 820 l 1,14,-1
 766 1510 l 1,15,-1
 1056 1510 l 1,16,-1
 1817 0 l 1,10,-1
1121 1938 m 1,17,-1
 1279 1850 l 1,18,19
 1231 1600 1231 1600 1042 1600 c 0,20,21
 965 1600 965 1600 893 1665 c 2,22,-1
 829 1723 l 2,23,24
 818 1733 818 1733 811 1733 c 0,25,26
 772 1733 772 1733 745 1621 c 1,27,-1
 587 1709 l 1,28,29
 635 1959 635 1959 824 1959 c 0,30,31
 901 1959 901 1959 973 1894 c 2,32,-1
 1037 1836 l 2,33,34
 1048 1826 1048 1826 1055 1826 c 0,35,36
 1094 1826 1094 1826 1121 1938 c 1,17,-1
EndSplineSet
Validated: 1
EndChar

StartChar: Adieresis
Encoding: 196 196 246
Width: 1822
Flags: W
HStem: 0 21G<5 327.077 1473.92 1817> 458 302<532.969 1062> 1490 20G<755.942 1066.08> 1611 343<594.566 823.785 994.566 1223.79>
VStem: 539 340<1666.45 1899.26> 939 340<1666.45 1899.26>
DStem2: 5 0 317 0 0.45005 0.893003<140.416 664.431 1059 1436.45> 1056 1510 901 1157 0.45005 -0.893003<245.472 1541.06>
LayerCount: 2
Fore
SplineSet
5 0 m 1,0,-1
 226 438 l 2,1,2
 388 760 388 760 678 760 c 2,3,-1
 1062 760 l 1,4,-1
 1062 458 l 1,5,-1
 671 458 l 2,6,7
 548 458 548 458 514 391 c 2,8,-1
 317 0 l 1,9,-1
 5 0 l 1,0,-1
1817 0 m 1,10,-1
 1484 0 l 1,11,-1
 901 1157 l 1,12,-1
 731 820 l 1,13,-1
 419 820 l 1,14,-1
 766 1510 l 1,15,-1
 1056 1510 l 1,16,-1
 1817 0 l 1,10,-1
1109 1954 m 0,17,18
 1181 1954 1181 1954 1230 1904 c 128,-1,19
 1279 1854 1279 1854 1279 1782 c 0,20,21
 1279 1711 1279 1711 1229 1660 c 0,22,23
 1182 1611 1182 1611 1110 1611 c 0,24,25
 1037 1611 1037 1611 988 1661.5 c 128,-1,26
 939 1712 939 1712 939 1782 c 0,27,28
 939 1857 939 1857 988 1904 c 0,29,30
 1040 1954 1040 1954 1109 1954 c 0,17,18
709 1954 m 0,31,32
 781 1954 781 1954 830 1904 c 128,-1,33
 879 1854 879 1854 879 1782 c 0,34,35
 879 1711 879 1711 829 1660 c 0,36,37
 782 1611 782 1611 710 1611 c 0,38,39
 637 1611 637 1611 588 1661.5 c 128,-1,40
 539 1712 539 1712 539 1782 c 0,41,42
 539 1857 539 1857 588 1904 c 0,43,44
 640 1954 640 1954 709 1954 c 0,31,32
EndSplineSet
Validated: 1
EndChar

StartChar: Aring
Encoding: 197 197 247
Width: 1822
Flags: W
HStem: 0 21G<5 327.077 1473.92 1817> 458 302<532.969 1062> 1490 20G<755.942 1066.08> 1527 160<839.892 983.384> 1849 161<846.669 976.835>
VStem: 673 157<1696.96 1831.54> 994 157<1696.56 1833.27>
DStem2: 5 0 317 0 0.45005 0.893003<140.416 664.431 1059 1436.45> 1056 1510 901 1157 0.45005 -0.893003<245.472 1541.06>
LayerCount: 2
Fore
SplineSet
5 0 m 1,0,-1
 226 438 l 2,1,2
 388 760 388 760 678 760 c 2,3,-1
 1062 760 l 1,4,-1
 1062 458 l 1,5,-1
 671 458 l 2,6,7
 548 458 548 458 514 391 c 2,8,-1
 317 0 l 1,9,-1
 5 0 l 1,0,-1
1817 0 m 1,10,-1
 1484 0 l 1,11,-1
 901 1157 l 1,12,-1
 731 820 l 1,13,-1
 419 820 l 1,14,-1
 766 1510 l 1,15,-1
 1056 1510 l 1,16,-1
 1817 0 l 1,10,-1
911.5 1849 m 128,-1,18
 877 1849 877 1849 853.5 1825.5 c 128,-1,19
 830 1802 830 1802 830 1768.5 c 128,-1,20
 830 1735 830 1735 855 1711 c 128,-1,21
 880 1687 880 1687 912.5 1687 c 128,-1,22
 945 1687 945 1687 969.5 1712 c 128,-1,23
 994 1737 994 1737 994 1771 c 128,-1,24
 994 1805 994 1805 970 1827 c 128,-1,17
 946 1849 946 1849 911.5 1849 c 128,-1,18
915 2010 m 0,25,26
 1013 2010 1013 2010 1082 1938 c 128,-1,27
 1151 1866 1151 1866 1151 1767 c 128,-1,28
 1151 1668 1151 1668 1079 1598 c 0,29,30
 1007 1527 1007 1527 911 1527 c 0,31,32
 811 1527 811 1527 743 1598 c 0,33,34
 673 1671 673 1671 673 1772.5 c 128,-1,35
 673 1874 673 1874 744.5 1942 c 128,-1,36
 816 2010 816 2010 915 2010 c 0,25,26
EndSplineSet
Validated: 1
EndChar

StartChar: Amacron
Encoding: 256 256 248
Width: 1822
Flags: W
HStem: 0 21G<5 327.077 1473.92 1817> 458 302<532.969 1062> 1490 20G<755.942 1066.08> 1674 222<601 1224>
DStem2: 5 0 317 0 0.45005 0.893003<140.416 664.431 1059 1436.45> 1056 1510 901 1157 0.45005 -0.893003<245.472 1541.06>
LayerCount: 2
Fore
SplineSet
5 0 m 1,0,-1
 226 438 l 2,1,2
 388 760 388 760 678 760 c 2,3,-1
 1062 760 l 1,4,-1
 1062 458 l 1,5,-1
 671 458 l 2,6,7
 548 458 548 458 514 391 c 2,8,-1
 317 0 l 1,9,-1
 5 0 l 1,0,-1
1817 0 m 1,10,-1
 1484 0 l 1,11,-1
 901 1157 l 1,12,-1
 731 820 l 1,13,-1
 419 820 l 1,14,-1
 766 1510 l 1,15,-1
 1056 1510 l 1,16,-1
 1817 0 l 1,10,-1
601 1896 m 1,17,-1
 1224 1896 l 1,18,-1
 1224 1674 l 1,19,-1
 601 1674 l 1,20,-1
 601 1896 l 1,17,-1
EndSplineSet
Validated: 1
EndChar

StartChar: Abreve
Encoding: 258 258 249
Width: 1822
Flags: W
HStem: 0 21G<5 327.077 1473.92 1817> 458 302<532.969 1062> 1490 20G<755.942 1066.08> 1644 222<707.996 1103.89> 1750 226<599 825 993 1219>
DStem2: 5 0 317 0 0.45005 0.893003<140.416 664.431 1059 1436.45> 1056 1510 901 1157 0.45005 -0.893003<245.472 1541.06>
LayerCount: 2
Fore
SplineSet
5 0 m 1,0,-1
 226 438 l 2,1,2
 388 760 388 760 678 760 c 2,3,-1
 1062 760 l 1,4,-1
 1062 458 l 1,5,-1
 671 458 l 2,6,7
 548 458 548 458 514 391 c 2,8,-1
 317 0 l 1,9,-1
 5 0 l 1,0,-1
1817 0 m 1,10,-1
 1484 0 l 1,11,-1
 901 1157 l 1,12,-1
 731 820 l 1,13,-1
 419 820 l 1,14,-1
 766 1510 l 1,15,-1
 1056 1510 l 1,16,-1
 1817 0 l 1,10,-1
599 1976 m 1,17,18
 741 1866 741 1866 904 1866 c 0,19,20
 1068 1866 1068 1866 1219 1976 c 1,21,-1
 1219 1750 l 1,22,23
 1077 1644 1077 1644 907.5 1644 c 128,-1,24
 738 1644 738 1644 599 1750 c 1,25,-1
 599 1976 l 1,17,18
EndSplineSet
Validated: 1
EndChar

StartChar: Aogonek
Encoding: 260 260 250
Width: 1822
Flags: W
HStem: 0 21G<5 327.077> 458 302<532.969 1062> 1490 20G<755.942 1066.08>
VStem: 1194 255<-209.333 -31.5073>
DStem2: 5 0 317 0 0.45005 0.893003<140.416 664.431 1059 1436.45> 1056 1510 901 1157 0.45005 -0.893003<245.472 1351.84>
LayerCount: 2
Fore
SplineSet
5 0 m 1,0,-1
 226 438 l 2,1,2
 388 760 388 760 678 760 c 2,3,-1
 1062 760 l 1,4,-1
 1062 458 l 1,5,-1
 671 458 l 2,6,7
 548 458 548 458 514 391 c 2,8,-1
 317 0 l 1,9,-1
 5 0 l 1,0,-1
1817 0 m 1,10,-1
 1535 0 l 1,11,12
 1449 -50 1449 -50 1449 -131 c 0,13,14
 1449 -203 1449 -203 1580 -262 c 1,15,-1
 1427 -474 l 1,16,17
 1194 -334 1194 -334 1194 -174 c 0,18,19
 1194 23 1194 23 1395 176 c 1,20,-1
 901 1157 l 1,21,-1
 731 820 l 1,22,-1
 419 820 l 1,23,-1
 766 1510 l 1,24,-1
 1056 1510 l 1,25,-1
 1817 0 l 1,10,-1
EndSplineSet
Validated: 1
EndChar

StartChar: Ccedilla
Encoding: 199 199 251
Width: 1474
Flags: W
HStem: 1230 300<654.908 1065.82>
VStem: 70 320<540.457 966.13> 775 257<-221.145 -13.5186>
LayerCount: 2
Fore
SplineSet
728 -11 m 1,0,1
 471 25 471 25 292 208 c 0,2,3
 70 436 70 436 70 757 c 0,4,5
 70 1080 70 1080 284 1294 c 0,6,7
 521 1530 521 1530 862 1530 c 0,8,9
 1205 1530 1205 1530 1434 1293 c 1,10,-1
 1192 1097 l 1,11,12
 1056 1230 1056 1230 859 1230 c 0,13,14
 661 1230 661 1230 525 1097 c 0,15,16
 390 964 390 964 390 755 c 0,17,18
 390 544 390 544 526 412 c 0,19,20
 665 280 665 280 860 280 c 0,21,22
 1058 280 1058 280 1193 413 c 1,23,-1
 1425 208 l 1,24,25
 1255 33 1255 33 1013 -8 c 1,26,27
 1032 -66 1032 -66 1032 -128 c 0,28,29
 1032 -333 1032 -333 787 -494 c 1,30,-1
 638 -275 l 1,31,32
 775 -224 775 -224 775 -122 c 0,33,34
 775 -52 775 -52 728 -11 c 1,0,1
EndSplineSet
Validated: 1
EndChar

StartChar: Cacute
Encoding: 262 262 252
Width: 1474
Flags: W
HStem: -20 300<654.317 1064.98> 1230 300<654.908 1065.82>
VStem: 70 320<540.457 966.13>
DStem2: 722 1720 863 1560 0.727863 0.685723<0 427.558>
LayerCount: 2
Fore
SplineSet
1044 2010 m 1,0,-1
 1186 1851 l 1,1,-1
 863 1560 l 1,2,-1
 722 1720 l 1,3,-1
 1044 2010 l 1,0,-1
859 -20 m 0,4,5
 514 -20 514 -20 292 208 c 128,-1,6
 70 436 70 436 70 757 c 0,7,8
 70 1080 70 1080 284 1294 c 0,9,10
 521 1530 521 1530 862 1530 c 0,11,12
 1205 1530 1205 1530 1434 1293 c 1,13,-1
 1192 1097 l 1,14,15
 1056 1230 1056 1230 859 1230 c 0,16,17
 661 1230 661 1230 525 1097 c 0,18,19
 390 964 390 964 390 755 c 0,20,21
 390 544 390 544 526 412 c 0,22,23
 665 280 665 280 860 280 c 0,24,25
 1058 280 1058 280 1193 413 c 1,26,-1
 1425 208 l 1,27,28
 1203 -20 1203 -20 859 -20 c 0,4,5
EndSplineSet
Validated: 1
EndChar

StartChar: Ccircumflex
Encoding: 264 264 253
Width: 1474
Flags: W
HStem: -20 300<654.317 1064.98> 1230 300<654.908 1065.82> 1723 287<719.5 1006.5>
VStem: 70 320<540.457 966.13>
LayerCount: 2
Fore
SplineSet
863 2010 m 1,0,-1
 1185 1720 l 1,1,-1
 1044 1560 l 1,2,-1
 863 1723 l 1,3,-1
 682 1560 l 1,4,-1
 541 1720 l 1,5,-1
 863 2010 l 1,0,-1
859 -20 m 0,6,7
 514 -20 514 -20 292 208 c 128,-1,8
 70 436 70 436 70 757 c 0,9,10
 70 1080 70 1080 284 1294 c 0,11,12
 521 1530 521 1530 862 1530 c 0,13,14
 1205 1530 1205 1530 1434 1293 c 1,15,-1
 1192 1097 l 1,16,17
 1056 1230 1056 1230 859 1230 c 0,18,19
 661 1230 661 1230 525 1097 c 0,20,21
 390 964 390 964 390 755 c 0,22,23
 390 544 390 544 526 412 c 0,24,25
 665 280 665 280 860 280 c 0,26,27
 1058 280 1058 280 1193 413 c 1,28,-1
 1425 208 l 1,29,30
 1203 -20 1203 -20 859 -20 c 0,6,7
EndSplineSet
Validated: 1
EndChar

StartChar: Cdotaccent
Encoding: 266 266 254
Width: 1474
Flags: W
HStem: -20 300<654.317 1064.98> 1230 300<654.908 1065.82> 1590 383<742.934 984.782>
VStem: 70 320<540.457 966.13> 675 377<1658.47 1906.28>
LayerCount: 2
Fore
SplineSet
866 1973 m 4,0,1
 948 1973 948 1973 1000 1919 c 132,-1,2
 1052 1865 1052 1865 1052 1783 c 4,3,4
 1052 1700 1052 1700 998 1646 c 4,5,6
 942 1590 942 1590 862 1590 c 132,-1,7
 782 1590 782 1590 728.5 1647.5 c 132,-1,8
 675 1705 675 1705 675 1784.5 c 132,-1,9
 675 1864 675 1864 730.5 1918.5 c 132,-1,10
 786 1973 786 1973 866 1973 c 4,0,1
859 -20 m 0,11,12
 514 -20 514 -20 292 208 c 128,-1,13
 70 436 70 436 70 757 c 0,14,15
 70 1080 70 1080 284 1294 c 0,16,17
 521 1530 521 1530 862 1530 c 0,18,19
 1205 1530 1205 1530 1434 1293 c 1,20,-1
 1192 1097 l 1,21,22
 1056 1230 1056 1230 859 1230 c 0,23,24
 661 1230 661 1230 525 1097 c 0,25,26
 390 964 390 964 390 755 c 0,27,28
 390 544 390 544 526 412 c 0,29,30
 665 280 665 280 860 280 c 0,31,32
 1058 280 1058 280 1193 413 c 1,33,-1
 1425 208 l 1,34,35
 1203 -20 1203 -20 859 -20 c 0,11,12
EndSplineSet
Validated: 1
EndChar

StartChar: Ccaron
Encoding: 268 268 255
Width: 1474
Flags: W
HStem: -20 300<654.317 1064.98> 1230 300<654.908 1065.82> 1560 287<719.5 1006.5>
VStem: 70 320<540.457 966.13>
LayerCount: 2
Fore
SplineSet
682 2010 m 1,0,-1
 863 1847 l 1,1,-1
 1044 2010 l 1,2,-1
 1185 1850 l 1,3,-1
 863 1560 l 1,4,-1
 541 1850 l 1,5,-1
 682 2010 l 1,0,-1
859 -20 m 0,6,7
 514 -20 514 -20 292 208 c 128,-1,8
 70 436 70 436 70 757 c 0,9,10
 70 1080 70 1080 284 1294 c 0,11,12
 521 1530 521 1530 862 1530 c 0,13,14
 1205 1530 1205 1530 1434 1293 c 1,15,-1
 1192 1097 l 1,16,17
 1056 1230 1056 1230 859 1230 c 0,18,19
 661 1230 661 1230 525 1097 c 0,20,21
 390 964 390 964 390 755 c 0,22,23
 390 544 390 544 526 412 c 0,24,25
 665 280 665 280 860 280 c 0,26,27
 1058 280 1058 280 1193 413 c 1,28,-1
 1425 208 l 1,29,30
 1203 -20 1203 -20 859 -20 c 0,6,7
EndSplineSet
Validated: 1
EndChar

StartChar: Dcaron
Encoding: 270 270 256
Width: 1675
Flags: W
HStem: -20 300<610 1019.13> 0 21G<170 490> 1230 300<503.149 1019.54> 1560 287<622.5 909.5>
VStem: 170 320<0 1214.7> 1285 320<545.857 968.986>
LayerCount: 2
Fore
SplineSet
585 2010 m 1,0,-1
 766 1847 l 1,1,-1
 947 2010 l 1,2,-1
 1088 1850 l 1,3,-1
 766 1560 l 1,4,-1
 444 1850 l 1,5,-1
 585 2010 l 1,0,-1
170 0 m 1,6,-1
 170 1159 l 2,7,8
 170 1530 170 1530 590 1530 c 2,9,-1
 816 1530 l 2,10,11
 1159 1530 1159 1530 1391 1293 c 0,12,13
 1605 1074 1605 1074 1605 754 c 0,14,15
 1605 437 1605 437 1382.5 208.5 c 128,-1,16
 1160 -20 1160 -20 816 -20 c 2,17,-1
 610 -20 l 1,18,-1
 610 280 l 1,19,-1
 816 280 l 2,20,21
 1017 280 1017 280 1150 413 c 0,22,23
 1285 548 1285 548 1285 756.5 c 128,-1,24
 1285 965 1285 965 1149 1097.5 c 128,-1,25
 1013 1230 1013 1230 816 1230 c 2,26,-1
 590 1230 l 2,27,28
 490 1230 490 1230 490 1139 c 2,29,-1
 490 0 l 1,30,-1
 170 0 l 1,6,-1
EndSplineSet
Validated: 1
EndChar

StartChar: Egrave
Encoding: 200 200 257
Width: 1238
Flags: W
HStem: 0 300<490 1168> 599 302<503.149 981> 1209 301<503.149 981>
VStem: 170 320<300 580.605 961 1191.3>
DStem2: 498 2010 356 1851 0.742951 -0.669346<0.926964 433.341>
LayerCount: 2
Fore
SplineSet
498 2010 m 1,0,-1
 820 1720 l 1,1,-1
 679 1560 l 1,2,-1
 356 1851 l 1,3,-1
 498 2010 l 1,0,-1
981 1510 m 1,4,-1
 981 1209 l 1,5,-1
 590 1209 l 2,6,7
 490 1209 490 1209 490 1113 c 2,8,-1
 490 961 l 1,9,-1
 170 961 l 1,10,-1
 170 1135 l 2,11,12
 170 1510 170 1510 590 1510 c 2,13,-1
 981 1510 l 1,4,-1
170 0 m 1,14,-1
 170 524 l 2,15,16
 170 901 170 901 590 901 c 2,17,-1
 981 901 l 1,18,-1
 981 599 l 1,19,-1
 590 599 l 2,20,21
 490 599 490 599 490 504 c 2,22,-1
 490 300 l 1,23,-1
 1168 300 l 1,24,-1
 1168 0 l 1,25,-1
 170 0 l 1,14,-1
EndSplineSet
Validated: 1
EndChar

StartChar: Eacute
Encoding: 201 201 258
Width: 1238
Flags: W
HStem: 0 300<490 1168> 599 302<503.149 981> 1209 301<503.149 981>
VStem: 170 320<300 580.605 961 1191.3>
DStem2: 444 1721 585 1561 0.742951 0.669346<0 432.414>
LayerCount: 2
Fore
SplineSet
766 2011 m 1,0,-1
 908 1852 l 1,1,-1
 585 1561 l 1,2,-1
 444 1721 l 1,3,-1
 766 2011 l 1,0,-1
981 1510 m 1,4,-1
 981 1209 l 1,5,-1
 590 1209 l 2,6,7
 490 1209 490 1209 490 1113 c 2,8,-1
 490 961 l 1,9,-1
 170 961 l 1,10,-1
 170 1135 l 2,11,12
 170 1510 170 1510 590 1510 c 2,13,-1
 981 1510 l 1,4,-1
170 0 m 1,14,-1
 170 524 l 2,15,16
 170 901 170 901 590 901 c 2,17,-1
 981 901 l 1,18,-1
 981 599 l 1,19,-1
 590 599 l 2,20,21
 490 599 490 599 490 504 c 2,22,-1
 490 300 l 1,23,-1
 1168 300 l 1,24,-1
 1168 0 l 1,25,-1
 170 0 l 1,14,-1
EndSplineSet
Validated: 1
EndChar

StartChar: Ecircumflex
Encoding: 202 202 259
Width: 1238
Flags: W
HStem: 0 300<490 1168> 599 302<503.149 981> 1209 301<503.149 981> 1723 287<487.5 774.5>
VStem: 170 320<300 580.605 961 1191.3>
LayerCount: 2
Fore
SplineSet
631 2010 m 1,0,-1
 953 1720 l 1,1,-1
 812 1560 l 1,2,-1
 631 1723 l 1,3,-1
 450 1560 l 1,4,-1
 309 1720 l 1,5,-1
 631 2010 l 1,0,-1
981 1510 m 1,6,-1
 981 1209 l 1,7,-1
 590 1209 l 2,8,9
 490 1209 490 1209 490 1113 c 2,10,-1
 490 961 l 1,11,-1
 170 961 l 1,12,-1
 170 1135 l 2,13,14
 170 1510 170 1510 590 1510 c 2,15,-1
 981 1510 l 1,6,-1
170 0 m 1,16,-1
 170 524 l 2,17,18
 170 901 170 901 590 901 c 2,19,-1
 981 901 l 1,20,-1
 981 599 l 1,21,-1
 590 599 l 2,22,23
 490 599 490 599 490 504 c 2,24,-1
 490 300 l 1,25,-1
 1168 300 l 1,26,-1
 1168 0 l 1,27,-1
 170 0 l 1,16,-1
EndSplineSet
Validated: 1
EndChar

StartChar: Edieresis
Encoding: 203 203 260
Width: 1238
Flags: W
HStem: 0 300<490 1168> 599 302<503.149 981> 1209 301<503.149 981> 1611 343<266.566 495.785 666.566 895.785>
VStem: 170 320<300 580.605 961 1191.3> 211 340<1666.45 1899.26> 611 340<1666.45 1899.26>
LayerCount: 2
Fore
SplineSet
781 1954 m 0,0,1
 853 1954 853 1954 902 1904 c 128,-1,2
 951 1854 951 1854 951 1782 c 0,3,4
 951 1711 951 1711 901 1660 c 0,5,6
 854 1611 854 1611 782 1611 c 0,7,8
 709 1611 709 1611 660 1661.5 c 128,-1,9
 611 1712 611 1712 611 1782 c 0,10,11
 611 1857 611 1857 660 1904 c 0,12,13
 712 1954 712 1954 781 1954 c 0,0,1
381 1954 m 0,14,15
 453 1954 453 1954 502 1904 c 128,-1,16
 551 1854 551 1854 551 1782 c 0,17,18
 551 1711 551 1711 501 1660 c 0,19,20
 454 1611 454 1611 382 1611 c 0,21,22
 309 1611 309 1611 260 1661.5 c 128,-1,23
 211 1712 211 1712 211 1782 c 0,24,25
 211 1857 211 1857 260 1904 c 0,26,27
 312 1954 312 1954 381 1954 c 0,14,15
981 1510 m 1,28,-1
 981 1209 l 1,29,-1
 590 1209 l 2,30,31
 490 1209 490 1209 490 1113 c 2,32,-1
 490 961 l 1,33,-1
 170 961 l 1,34,-1
 170 1135 l 2,35,36
 170 1510 170 1510 590 1510 c 2,37,-1
 981 1510 l 1,28,-1
170 0 m 1,38,-1
 170 524 l 2,39,40
 170 901 170 901 590 901 c 2,41,-1
 981 901 l 1,42,-1
 981 599 l 1,43,-1
 590 599 l 2,44,45
 490 599 490 599 490 504 c 2,46,-1
 490 300 l 1,47,-1
 1168 300 l 1,48,-1
 1168 0 l 1,49,-1
 170 0 l 1,38,-1
EndSplineSet
Validated: 1
EndChar

